<?xml version="1.0" encoding="UTF-8"?>
<!DOCTYPE svg PUBLIC "-//W3C//DTD SVG 1.1//EN" "http://www.w3.org/Graphics/SVG/1.1/DTD/svg11.dtd">
<svg version="1.2" xmlns="http://www.w3.org/2000/svg" xmlns:xlink="http://www.w3.org/1999/xlink" x="0" y="0" width="536" height="191" viewBox="0 0 536 191">
<style type="text/css"><![CDATA[
text { font:12px Dialog; }
]]></style>
<rect x="-780" y="-485" width="2048" height="1161" style="fill:rgb(255,255,255);stroke:none" />
<clipPath id="clip1"><path d="M14,14 L522,14 L522,177 L14,177 L14,14 Z" /></clipPath>
<path d="M327.0420227,64 L327.0420227,43 C327.0420227,38.5839996 330.6260071,35 335.0420227,35 L406,35" style="fill:none;stroke:rgb(128,128,128);stroke-width:3" clip-path="url(#clip1)" />
<clipPath id="clip2"><path d="M14,14 L522,14 L522,177 L14,177 L14,14 Z" /></clipPath>
<path d="M325.6694336,125 L325.6694336,147 C325.6694336,151.4160004 329.253418,155 333.6694336,155 L406,155" style="fill:none;stroke:rgb(128,128,128);stroke-width:3" clip-path="url(#clip2)" />
<clipPath id="clip3"><path d="M14,14 L522,14 L522,177 L14,177 L14,14 Z" /></clipPath>
<path d="M161.8264465,125 L161.8264465,147 C161.8264465,151.4160004 158.2424469,155 153.8264465,155 L81,155" style="fill:none;stroke:rgb(128,128,128);stroke-width:3" clip-path="url(#clip3)" />
<clipPath id="clip4"><path d="M122,61 L367,61 L367,129 L122,129 L122,61 Z" /></clipPath>
<path d="M125,72 C125,67.5817184 128.5817261,64 133,64 L355,64 C359.4182739,64 363,67.5817184 363,72 L363,117 C363,121.4182816 359.4182739,125 355,125 L133,125 C128.5817261,125 125,121.4182816 125,117 Z" style="fill:rgb(255,255,255);stroke:none" clip-path="url(#clip4)" />
<clipPath id="clip5"><path d="M122,61 L367,61 L367,129 L122,129 L122,61 Z" /></clipPath>
<path d="M125,72 C125,67.5817184 128.5817261,64 133,64 L355,64 C359.4182739,64 363,67.5817184 363,72 L363,117 C363,121.4182816 359.4182739,125 355,125 L133,125 C128.5817261,125 125,121.4182816 125,117 Z" style="fill:none;stroke:rgb(128,128,128);stroke-width:3" clip-path="url(#clip5)" />
<clipPath id="clip6"><path d="M147,78 L342,78 L342,112 L147,112 L147,78 Z" /></clipPath>
<path d="M158.7187653,103.1445313 L158.6484528,101.3867188 C158.3986969,101.6921387 158.1408844,101.9697266 157.8750153,102.2194824 C157.6098785,102.4699707 157.324234,102.682373 157.0195465,102.8581543 C156.714859,103.0339355 156.3889313,103.170166 156.0410309,103.2675781 C155.6938629,103.3657227 155.308609,103.4140625 154.886734,103.4140625 C154.183609,103.4140625 153.5588531,103.2741699 153.011734,102.9929199 C152.4653473,102.7116699 152.0061188,102.3117676 151.6347809,101.791748 C151.2641754,101.2724609 150.9807281,100.6418457 150.7851715,99.8991699 C150.5903473,99.1572266 150.4922028,98.3288574 150.4922028,97.4140625 C150.4922028,96.3212891 150.6467438,95.3742676 150.9550934,94.572998 C151.2641754,93.7724609 151.6919098,93.1081543 152.2382965,92.5808105 C152.7854156,92.0534668 153.433609,91.6630859 154.183609,91.4089355 C154.933609,91.1555176 155.7502594,91.0280762 156.6328278,91.0273438 C156.930191,91.0280762 157.2290192,91.0478516 157.5293121,91.0866699 C157.8303375,91.1262207 158.0976715,91.1767578 158.3320465,91.2382813 L158.3320465,86.5859375 L161.1914215,86.5859375 L161.1914215,103.1445313 Z M153.4922028,97.2851563 C153.4922028,97.9421387 153.5376129,98.5031738 153.6269684,98.9675293 C153.7170563,99.4326172 153.8496246,99.8134766 154.0254059,100.1101074 C154.2011871,100.4074707 154.417984,100.6242676 154.6757965,100.760498 C154.933609,100.8974609 155.2265778,100.9655762 155.5547028,100.9648438 C156.039566,100.9655762 156.5002594,100.770752 156.9375153,100.3796387 C157.3755035,99.9892578 157.839859,99.4538574 158.3320465,98.7734375 L158.3320465,93.5703125 C158.1057281,93.4853516 157.8266754,93.4150391 157.4941559,93.3601074 C157.1623688,93.3059082 156.8283844,93.2780762 156.4922028,93.2773438 C156.0315094,93.2780762 155.617691,93.3718262 155.2500153,93.5593262 C154.8830719,93.7468262 154.5688629,94.0126953 154.3066559,94.3562012 C154.0451813,94.7004395 153.8437653,95.1201172 153.7031403,95.6159668 C153.5625153,96.1125488 153.4922028,96.668457 153.4922028,97.2851563 Z M175.1953278,96.2773438 C175.1953278,96.4736328 175.1894684,96.7277832 175.1777496,97.0397949 C175.1660309,97.3525391 175.1484528,97.6455078 175.1250153,97.9179688 L167.2968903,97.9179688 C167.2968903,98.4423828 167.3774567,98.9030762 167.5371246,99.3015137 C167.697525,99.6999512 167.9238434,100.0339355 168.2168121,100.3034668 C168.5097809,100.572998 168.8613434,100.7780762 169.2714996,100.9187012 C169.6816559,101.0593262 170.1372223,101.1296387 170.636734,101.1289063 C171.2153473,101.1296387 171.8342438,101.0849609 172.4941559,100.994873 C173.1548004,100.9055176 173.8403473,100.7583008 174.5507965,100.5546875 L174.5507965,102.828125 C174.246109,102.9145508 173.9143219,102.9929199 173.5547028,103.0632324 C173.195816,103.1335449 172.8281403,103.1958008 172.4531403,103.25 C172.0781403,103.3049316 171.6994781,103.3459473 171.3164215,103.3730469 C170.9340973,103.4008789 170.5627594,103.4140625 170.2031403,103.4140625 C169.2971344,103.4140625 168.4848785,103.2858887 167.7656403,103.0280762 C167.0471344,102.7702637 166.4377594,102.3894043 165.9375153,101.885498 C165.4380035,101.3815918 165.0549469,100.7590332 164.7890778,100.0163574 C164.523941,99.2744141 164.3906403,98.4145508 164.3906403,97.4375 C164.3906403,96.4692383 164.523941,95.5888672 164.7890778,94.7956543 C165.0549469,94.0031738 165.4299469,93.3234863 165.9140778,92.7565918 C166.398941,92.1904297 166.9863434,91.7531738 167.6777496,91.4440918 C168.3691559,91.1357422 169.1411285,90.9812012 169.9922028,90.9804688 C170.8359528,90.9812012 171.5822906,91.1123047 172.230484,91.3737793 C172.8794098,91.6359863 173.4221344,92.0007324 173.8593903,92.4694824 C174.2973785,92.9382324 174.6291656,93.4970703 174.855484,94.1452637 C175.0825348,94.7941895 175.1953278,95.5046387 175.1953278,96.2773438 Z M172.2890778,95.8671875 C172.2971344,95.3991699 172.2385406,94.9912109 172.1132965,94.6433105 C171.9887848,94.2961426 171.8188629,94.0090332 171.6035309,93.7819824 C171.3889313,93.5556641 171.1391754,93.3879395 170.8535309,93.2780762 C170.5686188,93.1689453 170.261734,93.1140137 169.933609,93.1132813 C169.2151031,93.1140137 168.6255035,93.354248 168.1640778,93.8347168 C167.7033844,94.3151855 167.430191,94.9926758 167.3437653,95.8671875 Z M182.261734,88.8125 L178.8984528,88.8125 L178.8984528,86.5859375 L185.1914215,86.5859375 L185.1914215,100.9179688 L188.6250153,100.9179688 L188.6250153,103.1445313 L178.4882965,103.1445313 L178.4882965,100.9179688 L182.261734,100.9179688 Z M202.3828278,96.2773438 C202.3828278,96.4736328 202.3769684,96.7277832 202.3652496,97.0397949 C202.3535309,97.3525391 202.3359528,97.6455078 202.3125153,97.9179688 L194.4843903,97.9179688 C194.4843903,98.4423828 194.5649567,98.9030762 194.7246246,99.3015137 C194.885025,99.6999512 195.1113434,100.0339355 195.4043121,100.3034668 C195.6972809,100.572998 196.0488434,100.7780762 196.4589996,100.9187012 C196.8691559,101.0593262 197.3247223,101.1296387 197.824234,101.1289063 C198.4028473,101.1296387 199.0217438,101.0849609 199.6816559,100.994873 C200.3423004,100.9055176 201.0278473,100.7583008 201.7382965,100.5546875 L201.7382965,102.828125 C201.433609,102.9145508 201.1018219,102.9929199 200.7422028,103.0632324 C200.383316,103.1335449 200.0156403,103.1958008 199.6406403,103.25 C199.2656403,103.3049316 198.8869781,103.3459473 198.5039215,103.3730469 C198.1215973,103.4008789 197.7502594,103.4140625 197.3906403,103.4140625 C196.4846344,103.4140625 195.6723785,103.2858887 194.9531403,103.0280762 C194.2346344,102.7702637 193.6252594,102.3894043 193.1250153,101.885498 C192.6255035,101.3815918 192.2424469,100.7590332 191.9765778,100.0163574 C191.711441,99.2744141 191.5781403,98.4145508 191.5781403,97.4375 C191.5781403,96.4692383 191.711441,95.5888672 191.9765778,94.7956543 C192.2424469,94.0031738 192.6174469,93.3234863 193.1015778,92.7565918 C193.586441,92.1904297 194.1738434,91.7531738 194.8652496,91.4440918 C195.5566559,91.1357422 196.3286285,90.9812012 197.1797028,90.9804688 C198.0234528,90.9812012 198.7697906,91.1123047 199.417984,91.3737793 C200.0669098,91.6359863 200.6096344,92.0007324 201.0468903,92.4694824 C201.4848785,92.9382324 201.8166656,93.4970703 202.042984,94.1452637 C202.2700348,94.7941895 202.3828278,95.5046387 202.3828278,96.2773438 Z M199.4765778,95.8671875 C199.4846344,95.3991699 199.4260406,94.9912109 199.3007965,94.6433105 C199.1762848,94.2961426 199.0063629,94.0090332 198.7910309,93.7819824 C198.5764313,93.5556641 198.3266754,93.3879395 198.0410309,93.2780762 C197.7561188,93.1689453 197.449234,93.1140137 197.121109,93.1132813 C196.4026031,93.1140137 195.8130035,93.354248 195.3515778,93.8347168 C194.8908844,94.3151855 194.617691,94.9926758 194.5312653,95.8671875 Z M215.4257965,103.0273438 C214.9101715,103.1445313 214.3908844,103.2382813 213.8672028,103.3085938 C213.3442535,103.3789063 212.8476715,103.4140625 212.3789215,103.4140625 C211.5981598,103.4140625 210.9243317,103.3320313 210.3574371,103.1679688 C209.791275,103.0046387 209.322525,102.7548828 208.9511871,102.4187012 C208.5805817,102.083252 208.3066559,101.6555176 208.1308746,101.135498 C207.9550934,100.6162109 207.8672028,99.996582 207.8672028,99.2773438 L207.8672028,93.4648438 L204.667984,93.4648438 L204.667984,91.2382813 L207.8672028,91.2382813 L207.8672028,88.1914063 L210.7968903,87.4296875 L210.7968903,91.2382813 L215.4257965,91.2382813 L215.4257965,93.4648438 L210.7968903,93.4648438 L210.7968903,99.0664063 C210.7968903,99.7468262 210.9536285,100.2609863 211.2656403,100.6081543 C211.5783844,100.9560547 212.102066,101.1296387 212.8359528,101.1289063 C213.3047028,101.1296387 213.761734,101.0908203 214.2070465,101.0124512 C214.652359,100.9348145 215.0588531,100.8447266 215.4257965,100.7421875 Z M229.5703278,96.2773438 C229.5703278,96.4736328 229.5644684,96.7277832 229.5527496,97.0397949 C229.5410309,97.3525391 229.5234528,97.6455078 229.5000153,97.9179688 L221.6718903,97.9179688 C221.6718903,98.4423828 221.7524567,98.9030762 221.9121246,99.3015137 C222.072525,99.6999512 222.2988434,100.0339355 222.5918121,100.3034668 C222.8847809,100.572998 223.2363434,100.7780762 223.6464996,100.9187012 C224.0566559,101.0593262 224.5122223,101.1296387 225.011734,101.1289063 C225.5903473,101.1296387 226.2092438,101.0849609 226.8691559,100.994873 C227.5298004,100.9055176 228.2153473,100.7583008 228.9257965,100.5546875 L228.9257965,102.828125 C228.621109,102.9145508 228.2893219,102.9929199 227.9297028,103.0632324 C227.570816,103.1335449 227.2031403,103.1958008 226.8281403,103.25 C226.4531403,103.3049316 226.0744781,103.3459473 225.6914215,103.3730469 C225.3090973,103.4008789 224.9377594,103.4140625 224.5781403,103.4140625 C223.6721344,103.4140625 222.8598785,103.2858887 222.1406403,103.0280762 C221.4221344,102.7702637 220.8127594,102.3894043 220.3125153,101.885498 C219.8130035,101.3815918 219.4299469,100.7590332 219.1640778,100.0163574 C218.898941,99.2744141 218.7656403,98.4145508 218.7656403,97.4375 C218.7656403,96.4692383 218.898941,95.5888672 219.1640778,94.7956543 C219.4299469,94.0031738 219.8049469,93.3234863 220.2890778,92.7565918 C220.773941,92.1904297 221.3613434,91.7531738 222.0527496,91.4440918 C222.7441559,91.1357422 223.5161285,90.9812012 224.3672028,90.9804688 C225.2109528,90.9812012 225.9572906,91.1123047 226.605484,91.3737793 C227.2544098,91.6359863 227.7971344,92.0007324 228.2343903,92.4694824 C228.6723785,92.9382324 229.0041656,93.4970703 229.230484,94.1452637 C229.4575348,94.7941895 229.5703278,95.5046387 229.5703278,96.2773438 Z M226.6640778,95.8671875 C226.6721344,95.3991699 226.6135406,94.9912109 226.4882965,94.6433105 C226.3637848,94.2961426 226.1938629,94.0090332 225.9785309,93.7819824 C225.7639313,93.5556641 225.5141754,93.3879395 225.2285309,93.2780762 C224.9436188,93.1689453 224.636734,93.1140137 224.308609,93.1132813 C223.5901031,93.1140137 223.0005035,93.354248 222.5390778,93.8347168 C222.0783844,94.3151855 221.805191,94.9926758 221.7187653,95.8671875 Z M243.9257965,95.421875 C243.9257965,96.8134766 243.7639313,98.0124512 243.4394684,99.0202637 C243.1157379,100.0280762 242.6704254,100.8564453 242.1035309,101.5046387 C241.5373688,102.1535645 240.8730621,102.6340332 240.1113434,102.9460449 C239.3496246,103.2580566 238.5351715,103.4140625 237.667984,103.4140625 C235.652359,103.4140625 234.1369781,102.7453613 233.121109,101.4050293 C232.1059723,100.0654297 231.5976715,98.1179199 231.5976715,95.5625 C231.5976715,94.1723633 231.7602692,92.9733887 232.0839996,91.9655762 C232.4084625,90.9577637 232.853775,90.130127 233.4199371,89.4812012 C233.9868317,88.8330078 234.6504059,88.3525391 235.4121246,88.0397949 C236.1738434,87.7277832 236.9882965,87.5710449 237.855484,87.5703125 C239.871109,87.5710449 241.3872223,88.2390137 242.402359,89.5749512 C243.4182281,90.9108887 243.9257965,92.8598633 243.9257965,95.421875 Z M240.8789215,95.5625 C240.8789215,93.7504883 240.6372223,92.3991699 240.152359,91.5085449 C239.6682281,90.6179199 238.8713531,90.1726074 237.761734,90.171875 C237.2072906,90.1726074 236.7348785,90.2883301 236.3437653,90.5183105 C235.9533844,90.7490234 235.6311188,91.0866699 235.3769684,91.5319824 C235.1235504,91.9772949 234.9375153,92.5266113 234.8203278,93.1784668 C234.7031403,93.8310547 234.6445465,94.5788574 234.6445465,95.421875 C234.6445465,97.2353516 234.8891754,98.5866699 235.3769684,99.4772949 C235.8654938,100.3679199 236.6601715,100.8132324 237.761734,100.8125 C238.3169098,100.8132324 238.7915192,100.6982422 239.1855621,100.4675293 C239.5803375,100.2375488 239.9026031,99.8991699 240.152359,99.4538574 C240.4028473,99.0085449 240.5859528,98.4599609 240.7031403,97.807373 C240.8203278,97.1555176 240.8789215,96.4069824 240.8789215,95.5625 Z M256.1601563,103.1445313 L252.9843903,103.1445313 L251.7187653,99.3710938 L251.3320465,98.0585938 L250.9453278,99.40625 L249.7265778,103.1445313 L246.5390778,103.1445313 L244.8515778,91.2382813 L247.5703278,91.2382813 L248.4257965,97.9648438 L248.6250153,99.8046875 L249.105484,98.1523438 L250.3007965,94.53125 L252.480484,94.53125 L253.7578278,98.1289063 L254.308609,99.828125 L254.5312653,97.9414063 L255.246109,91.2382813 L257.8359375,91.2382813 Z M267.0820313,103.1445313 L267.0820313,95.3867188 C267.0820313,94.0830078 266.5979004,93.4304199 265.6289063,93.4296875 C265.1447754,93.4304199 264.6818848,93.6259766 264.2402344,94.0163574 C263.7993164,94.4074707 263.3320313,94.9384766 262.8398438,95.609375 L262.8398438,103.1445313 L259.9804993,103.1445313 L259.9804993,91.2382813 L262.453125,91.2382813 L262.5234375,92.9960938 C262.7658691,92.6921387 263.0178223,92.4152832 263.2792969,92.1647949 C263.5415039,91.9150391 263.8242188,91.7019043 264.1289063,91.526123 C264.4335938,91.3503418 264.7617188,91.2155762 265.1132813,91.1218262 C265.4648438,91.0280762 265.8596191,90.9812012 266.296875,90.9804688 C266.90625,90.9812012 267.4379883,91.0808105 267.890625,91.2800293 C268.3439941,91.479248 268.7226563,91.760498 269.0273438,92.1237793 C269.3320313,92.4870605 269.5605469,92.9250488 269.7128906,93.4362793 C269.8652344,93.9482422 269.9414063,94.5202637 269.9414063,95.1523438 L269.9414063,103.1445313 Z M283.9453125,96.2773438 C283.9453125,96.4736328 283.9394531,96.7277832 283.9277344,97.0397949 C283.9160156,97.3525391 283.8984375,97.6455078 283.875,97.9179688 L276.046875,97.9179688 C276.046875,98.4423828 276.1274414,98.9030762 276.2871094,99.3015137 C276.4475098,99.6999512 276.6738281,100.0339355 276.9667969,100.3034668 C277.2597656,100.572998 277.6113281,100.7780762 278.0214844,100.9187012 C278.4316406,101.0593262 278.887207,101.1296387 279.3867188,101.1289063 C279.965332,101.1296387 280.5842285,101.0849609 281.2441406,100.994873 C281.9047852,100.9055176 282.590332,100.7583008 283.3007813,100.5546875 L283.3007813,102.828125 C282.9960938,102.9145508 282.6643066,102.9929199 282.3046875,103.0632324 C281.9458008,103.1335449 281.578125,103.1958008 281.203125,103.25 C280.828125,103.3049316 280.4494629,103.3459473 280.0664063,103.3730469 C279.684082,103.4008789 279.3127441,103.4140625 278.953125,103.4140625 C278.0471191,103.4140625 277.2348633,103.2858887 276.515625,103.0280762 C275.7971191,102.7702637 275.1877441,102.3894043 274.6875,101.885498 C274.1879883,101.3815918 273.8049316,100.7590332 273.5390625,100.0163574 C273.2739258,99.2744141 273.140625,98.4145508 273.140625,97.4375 C273.140625,96.4692383 273.2739258,95.5888672 273.5390625,94.7956543 C273.8049316,94.0031738 274.1799316,93.3234863 274.6640625,92.7565918 C275.1489258,92.1904297 275.7363281,91.7531738 276.4277344,91.4440918 C277.1191406,91.1357422 277.8911133,90.9812012 278.7421875,90.9804688 C279.5859375,90.9812012 280.3322754,91.1123047 280.9804688,91.3737793 C281.6293945,91.6359863 282.1721191,92.0007324 282.609375,92.4694824 C283.0473633,92.9382324 283.3791504,93.4970703 283.6054688,94.1452637 C283.8325195,94.7941895 283.9453125,95.5046387 283.9453125,96.2773438 Z M281.0390625,95.8671875 C281.0471191,95.3991699 280.9885254,94.9912109 280.8632813,94.6433105 C280.7387695,94.2961426 280.5688477,94.0090332 280.3535156,93.7819824 C280.138916,93.5556641 279.8891602,93.3879395 279.6035156,93.2780762 C279.3186035,93.1689453 279.0117188,93.1140137 278.6835938,93.1132813 C277.9650879,93.1140137 277.3754883,93.354248 276.9140625,93.8347168 C276.4533691,94.3151855 276.1801758,94.9926758 276.09375,95.8671875 Z M294.65625,103.1445313 L294.5859375,101.3867188 C294.3361816,101.6921387 294.0783691,101.9697266 293.8125,102.2194824 C293.5473633,102.4699707 293.2617188,102.682373 292.9570313,102.8581543 C292.6523438,103.0339355 292.326416,103.170166 291.9785156,103.2675781 C291.6313477,103.3657227 291.2460938,103.4140625 290.8242188,103.4140625 C290.1210938,103.4140625 289.4963379,103.2741699 288.9492188,102.9929199 C288.402832,102.7116699 287.9436035,102.3117676 287.5722656,101.791748 C287.2016602,101.2724609 286.9182129,100.6418457 286.7226563,99.8991699 C286.527832,99.1572266 286.4296875,98.3288574 286.4296875,97.4140625 C286.4296875,96.3212891 286.5842285,95.3742676 286.8925781,94.572998 C287.2016602,93.7724609 287.6293945,93.1081543 288.1757813,92.5808105 C288.7229004,92.0534668 289.3710938,91.6630859 290.1210938,91.4089355 C290.8710938,91.1555176 291.6877441,91.0280762 292.5703125,91.0273438 C292.8676758,91.0280762 293.1665039,91.0478516 293.4667969,91.0866699 C293.7678223,91.1262207 294.0351563,91.1767578 294.2695313,91.2382813 L294.2695313,86.5859375 L297.1289063,86.5859375 L297.1289063,103.1445313 Z M289.4296875,97.2851563 C289.4296875,97.9421387 289.4750977,98.5031738 289.5644531,98.9675293 C289.654541,99.4326172 289.7871094,99.8134766 289.9628906,100.1101074 C290.1386719,100.4074707 290.3554688,100.6242676 290.6132813,100.760498 C290.8710938,100.8974609 291.1640625,100.9655762 291.4921875,100.9648438 C291.9770508,100.9655762 292.4377441,100.770752 292.875,100.3796387 C293.3129883,99.9892578 293.7773438,99.4538574 294.2695313,98.7734375 L294.2695313,93.5703125 C294.0432129,93.4853516 293.7641602,93.4150391 293.4316406,93.3601074 C293.0998535,93.3059082 292.7658691,93.2780762 292.4296875,93.2773438 C291.9689941,93.2780762 291.5551758,93.3718262 291.1875,93.5593262 C290.8205566,93.7468262 290.5063477,94.0126953 290.2441406,94.3562012 C289.982666,94.7004395 289.78125,95.1201172 289.640625,95.6159668 C289.5,96.1125488 289.4296875,96.668457 289.4296875,97.2851563 Z M311.34375,92.703125 C311.34375,93.5007324 311.2111816,94.2375488 310.9453125,94.9128418 C310.6801758,95.5888672 310.2854004,96.1726074 309.7617188,96.6647949 C309.2387695,97.1569824 308.5861816,97.5400391 307.8046875,97.8132324 C307.0239258,98.0871582 306.1171875,98.2233887 305.0859375,98.2226563 L303.6210938,98.2226563 L303.6210938,103.1445313 L300.7148438,103.1445313 L300.7148438,87.828125 L305.203125,87.828125 C306.1955566,87.8288574 307.0722656,87.9365234 307.8339844,88.151123 C308.5957031,88.3664551 309.2365723,88.6806641 309.7558594,89.0944824 C310.2758789,89.5090332 310.6699219,90.0187988 310.9394531,90.6237793 C311.2089844,91.2294922 311.34375,91.9223633 311.34375,92.703125 Z M308.3203125,92.9023438 C308.3203125,92.496582 308.2558594,92.1281738 308.1269531,91.7956543 C307.9980469,91.4638672 307.8032227,91.1804199 307.5410156,90.9460449 C307.279541,90.7116699 306.9492188,90.5322266 306.5507813,90.4069824 C306.1523438,90.2824707 305.6799316,90.2194824 305.1328125,90.21875 L303.6210938,90.21875 L303.6210938,95.8320313 L305.2265625,95.8320313 C305.7268066,95.8327637 306.168457,95.7646484 306.5507813,95.6276855 C306.9338379,95.4914551 307.2561035,95.2937012 307.5175781,95.0358887 C307.7797852,94.7780762 307.9790039,94.4697266 308.1152344,94.1101074 C308.2521973,93.7512207 308.3203125,93.3483887 308.3203125,92.9023438 Z M324.1757813,103.0273438 C323.6601563,103.1445313 323.1408691,103.2382813 322.6171875,103.3085938 C322.0942383,103.3789063 321.5976563,103.4140625 321.1289063,103.4140625 C320.3481445,103.4140625 319.6743164,103.3320313 319.1074219,103.1679688 C318.5412598,103.0046387 318.0725098,102.7548828 317.7011719,102.4187012 C317.3305664,102.083252 317.0566406,101.6555176 316.8808594,101.135498 C316.7050781,100.6162109 316.6171875,99.996582 316.6171875,99.2773438 L316.6171875,93.4648438 L313.4179688,93.4648438 L313.4179688,91.2382813 L316.6171875,91.2382813 L316.6171875,88.1914063 L319.546875,87.4296875 L319.546875,91.2382813 L324.1757813,91.2382813 L324.1757813,93.4648438 L319.546875,93.4648438 L319.546875,99.0664063 C319.546875,99.7468262 319.7036133,100.2609863 320.015625,100.6081543 C320.3283691,100.9560547 320.8520508,101.1296387 321.5859375,101.1289063 C322.0546875,101.1296387 322.5117188,101.0908203 322.9570313,101.0124512 C323.4023438,100.9348145 323.8088379,100.8447266 324.1757813,100.7421875 Z M335.6132813,95.8671875 C335.6293945,95.4226074 335.6074219,95.0439453 335.5488281,94.7312012 C335.4902344,94.4191895 335.3964844,94.161377 335.2675781,93.9577637 C335.1386719,93.7548828 334.9804688,93.6062012 334.7929688,93.5124512 C334.6054688,93.4187012 334.3908691,93.3718262 334.1484375,93.3710938 C333.7265625,93.3718262 333.2915039,93.5461426 332.8417969,93.8933105 C332.3928223,94.2412109 331.8984375,94.8132324 331.359375,95.609375 L331.359375,103.1445313 L328.4296875,103.1445313 L328.4296875,91.2382813 L331.0195313,91.2382813 L331.125,92.9726563 C331.3205566,92.6687012 331.5410156,92.3955078 331.7871094,92.1530762 C332.0332031,91.911377 332.3071289,91.7019043 332.6074219,91.526123 C332.9084473,91.3503418 333.2424316,91.2155762 333.609375,91.1218262 C333.9770508,91.0280762 334.3791504,90.9812012 334.8164063,90.9804688 C335.418457,90.9812012 335.9516602,91.0852051 336.4160156,91.291748 C336.8811035,91.4990234 337.2714844,91.8059082 337.5878906,92.2116699 C337.9042969,92.6181641 338.1386719,93.1279297 338.2910156,93.7409668 C338.4433594,94.3547363 338.5078125,95.0629883 338.484375,95.8671875 Z" style="fill:rgb(77,78,83);stroke:none" clip-path="url(#clip6)" />
<clipPath id="clip7"><path d="M403,14 L494,14 L494,57 L403,57 L403,14 Z" /></clipPath>
<path d="M406,22 C406,19.2385712 408.2385864,17 411,17 L485,17 C487.7614136,17 490,19.2385712 490,22 L490,48 C490,50.761425 487.7614136,53 485,53 L411,53 C408.2385864,53 406,50.761425 406,48 Z" style="fill:rgb(255,255,255);stroke:none" clip-path="url(#clip7)" />
<clipPath id="clip8"><path d="M403,14 L494,14 L494,57 L403,57 L403,14 Z" /></clipPath>
<path d="M406,22 C406,19.2385712 408.2385864,17 411,17 L485,17 C487.7614136,17 490,19.2385712 490,22 L490,48 C490,50.761425 487.7614136,53 485,53 L411,53 C408.2385864,53 406,50.761425 406,48 Z" style="fill:none;stroke:rgb(128,128,128);stroke-width:3" clip-path="url(#clip8)" />
<clipPath id="clip9"><path d="M412,23 L485,23 L485,48 L412,48 L412,23 Z" /></clipPath>
<path d="M423.5583496,35.0849609 C423.5583496,35.5171204 423.5142822,35.928009 423.4255371,36.3181458 C423.3373413,36.7082825 423.1931152,37.0517273 422.9938965,37.3474426 C422.7946777,37.6436768 422.5332031,37.877655 422.2094727,38.0488586 C421.8857422,38.2205811 421.4914551,38.3061829 421.0266113,38.3056641 C420.7169189,38.3061829 420.4362183,38.2553406 420.184082,38.1526184 C419.9324951,38.050415 419.7026367,37.9233093 419.4951172,37.7707825 C419.2875977,37.6187744 419.0966797,37.4527588 418.9223633,37.2727356 C418.7480469,37.0932312 418.5809937,36.9282532 418.420166,36.7788391 C418.2598877,36.629425 418.1021729,36.5038757 417.9470215,36.4011536 C417.7924194,36.2989502 417.6290283,36.2475891 417.4572754,36.2470703 C417.2139893,36.2475891 417.0256348,36.3554993 416.8928223,36.5713196 C416.7600098,36.7871399 416.6936035,37.1663818 416.6936035,37.7080078 L414.9919434,37.7080078 C414.9919434,37.276886 415.0365601,36.8659973 415.1247559,36.4758606 C415.213501,36.0857239 415.3571777,35.7443542 415.5563965,35.4507141 C415.7556152,35.1575928 416.0170898,34.9251709 416.3408203,34.7534485 C416.6645508,34.5822449 417.0588379,34.4961243 417.5236816,34.4956055 C417.8339233,34.4961243 418.114624,34.5474854 418.3662109,34.6496887 C418.6183472,34.7524109 418.8476563,34.8795166 419.0551758,35.0315247 C419.2626953,35.1840515 419.4536133,35.3485107 419.6279297,35.5254211 C419.8022461,35.7028503 419.9698486,35.8673096 420.130127,36.0193176 C420.2909546,36.1718445 420.4486694,36.2989502 420.6032715,36.4011536 C420.7584229,36.5038757 420.921814,36.554718 421.0930176,36.5541992 C421.342041,36.554718 421.5319214,36.4457703 421.6616211,36.2268372 C421.7918701,36.0084229 421.8566895,35.6276245 421.8566895,35.0849609 Z M433.2702637,35.5 C433.2702637,36.4857178 433.1556396,37.3349915 432.9257813,38.0488586 C432.6964722,38.7627258 432.3810425,39.3494873 431.9794922,39.8086243 C431.5784912,40.26828 431.1079102,40.6086121 430.5683594,40.8296204 C430.0288086,41.0506287 429.4519043,41.1611328 428.8376465,41.1611328 C427.4099121,41.1611328 426.3365479,40.6874695 425.6169434,39.7380676 C424.8978882,38.7891846 424.5378418,37.4096985 424.5378418,35.5996094 C424.5378418,34.6149292 424.6530151,33.7656555 424.8823242,33.0517883 C425.1121826,32.3379211 425.4276123,31.7516785 425.8286133,31.2920227 C426.2301636,30.8328857 426.7001953,30.4925537 427.2397461,30.2710266 C427.7792969,30.0500183 428.3562012,29.9389954 428.970459,29.9384766 C430.3981934,29.9389954 431.4721069,30.4121399 432.1911621,31.358429 C432.9107666,32.304718 433.2702637,33.6852417 433.2702637,35.5 Z M431.1120605,35.5996094 C431.1120605,34.3161011 430.9408569,33.3589172 430.5974121,32.7280579 C430.2545166,32.0971985 429.6900635,31.7817688 428.9040527,31.78125 C428.5113525,31.7817688 428.1766968,31.863739 427.8996582,32.0266418 C427.6231689,32.1900635 427.3948975,32.4292297 427.2148438,32.7446594 C427.0353394,33.0600891 426.9035645,33.4491882 426.8205566,33.9109192 C426.7375488,34.3731689 426.6960449,34.9028625 426.6960449,35.5 C426.6960449,36.7845459 426.8693237,37.7417297 427.2148438,38.3725891 C427.5609131,39.0034485 428.1237793,39.3188782 428.9040527,39.3183594 C429.2973022,39.3188782 429.6334839,39.2374268 429.9125977,39.0740051 C430.1922607,38.9111023 430.4205322,38.6714172 430.5974121,38.3559875 C430.7748413,38.0405579 430.904541,37.6519775 430.9875488,37.1897278 C431.0705566,36.7279968 431.1120605,36.1977844 431.1120605,35.5996094 Z M441.9362793,40.9702148 L439.6867676,40.9702148 L438.7902832,38.2973633 L438.5163574,37.3676758 L438.2424316,38.3222656 L437.3791504,40.9702148 L435.1213379,40.9702148 L433.9260254,32.5366211 L435.8518066,32.5366211 L436.4577637,37.3012695 L436.598877,38.6044922 L436.939209,37.434082 L437.7858887,34.8691406 L439.329834,34.8691406 L440.2346191,37.4174805 L440.6247559,38.6210938 L440.7824707,37.284668 L441.2888184,32.5366211 L443.123291,32.5366211 Z M449.6726074,40.9702148 L449.6726074,35.4750977 C449.6726074,34.5516357 449.3297119,34.089386 448.6433105,34.0888672 C448.300415,34.089386 447.9725342,34.2279053 447.659668,34.504425 C447.3473511,34.7814636 447.0163574,35.1575928 446.6677246,35.6328125 L446.6677246,40.9702148 L444.642334,40.9702148 L444.642334,32.5366211 L446.3937988,32.5366211 L446.4436035,33.7817383 C446.6153564,33.5664368 446.7938232,33.3703308 446.9790039,33.1929016 C447.1647339,33.0159912 447.3649902,32.8650208 447.5808105,32.740509 C447.7966309,32.6159973 448.0290527,32.5205383 448.2780762,32.4541321 C448.5270996,32.3877258 448.8067627,32.3545227 449.1164551,32.3540039 C449.5480957,32.3545227 449.9247437,32.4250793 450.2453613,32.5661926 C450.5665283,32.7073059 450.8347168,32.9065247 451.0505371,33.1638489 C451.2663574,33.4211731 451.4282227,33.7314148 451.5361328,34.0935364 C451.644043,34.4561768 451.697998,34.8613586 451.697998,35.309082 L451.697998,40.9702148 Z M461.7668457,33.5742188 C461.7668457,34.1391907 461.6729736,34.6611023 461.4846191,35.1394348 C461.296814,35.6182861 461.0172119,36.0317688 460.6462402,36.3804016 C460.2758179,36.7290344 459.8135986,37.0003662 459.2600098,37.1938782 C458.7069702,37.3879089 458.0646973,37.4844055 457.3342285,37.4838867 L456.2966309,37.4838867 L456.2966309,40.9702148 L454.2380371,40.9702148 L454.2380371,30.1210938 L457.4172363,30.1210938 C458.1202393,30.1216125 458.7412109,30.197876 459.2807617,30.349884 C459.8203125,30.5024109 460.274292,30.7249756 460.6420898,31.0180969 C461.010437,31.3117371 461.2895508,31.672821 461.4804688,32.1013489 C461.6713867,32.5303955 461.7668457,33.0211792 461.7668457,33.5742188 Z M459.6252441,33.715332 C459.6252441,33.4279175 459.5795898,33.1669617 459.4882813,32.931427 C459.3969727,32.6964111 459.2589722,32.495636 459.0732422,32.3296204 C458.8880615,32.1636047 458.6540527,32.036499 458.3718262,31.9477844 C458.0895996,31.8595886 457.7550049,31.8149719 457.3674316,31.8144531 L456.2966309,31.8144531 L456.2966309,35.7905273 L457.4338379,35.7905273 C457.788208,35.7910461 458.1010132,35.7427979 458.3718262,35.6457825 C458.6431885,35.5492859 458.87146,35.4092102 459.0566406,35.226593 C459.2423706,35.0439758 459.3834839,34.8255615 459.4799805,34.5708313 C459.5770264,34.3166199 459.6252441,34.0312805 459.6252441,33.715332 Z M470.8562012,40.887207 C470.4909668,40.9702148 470.1231689,41.0366211 469.7521973,41.0864258 C469.3817749,41.1362305 469.0300293,41.1611328 468.697998,41.1611328 C468.1449585,41.1611328 467.6676636,41.1030273 467.2661133,40.9868164 C466.8651123,40.8711243 466.5330811,40.6942139 466.2700195,40.4560852 C466.0075073,40.2184753 465.8134766,39.9154968 465.6889648,39.5471497 C465.5644531,39.1793213 465.5021973,38.7404175 465.5021973,38.230957 L465.5021973,34.1137695 L463.236084,34.1137695 L463.236084,32.5366211 L465.5021973,32.5366211 L465.5021973,30.378418 L467.5773926,29.8388672 L467.5773926,32.5366211 L470.8562012,32.5366211 L470.8562012,34.1137695 L467.5773926,34.1137695 L467.5773926,38.081543 C467.5773926,38.5635071 467.6884155,38.9277039 467.9094238,39.1736145 C468.1309814,39.4200439 468.5018921,39.5429993 469.0217285,39.5424805 C469.3537598,39.5429993 469.6774902,39.5155029 469.9929199,39.4599915 C470.3083496,39.4049988 470.5963135,39.3411865 470.8562012,39.2685547 Z M478.9577637,35.8154297 C478.9691772,35.5005188 478.9536133,35.2322998 478.9121094,35.0107727 C478.8706055,34.7897644 478.8041992,34.6071472 478.7128906,34.4629211 C478.621582,34.3192139 478.5095215,34.2138977 478.376709,34.1474915 C478.2438965,34.0810852 478.0919189,34.0478821 477.920166,34.0473633 C477.6213379,34.0478821 477.3131714,34.1713562 476.9946289,34.4172668 C476.6766357,34.6636963 476.326416,35.0688782 475.9445801,35.6328125 L475.9445801,40.9702148 L473.8693848,40.9702148 L473.8693848,32.5366211 L475.7038574,32.5366211 L475.7785645,33.7651367 C475.9171143,33.5498352 476.0732422,33.3563232 476.2475586,33.1846008 C476.421875,33.0133972 476.6159058,32.8650208 476.8286133,32.740509 C477.0418701,32.6159973 477.2784424,32.5205383 477.5383301,32.4541321 C477.7987671,32.3877258 478.0836182,32.3545227 478.3933105,32.3540039 C478.8197632,32.3545227 479.1974487,32.4281921 479.5263672,32.5744934 C479.855835,32.7213135 480.1323242,32.9386902 480.3564453,33.2261047 C480.5805664,33.5140381 480.746582,33.8751221 480.8544922,34.3093567 C480.9624023,34.7441101 481.0080566,35.2457886 480.9914551,35.8154297 Z" style="fill:rgb(77,78,83);stroke:none" clip-path="url(#clip9)" />
<clipPath id="clip10"><path d="M403,134 L522,134 L522,177 L403,177 L403,134 Z" /></clipPath>
<path d="M406,142 C406,139.2385712 408.2385864,137 411,137 L513,137 C515.7614136,137 518,139.2385712 518,142 L518,168 C518,170.7614288 515.7614136,173 513,173 L411,173 C408.2385864,173 406,170.7614288 406,168 Z" style="fill:rgb(255,255,255);stroke:none" clip-path="url(#clip10)" />
<clipPath id="clip11"><path d="M403,134 L522,134 L522,177 L403,177 L403,134 Z" /></clipPath>
<path d="M406,142 C406,139.2385712 408.2385864,137 411,137 L513,137 C515.7614136,137 518,139.2385712 518,142 L518,168 C518,170.7614288 515.7614136,173 513,173 L411,173 C408.2385864,173 406,170.7614288 406,168 Z" style="fill:none;stroke:rgb(128,128,128);stroke-width:3" clip-path="url(#clip11)" />
<clipPath id="clip12"><path d="M412,143 L513,143 L513,168 L412,168 L412,143 Z" /></clipPath>
<path d="M422.9987793,155.1347656 C422.9987793,155.7993469 422.9049072,156.4068604 422.7165527,156.9573059 C422.5287476,157.5082703 422.2574463,157.9798584 421.9030762,158.3725891 C421.5492554,158.7658386 421.114502,159.0698547 420.5998535,159.285675 C420.0852051,159.5014954 419.4989624,159.6088867 418.8400879,159.6088867 C418.2149658,159.6088867 417.656189,159.5180969 417.1633301,159.3354797 C416.6710205,159.1528625 416.2533569,158.8804932 415.9099121,158.5178528 C415.5670166,158.1557312 415.3039551,157.7017822 415.1213379,157.1565247 C414.9387207,156.6117859 414.8474121,155.9762573 414.8474121,155.2509766 C414.8474121,154.5817261 414.9428711,153.973175 415.1337891,153.4253235 C415.324707,152.8774719 415.5986328,152.4100342 415.9555664,152.0224915 C416.3125,151.6354675 416.748291,151.335083 417.2629395,151.1218567 C417.7775879,150.9091492 418.3586426,150.8022766 419.0061035,150.8017578 C419.6369629,150.8022766 420.1988525,150.8951416 420.6911621,151.0803528 C421.184021,151.2660828 421.6016846,151.5410461 421.9445801,151.9062805 C422.2880249,152.2715149 422.5494995,152.7239075 422.7290039,153.2634583 C422.9090576,153.803009 422.9987793,154.427124 422.9987793,155.1347656 Z M420.8903809,155.1845703 C420.8903809,154.3109131 420.7259521,153.653595 420.3964844,153.2136536 C420.0675659,152.7737122 419.5819702,152.5537415 418.9396973,152.5532227 C418.5858765,152.5537415 418.2839355,152.6232605 418.0349121,152.761261 C417.7858887,152.8997803 417.5814819,153.0891418 417.4206543,153.3298645 C417.260376,153.5705872 417.1425781,153.8517761 417.0678711,154.1723938 C416.9931641,154.4935303 416.9558105,154.8364563 416.9558105,155.2011719 C416.9558105,156.0815735 417.1332397,156.7445984 417.4870605,157.1897278 C417.8414307,157.635376 418.3254395,157.8579407 418.9396973,157.8574219 C419.2774658,157.8579407 419.5705566,157.7904968 419.8195801,157.6545715 C420.0686035,157.519165 420.2709351,157.3308411 420.4255371,157.0901184 C420.5806885,156.8493958 420.6968994,156.5661316 420.7741699,156.2392883 C420.8519897,155.9129639 420.8903809,155.5612183 420.8903809,155.1845703 Z M432.6193848,155.0517578 C432.6193848,155.8268433 432.510437,156.4966125 432.2915039,157.0610657 C432.0731201,157.6255188 431.7685547,158.0945129 431.378418,158.4680481 C430.9882813,158.8415833 430.5275879,159.1186218 429.9963379,159.2981262 C429.4650879,159.4776306 428.887146,159.5673828 428.2614746,159.5673828 C428.0513916,159.5673828 427.8412476,159.553894 427.6306152,159.5258789 C427.4205322,159.4983826 427.2296143,159.4625854 427.0578613,159.4179688 L427.0578613,162.7133789 L425.0324707,162.7133789 L425.0324707,150.984375 L426.7839355,150.984375 L426.8337402,152.2294922 C427.0054932,152.0141907 427.18396,151.8180847 427.3691406,151.6406555 C427.5548706,151.4637451 427.755127,151.3127747 427.9709473,151.1882629 C428.1867676,151.0637512 428.4191895,150.9682922 428.6682129,150.901886 C428.9172363,150.8354797 429.1968994,150.8022766 429.5065918,150.8017578 C430.0046387,150.8022766 430.4476929,150.901886 430.8347168,151.1011047 C431.22229,151.3003235 431.5475464,151.5841064 431.8100586,151.9519348 C432.0731201,152.320282 432.2738647,152.7654114 432.4118652,153.2883606 C432.550415,153.8113098 432.6193848,154.3991089 432.6193848,155.0517578 Z M430.4943848,155.1347656 C430.4943848,154.6704407 430.4611816,154.275116 430.3947754,153.9482727 C430.3283691,153.6219482 430.2329102,153.3537292 430.1083984,153.1430969 C429.9838867,152.9329834 429.8319092,152.7794189 429.6518555,152.6824036 C429.4723511,152.585907 429.2658691,152.5371399 429.0334473,152.5366211 C428.6905518,152.5371399 428.3626709,152.6756592 428.0498047,152.952179 C427.7374878,153.2292175 427.4064941,153.6053467 427.0578613,154.0805664 L427.0578613,157.7661133 C427.218689,157.8273315 427.4163818,157.877655 427.6513672,157.9160461 C427.8869019,157.9549561 428.1260986,157.9741516 428.3693848,157.9736328 C428.6905518,157.9741516 428.982605,157.9077454 429.2451172,157.7749329 C429.5081787,157.6421204 429.7322998,157.4543152 429.9174805,157.2104797 C430.1032104,156.9671631 430.2453613,156.6698914 430.3449707,156.3181458 C430.4445801,155.9669189 430.4943848,155.5726318 430.4943848,155.1347656 Z M442.0075684,154.5537109 C442.0075684,154.692749 442.003418,154.8727722 441.9951172,155.0937805 C441.9868164,155.3153076 441.9743652,155.5228271 441.9577637,155.7158203 L436.4128418,155.7158203 C436.4128418,156.0872803 436.4699097,156.4136047 436.5830078,156.6958313 C436.6966553,156.9780579 436.8569336,157.2146301 437.0644531,157.4055481 C437.2719727,157.5964661 437.5209961,157.7417297 437.8115234,157.8413391 C438.1020508,157.9409485 438.4247437,157.9907532 438.7785645,157.9902344 C439.1884155,157.9907532 439.6268311,157.9591064 440.0942383,157.8952942 C440.5621948,157.8320007 441.0477905,157.7277222 441.5510254,157.5834961 L441.5510254,159.1938477 C441.3352051,159.2550659 441.1002197,159.3105774 440.845459,159.3603821 C440.5912476,159.4101868 440.3308105,159.4542847 440.0651855,159.4926758 C439.7995605,159.5315857 439.5313721,159.5606384 439.2600098,159.579834 C438.9891968,159.5995483 438.7261963,159.6088867 438.4714355,159.6088867 C437.8297119,159.6088867 437.2543335,159.5180969 436.744873,159.3354797 C436.2359619,159.1528625 435.8043213,158.8830872 435.4499512,158.5261536 C435.0961304,158.16922 434.8248291,157.728241 434.6364746,157.202179 C434.4486694,156.6766357 434.354248,156.0675659 434.354248,155.3754883 C434.354248,154.6896362 434.4486694,154.06604 434.6364746,153.5041809 C434.8248291,152.9428406 435.0904541,152.4613953 435.4333496,152.059845 C435.7767944,151.6588135 436.1928711,151.3490906 436.6826172,151.1301575 C437.1723633,150.9117432 437.7191772,150.8022766 438.3220215,150.8017578 C438.9196777,150.8022766 439.4483643,150.8951416 439.9074707,151.0803528 C440.3671265,151.2660828 440.7515869,151.5244446 441.0612793,151.8564758 C441.371521,152.1885071 441.6065674,152.5843506 441.7668457,153.0434875 C441.9276733,153.5031433 442.0075684,154.0063782 442.0075684,154.5537109 Z M439.9489746,154.2631836 C439.9547119,153.9316711 439.913208,153.6427002 439.8244629,153.3962708 C439.7362671,153.1503601 439.6159058,152.946991 439.4633789,152.7861633 C439.3114014,152.6258545 439.1344604,152.5070496 438.9321289,152.4292297 C438.7303467,152.3519287 438.5129395,152.3130188 438.2805176,152.3125 C437.7716064,152.3130188 437.3539429,152.4831848 437.0270996,152.8235168 C436.7008057,153.1638489 436.5072632,153.6437378 436.4460449,154.2631836 Z M449.7189941,154.2631836 C449.7304077,153.9482727 449.7148438,153.6800537 449.6733398,153.4585266 C449.6318359,153.2375183 449.5654297,153.0549011 449.4741211,152.910675 C449.3828125,152.7669678 449.270752,152.6616516 449.1379395,152.5952454 C449.005127,152.5288391 448.8531494,152.495636 448.6813965,152.4951172 C448.3825684,152.495636 448.0744019,152.6191101 447.7558594,152.8650208 C447.4378662,153.1114502 447.0876465,153.5166321 446.7058105,154.0805664 L446.7058105,159.4179688 L444.6306152,159.4179688 L444.6306152,150.984375 L446.4650879,150.984375 L446.5397949,152.2128906 C446.6783447,151.9975891 446.8344727,151.8040771 447.0087891,151.6323547 C447.1831055,151.4611511 447.3771362,151.3127747 447.5898438,151.1882629 C447.8031006,151.0637512 448.0396729,150.9682922 448.2995605,150.901886 C448.5599976,150.8354797 448.8448486,150.8022766 449.154541,150.8017578 C449.5809937,150.8022766 449.9586792,150.875946 450.2875977,151.0222473 C450.6170654,151.1690674 450.8935547,151.3864441 451.1176758,151.6738586 C451.3417969,151.961792 451.5078125,152.322876 451.6157227,152.7571106 C451.7236328,153.191864 451.7692871,153.6935425 451.7526855,154.2631836 Z M459.2067871,159.4179688 L459.1569824,158.3139648 C458.9801025,158.5028076 458.7948608,158.6755676 458.6008301,158.8332825 C458.4073486,158.9909973 458.1940918,159.1279602 457.9616699,159.2441711 C457.729248,159.3603821 457.4760742,159.4501343 457.2021484,159.5134277 C456.9282227,159.57724 456.6283569,159.6088867 456.3015137,159.6088867 C455.869873,159.6088867 455.4911499,159.5455933 455.1643066,159.4179688 C454.8380127,159.2913818 454.5640869,159.1144714 454.3425293,158.8872375 C454.121521,158.6605225 453.9539795,158.3865967 453.840332,158.0654602 C453.7272339,157.7448425 453.670166,157.3905029 453.670166,157.0024414 C453.670166,156.6045227 453.7547607,156.2366943 453.9233398,155.8989563 C454.0924683,155.5617371 454.3497925,155.2712097 454.6953125,155.0273743 C455.0413818,154.7840576 455.4730225,154.5931396 455.9902344,154.4546204 C456.5079956,154.3166199 457.1149902,154.2471008 457.8122559,154.246582 L458.9162598,154.246582 L458.9162598,153.7402344 C458.9162598,153.5249329 458.8861694,153.3298645 458.8249512,153.1555481 C458.7642822,152.9812317 458.6661987,152.833374 458.5302734,152.7114563 C458.3948975,152.5900574 458.2189941,152.495636 458.0031738,152.4292297 C457.7873535,152.3628235 457.5217285,152.3296204 457.2062988,152.3291016 C456.708252,152.3296204 456.2174683,152.3866882 455.7329102,152.4997864 C455.2489014,152.6134033 454.7799072,152.7721558 454.3259277,152.9765625 L454.3259277,151.3579102 C454.7301025,151.1981201 455.1964722,151.0653076 455.7246094,150.9599915 C456.2532959,150.8551941 456.8026733,150.8022766 457.3723145,150.8017578 C457.9979858,150.8022766 458.5344238,150.8619385 458.982666,150.9807434 C459.4309082,151.1000671 459.800293,151.2785339 460.0908203,151.5161438 C460.3813477,151.7542725 460.5961304,152.0515442 460.7341309,152.4084778 C460.8726807,152.7654114 460.9416504,153.1820068 460.9416504,153.6572266 L460.9416504,159.4179688 Z M458.9162598,155.690918 L457.6794434,155.690918 C457.3365479,155.6914368 457.0460205,155.7246399 456.8078613,155.7910461 C456.5702515,155.8574524 456.3762207,155.948761 456.2268066,156.0649719 C456.0773926,156.1811829 455.9684448,156.3155518 455.8989258,156.4675598 C455.8299561,156.6200867 455.795166,156.7814331 455.795166,156.9526367 C455.795166,157.2960815 455.906189,157.558075 456.1271973,157.7375793 C456.3487549,157.9176025 456.6501465,158.0073547 457.0319824,158.0068359 C457.314209,158.0073547 457.6078491,157.9051514 457.9118652,157.7002258 C458.2164307,157.4958191 458.5510254,157.202179 458.9162598,156.8198242 Z M470.5041504,159.3349609 C470.138916,159.4179688 469.7711182,159.484375 469.4001465,159.5341797 C469.0297241,159.5839844 468.6779785,159.6088867 468.3459473,159.6088867 C467.7929077,159.6088867 467.3156128,159.5507813 466.9140625,159.4345703 C466.5130615,159.3188782 466.1810303,159.1419678 465.9179688,158.9038391 C465.6554565,158.6662292 465.4614258,158.3632507 465.3369141,157.9949036 C465.2124023,157.6270752 465.1501465,157.1881714 465.1501465,156.6787109 L465.1501465,152.5615234 L462.8840332,152.5615234 L462.8840332,150.984375 L465.1501465,150.984375 L465.1501465,148.8261719 L467.2253418,148.2866211 L467.2253418,150.984375 L470.5041504,150.984375 L470.5041504,152.5615234 L467.2253418,152.5615234 L467.2253418,156.5292969 C467.2253418,157.011261 467.3363647,157.3754578 467.557373,157.6213684 C467.7789307,157.8677979 468.1498413,157.9907532 468.6696777,157.9902344 C469.001709,157.9907532 469.3254395,157.9632568 469.6408691,157.9077454 C469.9562988,157.8527527 470.2442627,157.7889404 470.5041504,157.7163086 Z M480.7722168,155.1347656 C480.7722168,155.7993469 480.6783447,156.4068604 480.4899902,156.9573059 C480.3021851,157.5082703 480.0308838,157.9798584 479.6765137,158.3725891 C479.3226929,158.7658386 478.8879395,159.0698547 478.373291,159.285675 C477.8586426,159.5014954 477.2723999,159.6088867 476.6135254,159.6088867 C475.9884033,159.6088867 475.4296265,159.5180969 474.9367676,159.3354797 C474.444458,159.1528625 474.0267944,158.8804932 473.6833496,158.5178528 C473.3404541,158.1557312 473.0773926,157.7017822 472.8947754,157.1565247 C472.7121582,156.6117859 472.6208496,155.9762573 472.6208496,155.2509766 C472.6208496,154.5817261 472.7163086,153.973175 472.9072266,153.4253235 C473.0981445,152.8774719 473.3720703,152.4100342 473.7290039,152.0224915 C474.0859375,151.6354675 474.5217285,151.335083 475.036377,151.1218567 C475.5510254,150.9091492 476.1320801,150.8022766 476.779541,150.8017578 C477.4104004,150.8022766 477.97229,150.8951416 478.4645996,151.0803528 C478.9574585,151.2660828 479.3751221,151.5410461 479.7180176,151.9062805 C480.0614624,152.2715149 480.322937,152.7239075 480.5024414,153.2634583 C480.6824951,153.803009 480.7722168,154.427124 480.7722168,155.1347656 Z M478.6638184,155.1845703 C478.6638184,154.3109131 478.4993896,153.653595 478.1699219,153.2136536 C477.8410034,152.7737122 477.3554077,152.5537415 476.7131348,152.5532227 C476.359314,152.5537415 476.057373,152.6232605 475.8083496,152.761261 C475.5593262,152.8997803 475.3549194,153.0891418 475.1940918,153.3298645 C475.0338135,153.5705872 474.9160156,153.8517761 474.8413086,154.1723938 C474.7666016,154.4935303 474.729248,154.8364563 474.729248,155.2011719 C474.729248,156.0815735 474.9066772,156.7445984 475.260498,157.1897278 C475.6148682,157.635376 476.098877,157.8579407 476.7131348,157.8574219 C477.0509033,157.8579407 477.3439941,157.7904968 477.5930176,157.6545715 C477.842041,157.519165 478.0443726,157.3308411 478.1989746,157.0901184 C478.354126,156.8493958 478.4703369,156.5661316 478.5476074,156.2392883 C478.6254272,155.9129639 478.6638184,155.5612183 478.6638184,155.1845703 Z M488.2346191,154.2631836 C488.2460327,153.9482727 488.2304688,153.6800537 488.1889648,153.4585266 C488.1474609,153.2375183 488.0810547,153.0549011 487.9897461,152.910675 C487.8984375,152.7669678 487.786377,152.6616516 487.6535645,152.5952454 C487.520752,152.5288391 487.3687744,152.495636 487.1970215,152.4951172 C486.8981934,152.495636 486.5900269,152.6191101 486.2714844,152.8650208 C485.9534912,153.1114502 485.6032715,153.5166321 485.2214355,154.0805664 L485.2214355,159.4179688 L483.1462402,159.4179688 L483.1462402,150.984375 L484.9807129,150.984375 L485.0554199,152.2128906 C485.1939697,151.9975891 485.3500977,151.8040771 485.5244141,151.6323547 C485.6987305,151.4611511 485.8927612,151.3127747 486.1054688,151.1882629 C486.3187256,151.0637512 486.5552979,150.9682922 486.8151855,150.901886 C487.0756226,150.8354797 487.3604736,150.8022766 487.670166,150.8017578 C488.0966187,150.8022766 488.4743042,150.875946 488.8032227,151.0222473 C489.1326904,151.1690674 489.4091797,151.3864441 489.6333008,151.6738586 C489.8574219,151.961792 490.0234375,152.322876 490.1313477,152.7571106 C490.2392578,153.191864 490.2849121,153.6935425 490.2683105,154.2631836 Z M502.013916,154.0556641 L502.013916,152.4453125 L509.1525879,152.4453125 L509.1525879,154.0556641 Z M502.013916,157.3261719 L502.013916,155.7158203 L509.1525879,155.7158203 L509.1525879,157.3261719 Z" style="fill:rgb(77,78,83);stroke:none" clip-path="url(#clip12)" />
<clipPath id="clip13"><path d="M14,134 L85,134 L85,177 L14,177 L14,134 Z" /></clipPath>
<path d="M17,142 C17,139.2385712 19.2385712,137 22,137 L76,137 C78.7614288,137 81,139.2385712 81,142 L81,168 C81,170.7614288 78.7614288,173 76,173 L22,173 C19.2385712,173 17,170.7614288 17,168 Z" style="fill:rgb(255,255,255);stroke:none" clip-path="url(#clip13)" />
<clipPath id="clip14"><path d="M14,134 L85,134 L85,177 L14,177 L14,134 Z" /></clipPath>
<path d="M17,142 C17,139.2385712 19.2385712,137 22,137 L76,137 C78.7614288,137 81,139.2385712 81,142 L81,168 C81,170.7614288 78.7614288,173 76,173 L22,173 C19.2385712,173 17,170.7614288 17,168 Z" style="fill:none;stroke:rgb(128,128,128);stroke-width:3" clip-path="url(#clip14)" />
<clipPath id="clip15"><path d="M23,143 L76,143 L76,168 L23,168 L23,143 Z" /></clipPath>
<path d="M32.8508453,160.9453125 C32.4524078,161.1061401 32.0404816,161.2254639 31.6140289,161.3022461 C31.1880951,161.3800659 30.7424469,161.418457 30.2776031,161.418457 C29.6083527,161.418457 29.0075836,161.3276672 28.4763336,161.14505 C27.9450836,160.9624329 27.4942474,160.6916199 27.1233063,160.3315735 C26.7528839,159.9720459 26.469101,159.5263977 26.2724762,158.9951477 C26.0763702,158.4638977 25.9777985,157.8496399 25.9777985,157.1518555 C25.9777985,156.477417 26.084671,155.8657532 26.2973785,155.3179016 C26.5106049,154.77005 26.8109894,154.3026123 27.1980133,153.9150696 C27.585556,153.5280457 28.0519562,153.2292175 28.5966949,153.0185852 C29.1419525,152.8084717 29.7494659,152.7031555 30.4187164,152.7026367 C30.966568,152.7031555 31.4272614,152.7322083 31.8007965,152.7903137 C32.1743317,152.8484192 32.5105133,152.9215698 32.8093414,153.0097656 L32.8093414,154.9770508 C32.4664154,154.8058472 32.0944366,154.6735535 31.6928864,154.5791321 C31.2918549,154.4852295 30.9115753,154.4380188 30.5515289,154.4375 C30.1753998,154.4380188 29.8376617,154.5018311 29.5388336,154.6289368 C29.2400055,154.7565613 28.9883881,154.9334717 28.7834625,155.1601868 C28.5790558,155.3874207 28.4223785,155.662384 28.3144684,155.9861145 C28.2065582,156.309845 28.1526031,156.6652222 28.1526031,157.0522461 C28.1526031,157.4569092 28.2107086,157.8195496 28.3269196,158.1401672 C28.4431305,158.4613037 28.6081085,158.7336731 28.820816,158.9577942 C29.0340424,159.1819153 29.2898102,159.3536377 29.5886383,159.4724426 C29.8874664,159.5917664 30.2194977,159.6509094 30.5847321,159.6503906 C30.7621613,159.6509094 30.9489288,159.6384583 31.1450348,159.6135559 C31.3416595,159.5886536 31.5382843,159.5528564 31.7343903,159.5056458 C31.931015,159.4589539 32.124527,159.4049988 32.3154449,159.3437805 C32.5063629,159.2830811 32.6848297,159.2166748 32.8508453,159.144043 Z M38.3791656,151.1171875 L35.9968414,151.1171875 L35.9968414,149.5400391 L40.454361,149.5400391 L40.454361,159.6918945 L42.8864899,159.6918945 L42.8864899,161.269043 L35.7063141,161.269043 L35.7063141,159.6918945 L38.3791656,159.6918945 Z M52.6316071,156.4047852 C52.6316071,156.5438232 52.6274567,156.7238464 52.6191559,156.9448547 C52.6108551,157.1663818 52.5984039,157.3739014 52.5818024,157.5668945 L47.0368805,157.5668945 C47.0368805,157.9383545 47.0939484,158.264679 47.2070465,158.5469055 C47.3206635,158.8291321 47.4809723,159.0657043 47.6884918,159.2566223 C47.8960114,159.4475403 48.1450348,159.592804 48.4355621,159.6924133 C48.7260895,159.7920227 49.0487823,159.8418274 49.4026031,159.8413086 C49.8124542,159.8418274 50.2508392,159.8101807 50.718277,159.7463684 C51.1862335,159.683075 51.6718292,159.5787964 52.1750641,159.4345703 L52.1750641,161.0449219 C51.9592438,161.1061401 51.7242279,161.1616516 51.4694977,161.2114563 C51.2152863,161.261261 50.9548492,161.3053589 50.6892242,161.34375 C50.4235992,161.3826599 50.1553802,161.4117126 49.8840485,161.4309082 C49.6132355,161.4506226 49.3502045,161.4599609 49.0954742,161.4599609 C48.4537201,161.4599609 47.8783722,161.3691711 47.3689117,161.186554 C46.8599701,161.0039368 46.4283295,160.7341614 46.0739899,160.3772278 C45.7201691,160.0202942 45.4488373,159.5793152 45.2605133,159.0532532 C45.0727081,158.52771 44.9782867,157.9186401 44.9782867,157.2265625 C44.9782867,156.5407104 45.0727081,155.9171143 45.2605133,155.3552551 C45.4488373,154.7939148 45.7144623,154.3124695 46.0573883,153.9109192 C46.4008331,153.5098877 46.8169098,153.2001648 47.3066559,152.9812317 C47.796402,152.7628174 48.3432159,152.6533508 48.9460602,152.652832 C49.5437164,152.6533508 50.0723724,152.7462158 50.5315094,152.931427 C50.9911652,153.117157 51.3755951,153.3755188 51.685318,153.70755 C51.9955597,154.0395813 52.2305756,154.4354248 52.3908844,154.8945618 C52.551712,155.3542175 52.6316071,155.8574524 52.6316071,156.4047852 Z M50.5730133,156.1142578 C50.5787201,155.7827454 50.5372162,155.4937744 50.4485016,155.247345 C50.3603058,155.0014343 50.2399445,154.7980652 50.0874176,154.6372375 C49.9354095,154.4769287 49.7584991,154.3581238 49.5561676,154.280304 C49.3543549,154.2030029 49.1369781,154.164093 48.9045563,154.1635742 C48.3956146,154.164093 47.9779816,154.334259 47.6511383,154.6745911 C47.3248138,155.0149231 47.1313019,155.494812 47.0700836,156.1142578 Z M60.2019196,161.269043 L60.1521149,160.1650391 C59.9752045,160.3538818 59.7899933,160.5266418 59.5959625,160.6843567 C59.4024506,160.8420715 59.1892242,160.9790344 58.9568024,161.0952454 C58.7243805,161.2114563 58.4712067,161.3012085 58.1972809,161.364502 C57.9233551,161.4283142 57.6234894,161.4599609 57.2966461,161.4599609 C56.8650055,161.4599609 56.4862823,161.3966675 56.1594391,161.269043 C55.8331146,161.1424561 55.5591888,160.9655457 55.3376617,160.7383118 C55.1166534,160.5115967 54.9490814,160.2376709 54.8354645,159.9165344 C54.7223663,159.5959167 54.6652985,159.2415771 54.6652985,158.8535156 C54.6652985,158.4555969 54.7498627,158.0877686 54.9184723,157.7500305 C55.0876007,157.4128113 55.3449249,157.1222839 55.6904449,156.8784485 C56.0364838,156.6351318 56.4681244,156.4442139 56.9853668,156.3056946 C57.5031281,156.1676941 58.1101227,156.098175 58.8073883,156.0976563 L59.9113922,156.0976563 L59.9113922,155.5913086 C59.9113922,155.3760071 59.8813019,155.1809387 59.8200836,155.0066223 C59.7593842,154.8323059 59.6613312,154.6844482 59.5254059,154.5625305 C59.3899994,154.4411316 59.2141266,154.3467102 58.9983063,154.280304 C58.782486,154.2138977 58.516861,154.1806946 58.2014313,154.1801758 C57.7033844,154.1806946 57.2126007,154.2377625 56.7280426,154.3508606 C56.2440033,154.4644775 55.7750092,154.62323 55.3210602,154.8276367 L55.3210602,153.2089844 C55.7252045,153.0491943 56.1916046,152.9163818 56.7197418,152.8110657 C57.2483978,152.7062683 57.7978058,152.6533508 58.3674469,152.652832 C58.9931183,152.6533508 59.5295563,152.7130127 59.9777985,152.8318176 C60.4260406,152.9511414 60.7954254,153.1296082 61.0859528,153.367218 C61.3764801,153.6053467 61.5912628,153.9026184 61.7292633,154.259552 C61.8677826,154.6164856 61.9367828,155.0330811 61.9367828,155.5083008 L61.9367828,161.269043 Z M59.9113922,157.5419922 L58.6745758,157.5419922 C58.3316498,157.542511 58.0411224,157.5757141 57.8029938,157.6421204 C57.5653839,157.7085266 57.3713531,157.7998352 57.2219391,157.9160461 C57.072525,158.0322571 56.9635773,158.166626 56.8940582,158.318634 C56.825058,158.4711609 56.7902985,158.6325073 56.7902985,158.8037109 C56.7902985,159.1471558 56.9013214,159.4091492 57.1223297,159.5886536 C57.3438568,159.7686768 57.6452789,159.858429 58.0271149,159.8579102 C58.3093414,159.858429 58.6029816,159.7562256 58.9069977,159.5513 C59.2115326,159.3468933 59.5461578,159.0532532 59.9113922,158.6708984 Z M69.9719391,156.1142578 C69.9833527,155.7993469 69.9677887,155.5311279 69.9262848,155.3096008 C69.8847809,155.0885925 69.8183746,154.9059753 69.727066,154.7617493 C69.6357574,154.618042 69.5236969,154.5127258 69.3908844,154.4463196 C69.2580719,154.3799133 69.1060638,154.3467102 68.9343414,154.3461914 C68.6355133,154.3467102 68.3273468,154.4701843 68.0088043,154.716095 C67.6907806,154.9625244 67.3405914,155.3677063 66.9587555,155.9316406 L66.9587555,161.269043 L64.8835602,161.269043 L64.8835602,152.8354492 L66.7180328,152.8354492 L66.7927399,154.0639648 C66.9312592,153.8486633 67.0874176,153.6551514 67.261734,153.483429 C67.4360504,153.3122253 67.6300812,153.1638489 67.8427887,153.0393372 C68.056015,152.9148254 68.2925873,152.8193665 68.5525055,152.7529602 C68.8129425,152.686554 69.0977631,152.6533508 69.407486,152.652832 C69.8339386,152.6533508 70.2116241,152.7270203 70.5405426,152.8733215 C70.8699799,153.0201416 71.1464996,153.2375183 71.3706207,153.5249329 C71.5947418,153.8128662 71.7607574,154.1739502 71.8686676,154.6081848 C71.9765778,155.0429382 72.0222321,155.5446167 72.0056305,156.1142578 Z" style="fill:rgb(77,78,83);stroke:none" clip-path="url(#clip15)" />
</svg>
