<?xml version="1.0" encoding="UTF-8"?><svg xmlns="http://www.w3.org/2000/svg" xmlns:xlink="http://www.w3.org/1999/xlink" fill-opacity="1" color-rendering="auto" color-interpolation="auto" stroke="black" text-rendering="auto" stroke-linecap="square" width="368" stroke-miterlimit="10" stroke-opacity="1" shape-rendering="auto" fill="black" stroke-dasharray="none" font-weight="normal" stroke-width="1" height="568" font-family="'Dialog'" font-style="normal" stroke-linejoin="miter" font-size="12" stroke-dashoffset="0" image-rendering="auto">
  <!--Generated by ySVG 2.5-->
  <defs id="genericDefs"/>
  <g>
    <defs id="defs1">
      <clipPath clipPathUnits="userSpaceOnUse" id="clipPath1">
        <path d="M0 0 L368 0 L368 568 L0 568 L0 0 Z"/>
      </clipPath>
      <clipPath clipPathUnits="userSpaceOnUse" id="clipPath2">
        <path d="M183 67 L551 67 L551 635 L183 635 L183 67 Z"/>
      </clipPath>
    </defs>
    <g fill="white" text-rendering="geometricPrecision" shape-rendering="geometricPrecision" transform="translate(-183,-67)" stroke="white">
      <rect x="183" width="368" height="568" y="67" clip-path="url(#clipPath2)" stroke="none"/>
    </g>
    <g fill="rgb(154,255,154)" text-rendering="geometricPrecision" shape-rendering="geometricPrecision" transform="matrix(1,0,0,1,-183,-67)" stroke="rgb(154,255,154)">
      <path d="M198 82 L536 82 L536 492 L198 492 Z" clip-path="url(#clipPath2)" stroke="none"/>
    </g>
    <g text-rendering="geometricPrecision" stroke-miterlimit="1.45" shape-rendering="geometricPrecision" transform="matrix(1,0,0,1,-183,-67)" stroke-linecap="butt">
      <path fill="none" d="M198 82 L536 82 L536 492 L198 492 Z" clip-path="url(#clipPath2)"/>
    </g>
    <g text-rendering="geometricPrecision" stroke-miterlimit="1.45" shape-rendering="geometricPrecision" font-family="'Consolas'" transform="matrix(1,0,0,1,-183,-67)" stroke-linecap="butt">
      <text x="206.4023" xml:space="preserve" y="100.9375" clip-path="url(#clipPath2)" stroke="none">VM</text>
    </g>
    <g fill="rgb(30,144,255)" text-rendering="geometricPrecision" shape-rendering="geometricPrecision" transform="matrix(1,0,0,1,-183,-67)" stroke="rgb(30,144,255)">
      <path d="M228 132 L506 132 L506 462 L228 462 Z" clip-path="url(#clipPath2)" stroke="none"/>
    </g>
    <g text-rendering="geometricPrecision" stroke-miterlimit="1.45" shape-rendering="geometricPrecision" transform="matrix(1,0,0,1,-183,-67)" stroke-linecap="butt">
      <path fill="none" d="M228 132 L506 132 L506 462 L228 462 Z" clip-path="url(#clipPath2)"/>
    </g>
    <g stroke-linecap="butt" transform="matrix(1,0,0,1,-183,-67)" fill="white" text-rendering="geometricPrecision" font-family="sans-serif" shape-rendering="geometricPrecision" stroke="white" stroke-miterlimit="1.45">
      <text x="238.1562" xml:space="preserve" y="151.7139" clip-path="url(#clipPath2)" stroke="none">Heap</text>
    </g>
    <g fill="rgb(197,193,170)" text-rendering="geometricPrecision" shape-rendering="geometricPrecision" transform="matrix(1,0,0,1,-183,-67)" stroke="rgb(197,193,170)">
      <path d="M242.5 177 L491.5 177 L491.5 217 L242.5 217 Z" clip-path="url(#clipPath2)" stroke="none"/>
    </g>
    <g text-rendering="geometricPrecision" stroke-miterlimit="1.45" shape-rendering="geometricPrecision" transform="matrix(1,0,0,1,-183,-67)" stroke-linecap="butt">
      <path fill="none" d="M242.5 177 L491.5 177 L491.5 217 L242.5 217 Z" clip-path="url(#clipPath2)"/>
      <text x="330.7129" xml:space="preserve" y="200.9375" font-family="'Consolas'" clip-path="url(#clipPath2)" stroke="none">MarkedSpace</text>
    </g>
    <g fill="rgb(119,136,153)" text-rendering="geometricPrecision" shape-rendering="geometricPrecision" transform="matrix(1,0,0,1,-183,-67)" stroke="rgb(119,136,153)">
      <path d="M242.5 401 L491.5 401 L491.5 441 L242.5 441 Z" clip-path="url(#clipPath2)" stroke="none"/>
    </g>
    <g text-rendering="geometricPrecision" stroke-miterlimit="1.45" shape-rendering="geometricPrecision" transform="matrix(1,0,0,1,-183,-67)" stroke-linecap="butt">
      <path fill="none" d="M242.5 401 L491.5 401 L491.5 441 L242.5 441 Z" clip-path="url(#clipPath2)"/>
      <text x="330.7129" xml:space="preserve" y="424.9375" font-family="'Consolas'" clip-path="url(#clipPath2)" stroke="none">MarkedBlock</text>
    </g>
    <g fill="rgb(188,210,238)" text-rendering="geometricPrecision" shape-rendering="geometricPrecision" transform="matrix(1,0,0,1,-183,-67)" stroke="rgb(188,210,238)">
      <path d="M242.5 247 L491.5 247 L491.5 287 L242.5 287 Z" clip-path="url(#clipPath2)" stroke="none"/>
    </g>
    <g text-rendering="geometricPrecision" stroke-miterlimit="1.45" shape-rendering="geometricPrecision" transform="matrix(1,0,0,1,-183,-67)" stroke-linecap="butt">
      <path fill="none" d="M242.5 247 L491.5 247 L491.5 287 L242.5 287 Z" clip-path="url(#clipPath2)"/>
      <text x="317.5176" xml:space="preserve" y="270.9375" font-family="'Consolas'" clip-path="url(#clipPath2)" stroke="none">MarkedAllocator</text>
    </g>
    <g fill="rgb(84,139,84)" text-rendering="geometricPrecision" shape-rendering="geometricPrecision" transform="matrix(1,0,0,1,-183,-67)" stroke="rgb(84,139,84)">
      <path d="M198 516 L536 516 L536 556 L198 556 Z" clip-path="url(#clipPath2)" stroke="none"/>
    </g>
    <g text-rendering="geometricPrecision" stroke-miterlimit="1.45" shape-rendering="geometricPrecision" transform="matrix(1,0,0,1,-183,-67)" stroke-linecap="butt">
      <path fill="none" d="M198 516 L536 516 L536 556 L198 556 Z" clip-path="url(#clipPath2)"/>
      <text x="357.1035" xml:space="preserve" y="539.9375" font-family="'Consolas'" clip-path="url(#clipPath2)" stroke="none">WTF</text>
    </g>
    <g fill="rgb(99,99,99)" text-rendering="geometricPrecision" shape-rendering="geometricPrecision" transform="matrix(1,0,0,1,-183,-67)" stroke="rgb(99,99,99)">
      <path d="M198 580 L536 580 L536 620 L198 620 Z" clip-path="url(#clipPath2)" stroke="none"/>
    </g>
    <g text-rendering="geometricPrecision" stroke-miterlimit="1.45" shape-rendering="geometricPrecision" transform="matrix(1,0,0,1,-183,-67)" stroke-linecap="butt">
      <path fill="none" d="M198 580 L536 580 L536 620 L198 620 Z" clip-path="url(#clipPath2)"/>
      <text x="337.3105" xml:space="preserve" y="603.9375" font-family="'Consolas'" clip-path="url(#clipPath2)" stroke="none">OS Memory</text>
    </g>
    <g fill="rgb(106,90,205)" text-rendering="geometricPrecision" shape-rendering="geometricPrecision" transform="matrix(1,0,0,1,-183,-67)" stroke="rgb(106,90,205)">
      <path d="M242.5 324 L491.5 324 L491.5 364 L242.5 364 Z" clip-path="url(#clipPath2)" stroke="none"/>
    </g>
    <g text-rendering="geometricPrecision" stroke-miterlimit="1.45" shape-rendering="geometricPrecision" transform="matrix(1,0,0,1,-183,-67)" stroke-linecap="butt">
      <path fill="none" d="M242.5 324 L491.5 324 L491.5 364 L242.5 364 Z" clip-path="url(#clipPath2)"/>
      <text x="320.8164" xml:space="preserve" y="347.9375" font-family="'Consolas'" clip-path="url(#clipPath2)" stroke="none">BlockAllocator</text>
    </g>
    <g text-rendering="geometricPrecision" stroke-miterlimit="1.45" shape-rendering="geometricPrecision" transform="matrix(1,0,0,1,-183,-67)" stroke-linecap="butt">
      <path fill="none" d="M367 216.9951 L367 239.0273" clip-path="url(#clipPath2)"/>
    </g>
    <g text-rendering="geometricPrecision" stroke-miterlimit="1.45" shape-rendering="geometricPrecision" transform="matrix(1,0,0,1,-183,-67)" stroke-linecap="butt">
      <path d="M367 247.0273 L372 235.0273 L367 238.0273 L362 235.0273 Z" clip-path="url(#clipPath2)" stroke="none"/>
      <path fill="none" d="M367 461.9835 L367 508.0141" clip-path="url(#clipPath2)"/>
      <path d="M367 516.0141 L372 504.0141 L367 507.0141 L362 504.0141 Z" clip-path="url(#clipPath2)" stroke="none"/>
      <path fill="none" d="M367 555.9916 L367 572.0157" clip-path="url(#clipPath2)"/>
      <path d="M367 580.0157 L372 568.0157 L367 571.0157 L362 568.0157 Z" clip-path="url(#clipPath2)" stroke="none"/>
      <path fill="none" d="M367 286.9644 L367 315.9763" clip-path="url(#clipPath2)"/>
      <path d="M367 323.9763 L372 311.9763 L367 314.9763 L362 311.9763 Z" clip-path="url(#clipPath2)" stroke="none"/>
      <path fill="none" d="M367 363.9644 L367 392.9763" clip-path="url(#clipPath2)"/>
      <path d="M367 400.9763 L372 388.9763 L367 391.9763 L362 388.9763 Z" clip-path="url(#clipPath2)" stroke="none"/>
    </g>
  </g>
</svg>
