<?xml version="1.0" encoding="UTF-8"?><svg xmlns="http://www.w3.org/2000/svg" xmlns:xlink="http://www.w3.org/1999/xlink" fill-opacity="1" color-rendering="auto" color-interpolation="auto" stroke="black" text-rendering="auto" stroke-linecap="square" width="489" stroke-miterlimit="10" stroke-opacity="1" shape-rendering="auto" fill="black" stroke-dasharray="none" font-weight="normal" stroke-width="1" height="141" font-family="'Dialog'" font-style="normal" stroke-linejoin="miter" font-size="12" stroke-dashoffset="0" image-rendering="auto">
  <!--Generated by ySVG 2.5-->
  <defs id="genericDefs"/>
  <g>
    <defs id="defs1">
      <clipPath clipPathUnits="userSpaceOnUse" id="clipPath1">
        <path d="M0 0 L489 0 L489 141 L0 141 L0 0 Z"/>
      </clipPath>
      <clipPath clipPathUnits="userSpaceOnUse" id="clipPath2">
        <path d="M224 201 L713 201 L713 342 L224 342 L224 201 Z"/>
      </clipPath>
    </defs>
    <g fill="white" text-rendering="geometricPrecision" shape-rendering="geometricPrecision" transform="translate(-224,-201)" stroke="white">
      <rect x="224" width="489" height="141" y="201" clip-path="url(#clipPath2)" stroke="none"/>
    </g>
    <g text-rendering="geometricPrecision" stroke-miterlimit="1.45" shape-rendering="geometricPrecision" transform="matrix(1,0,0,1,-224,-201)" stroke-linecap="butt">
      <path fill="none" d="M239 216 L319 216 L319 256 L239 256 Z" clip-path="url(#clipPath2)"/>
      <text x="259.207" y="239.9375" clip-path="url(#clipPath2)" font-family="'Consolas'" stroke="none" font-weight="bold" xml:space="preserve">Client</text>
    </g>
    <g text-rendering="geometricPrecision" stroke-miterlimit="1.45" shape-rendering="geometricPrecision" transform="matrix(1,0,0,1,-224,-201)" stroke-linecap="butt">
      <path fill="none" d="M418.5 216 L498.5 216 L498.5 256 L418.5 256 Z" clip-path="url(#clipPath2)"/>
      <text x="442.0059" y="239.9375" clip-path="url(#clipPath2)" font-family="'Consolas'" stroke="none" font-weight="bold" xml:space="preserve">Proxy</text>
    </g>
    <g text-rendering="geometricPrecision" stroke-miterlimit="1.45" shape-rendering="geometricPrecision" transform="matrix(1,0,0,1,-224,-201)" stroke-linecap="butt">
      <path fill="none" d="M577 216 L698 216 L698 256 L577 256 Z" clip-path="url(#clipPath2)"/>
      <text x="591.3164" y="239.9375" clip-path="url(#clipPath2)" font-family="'Consolas'" stroke="none" font-weight="bold" xml:space="preserve">Content Server</text>
    </g>
    <g text-rendering="geometricPrecision" stroke-miterlimit="1.45" shape-rendering="geometricPrecision" transform="matrix(1,0,0,1,-224,-201)" stroke-linecap="butt">
      <path fill="none" d="M319.0106 229 L410.4854 229" clip-path="url(#clipPath2)"/>
    </g>
    <g text-rendering="geometricPrecision" stroke-miterlimit="1.45" shape-rendering="geometricPrecision" transform="matrix(1,0,0,1,-224,-201)" stroke-linecap="butt">
      <path d="M418.4854 229 L406.4854 224 L409.4854 229 L406.4854 234 Z" clip-path="url(#clipPath2)" stroke="none"/>
      <path fill="none" d="M418.4698 244 L327.0302 244" clip-path="url(#clipPath2)"/>
      <path d="M319.0302 244 L331.0302 249 L328.0302 244 L331.0302 239 Z" clip-path="url(#clipPath2)" stroke="none"/>
      <path fill="none" d="M498.4866 225 L568.9871 225" clip-path="url(#clipPath2)"/>
      <path d="M576.9871 225 L564.9871 220 L567.9871 225 L564.9871 230 Z" clip-path="url(#clipPath2)" stroke="none"/>
      <path fill="none" stroke-dasharray="6,2" d="M279 264 L279 327 L625 327 L625 263.978" clip-path="url(#clipPath2)"/>
      <path stroke-dasharray="6,2" d="M279 256 L274 268 L279 265 L284 268 Z" clip-path="url(#clipPath2)" stroke="none"/>
      <path stroke-dasharray="6,2" d="M625 255.978 L620 267.978 L625 264.978 L630 267.978 Z" clip-path="url(#clipPath2)" stroke="none"/>
      <path fill="none" d="M576.996 245 L506.4983 245" clip-path="url(#clipPath2)"/>
      <path d="M498.4983 245 L510.4983 250 L507.4983 245 L510.4983 240 Z" clip-path="url(#clipPath2)" stroke="none"/>
    </g>
  </g>
</svg>
