<?xml version="1.0" encoding="UTF-8"?><svg xmlns="http://www.w3.org/2000/svg" xmlns:xlink="http://www.w3.org/1999/xlink" fill-opacity="1" color-rendering="auto" color-interpolation="auto" stroke="black" text-rendering="auto" stroke-linecap="square" width="457" stroke-miterlimit="10" stroke-opacity="1" shape-rendering="auto" fill="black" stroke-dasharray="none" font-weight="normal" stroke-width="1" height="764" font-family="'Dialog'" font-style="normal" stroke-linejoin="miter" font-size="12" stroke-dashoffset="0" image-rendering="auto">
  <!--Generated by ySVG 2.5-->
  <defs id="genericDefs"/>
  <g>
    <defs id="defs1">
      <clipPath clipPathUnits="userSpaceOnUse" id="clipPath1">
        <path d="M0 0 L457 0 L457 764 L0 764 L0 0 Z"/>
      </clipPath>
      <clipPath clipPathUnits="userSpaceOnUse" id="clipPath2">
        <path d="M-350 -250 L107 -250 L107 514 L-350 514 L-350 -250 Z"/>
      </clipPath>
      <clipPath clipPathUnits="userSpaceOnUse" id="clipPath3">
        <path d="M-160 -234 L-160 -141 L56 -141 L56 -234 Z"/>
      </clipPath>
      <clipPath clipPathUnits="userSpaceOnUse" id="clipPath4">
        <path d="M-334 374 L-334 402 L-218 402 L-218 374 Z"/>
      </clipPath>
      <clipPath clipPathUnits="userSpaceOnUse" id="clipPath5">
        <path d="M-334 231 L-334 315 L-218 315 L-218 231 Z"/>
      </clipPath>
      <clipPath clipPathUnits="userSpaceOnUse" id="clipPath6">
        <path d="M-196 -80 L-196 18 L92 18 L92 -80 Z"/>
      </clipPath>
      <clipPath clipPathUnits="userSpaceOnUse" id="clipPath7">
        <path d="M-160 216 L-160 330 L56 330 L56 216 Z"/>
      </clipPath>
      <clipPath clipPathUnits="userSpaceOnUse" id="clipPath8">
        <path d="M-102 374 L-102 402 L-2 402 L-2 374 Z"/>
      </clipPath>
      <clipPath clipPathUnits="userSpaceOnUse" id="clipPath9">
        <path d="M-334 -224 L-334 -152 L-218 -152 L-218 -224 Z"/>
      </clipPath>
      <clipPath clipPathUnits="userSpaceOnUse" id="clipPath10">
        <path d="M-160 59 L-160 157 L57 157 L57 59 Z"/>
      </clipPath>
      <clipPath clipPathUnits="userSpaceOnUse" id="clipPath11">
        <path d="M-102 451 L-102 479 L-2 479 L-2 451 Z"/>
      </clipPath>
      <clipPath clipPathUnits="userSpaceOnUse" id="clipPath12">
        <path d="M-334 432 L-334 498 L-152 498 L-152 432 Z"/>
      </clipPath>
      <clipPath clipPathUnits="userSpaceOnUse" id="clipPath13">
        <path d="M-334 140 L-334 168 L-218 168 L-218 140 Z"/>
      </clipPath>
    </defs>
    <g fill="white" text-rendering="geometricPrecision" shape-rendering="geometricPrecision" transform="translate(350,250)" stroke="white">
      <rect x="-350" width="457" height="764" y="-250" clip-path="url(#clipPath2)" stroke="none"/>
    </g>
    <g fill="rgb(255,204,0)" text-rendering="geometricPrecision" shape-rendering="geometricPrecision" transform="matrix(1,0,0,1,350,250)" stroke="rgb(255,204,0)">
      <rect x="-159" width="214" height="91" y="-233" clip-path="url(#clipPath2)" stroke="none"/>
      <rect x="-160" y="-234" clip-path="url(#clipPath2)" fill="yellow" width="1" height="93" stroke="none"/>
      <rect x="-159" y="-234" clip-path="url(#clipPath2)" fill="yellow" width="214" height="1" stroke="none"/>
      <rect x="-159" y="-142" clip-path="url(#clipPath2)" fill="rgb(178,142,0)" width="215" height="1" stroke="none"/>
      <rect x="55" y="-234" clip-path="url(#clipPath2)" fill="rgb(178,142,0)" width="1" height="92" stroke="none"/>
    </g>
    <g font-size="13" stroke-linecap="butt" transform="matrix(1,0,0,1,350,250)" text-rendering="geometricPrecision" font-family="'Consolas'" shape-rendering="geometricPrecision" font-weight="bold" stroke-miterlimit="1.45">
      <text x="-66.723" xml:space="preserve" y="-219.1419" clip-path="url(#clipPath3)" stroke="none">Heap</text>
    </g>
    <g shape-rendering="geometricPrecision" text-rendering="geometricPrecision" transform="matrix(1,0,0,1,350,250)">
      <line y2="-211" fill="none" x1="-159" clip-path="url(#clipPath3)" x2="54" y1="-211"/>
      <text stroke-linecap="butt" x="-155.4281" y="-194.843" clip-path="url(#clipPath3)" font-family="sans-serif" stroke="none" xml:space="preserve" stroke-miterlimit="1.45">MarkedSpace m_objectSpace</text>
      <text stroke-linecap="butt" x="-155.4281" y="-180.1419" clip-path="url(#clipPath3)" font-family="sans-serif" stroke="none" xml:space="preserve" stroke-miterlimit="1.45">BlockAllocator m_blockAllocator</text>
      <line y2="-172" fill="none" x1="-159" clip-path="url(#clipPath3)" x2="54" y1="-172"/>
      <rect x="-333" y="375" clip-path="url(#clipPath2)" fill="rgb(255,204,0)" width="114" height="26" stroke="none"/>
      <rect x="-334" y="374" clip-path="url(#clipPath2)" fill="yellow" width="1" height="28" stroke="none"/>
      <rect x="-333" y="374" clip-path="url(#clipPath2)" fill="yellow" width="114" height="1" stroke="none"/>
      <rect x="-333" y="401" clip-path="url(#clipPath2)" fill="rgb(178,142,0)" width="115" height="1" stroke="none"/>
      <rect x="-219" y="374" clip-path="url(#clipPath2)" fill="rgb(178,142,0)" width="1" height="27" stroke="none"/>
    </g>
    <g font-size="13" stroke-linecap="butt" transform="matrix(1,0,0,1,350,250)" text-rendering="geometricPrecision" font-family="'Consolas'" shape-rendering="geometricPrecision" font-weight="bold" stroke-miterlimit="1.45">
      <text x="-309.0916" xml:space="preserve" y="389.9519" clip-path="url(#clipPath4)" stroke="none">DeadBlock</text>
    </g>
    <g fill="rgb(255,204,0)" text-rendering="geometricPrecision" shape-rendering="geometricPrecision" transform="matrix(1,0,0,1,350,250)" stroke="rgb(255,204,0)">
      <rect x="-333" width="114" height="82" y="232" clip-path="url(#clipPath2)" stroke="none"/>
      <rect x="-334" y="231" clip-path="url(#clipPath2)" fill="yellow" width="1" height="84" stroke="none"/>
      <rect x="-333" y="231" clip-path="url(#clipPath2)" fill="yellow" width="114" height="1" stroke="none"/>
      <rect x="-333" y="314" clip-path="url(#clipPath2)" fill="rgb(178,142,0)" width="115" height="1" stroke="none"/>
      <rect x="-219" y="231" clip-path="url(#clipPath2)" fill="rgb(178,142,0)" width="1" height="83" stroke="none"/>
    </g>
    <g font-size="13" stroke-linecap="butt" transform="matrix(1,0,0,1,350,250)" text-rendering="geometricPrecision" font-family="'Consolas'" shape-rendering="geometricPrecision" font-weight="bold" stroke-miterlimit="1.45">
      <text x="-316.2391" xml:space="preserve" y="247.1706" clip-path="url(#clipPath5)" stroke="none">MarkedBlock</text>
    </g>
    <g shape-rendering="geometricPrecision" text-rendering="geometricPrecision" transform="matrix(1,0,0,1,350,250)">
      <line y2="254" fill="none" x1="-333" clip-path="url(#clipPath5)" x2="-219" y1="254"/>
      <line y2="264" fill="none" x1="-333" clip-path="url(#clipPath5)" x2="-219" y1="264"/>
      <text stroke-linecap="butt" x="-329.9281" y="281.4695" clip-path="url(#clipPath5)" font-family="sans-serif" stroke="none" xml:space="preserve" stroke-miterlimit="1.45">specializedSweep</text>
      <rect x="-195" y="-79" clip-path="url(#clipPath2)" fill="rgb(255,204,0)" width="286" height="96" stroke="none"/>
      <rect x="-196" y="-80" clip-path="url(#clipPath2)" fill="yellow" width="1" height="98" stroke="none"/>
      <rect x="-195" y="-80" clip-path="url(#clipPath2)" fill="yellow" width="286" height="1" stroke="none"/>
      <rect x="-195" y="17" clip-path="url(#clipPath2)" fill="rgb(178,142,0)" width="287" height="1" stroke="none"/>
      <rect x="91" y="-80" clip-path="url(#clipPath2)" fill="rgb(178,142,0)" width="1" height="97" stroke="none"/>
    </g>
    <g font-size="13" stroke-linecap="butt" transform="matrix(1,0,0,1,350,250)" text-rendering="geometricPrecision" font-family="'Consolas'" shape-rendering="geometricPrecision" font-weight="bold" stroke-miterlimit="1.45">
      <text x="-91.7391" xml:space="preserve" y="-65.0169" clip-path="url(#clipPath6)" stroke="none">MarkedSpace</text>
    </g>
    <g shape-rendering="geometricPrecision" text-rendering="geometricPrecision" transform="matrix(1,0,0,1,350,250)">
      <line y2="-57" fill="none" x1="-195" clip-path="url(#clipPath6)" x2="90" y1="-57"/>
      <text stroke-linecap="butt" x="-191.4281" y="-40.718" clip-path="url(#clipPath6)" font-family="sans-serif" stroke="none" xml:space="preserve" stroke-miterlimit="1.45">Subspace m_normalDestructorSpace</text>
      <text stroke-linecap="butt" x="-191.4281" y="-26.0169" clip-path="url(#clipPath6)" font-family="sans-serif" stroke="none" xml:space="preserve" stroke-miterlimit="1.45">Subspace m_immortalStructureDestructorSpace</text>
      <text stroke-linecap="butt" x="-191.4281" y="-11.3157" clip-path="url(#clipPath6)" font-family="sans-serif" stroke="none" xml:space="preserve" stroke-miterlimit="1.45">Subspace m_normalSpace</text>
      <line y2="-3" fill="none" x1="-195" clip-path="url(#clipPath6)" x2="90" y1="-3"/>
      <rect x="-159" y="217" clip-path="url(#clipPath2)" fill="rgb(255,204,0)" width="214" height="112" stroke="none"/>
      <rect x="-160" y="216" clip-path="url(#clipPath2)" fill="yellow" width="1" height="114" stroke="none"/>
      <rect x="-159" y="216" clip-path="url(#clipPath2)" fill="yellow" width="214" height="1" stroke="none"/>
      <rect x="-159" y="329" clip-path="url(#clipPath2)" fill="rgb(178,142,0)" width="215" height="1" stroke="none"/>
      <rect x="55" y="216" clip-path="url(#clipPath2)" fill="rgb(178,142,0)" width="1" height="113" stroke="none"/>
    </g>
    <g font-size="13" stroke-linecap="butt" transform="matrix(1,0,0,1,350,250)" text-rendering="geometricPrecision" font-family="'Consolas'" shape-rendering="geometricPrecision" font-weight="bold" stroke-miterlimit="1.45">
      <text x="-106.034" xml:space="preserve" y="232.6081" clip-path="url(#clipPath7)" stroke="none">MarkedAllocator</text>
    </g>
    <g shape-rendering="geometricPrecision" text-rendering="geometricPrecision" transform="matrix(1,0,0,1,350,250)">
      <line y2="239" fill="none" x1="-159" clip-path="url(#clipPath7)" x2="54" y1="239"/>
      <line y2="249" fill="none" x1="-159" clip-path="url(#clipPath7)" x2="54" y1="249"/>
      <text stroke-linecap="butt" x="-155.4281" y="266.907" clip-path="url(#clipPath7)" font-family="sans-serif" stroke="none" xml:space="preserve" stroke-miterlimit="1.45">allocate(size_t bytes)</text>
      <text stroke-linecap="butt" x="-155.4281" y="281.6081" clip-path="url(#clipPath7)" font-family="sans-serif" stroke="none" xml:space="preserve" stroke-miterlimit="1.45">allocateSlowCase(size_t bytes)</text>
      <text stroke-linecap="butt" x="-155.4281" y="296.3093" clip-path="url(#clipPath7)" font-family="sans-serif" stroke="none" xml:space="preserve" stroke-miterlimit="1.45">allocateBlock(size_t bytes)</text>
      <rect x="-101" y="375" clip-path="url(#clipPath2)" fill="rgb(255,204,0)" width="98" height="26" stroke="none"/>
      <rect x="-102" y="374" clip-path="url(#clipPath2)" fill="yellow" width="1" height="28" stroke="none"/>
      <rect x="-101" y="374" clip-path="url(#clipPath2)" fill="yellow" width="98" height="1" stroke="none"/>
      <rect x="-101" y="401" clip-path="url(#clipPath2)" fill="rgb(178,142,0)" width="99" height="1" stroke="none"/>
      <rect x="-3" y="374" clip-path="url(#clipPath2)" fill="rgb(178,142,0)" width="1" height="27" stroke="none"/>
    </g>
    <g font-size="13" stroke-linecap="butt" transform="matrix(1,0,0,1,350,250)" text-rendering="geometricPrecision" font-family="'Consolas'" shape-rendering="geometricPrecision" font-weight="bold" stroke-miterlimit="1.45">
      <text x="-73.8704" xml:space="preserve" y="389.9519" clip-path="url(#clipPath8)" stroke="none">Region</text>
    </g>
    <g fill="rgb(255,204,0)" text-rendering="geometricPrecision" shape-rendering="geometricPrecision" transform="matrix(1,0,0,1,350,250)" stroke="rgb(255,204,0)">
      <rect x="-333" width="114" height="70" y="-223" clip-path="url(#clipPath2)" stroke="none"/>
      <rect x="-334" y="-224" clip-path="url(#clipPath2)" fill="yellow" width="1" height="72" stroke="none"/>
      <rect x="-333" y="-224" clip-path="url(#clipPath2)" fill="yellow" width="114" height="1" stroke="none"/>
      <rect x="-333" y="-153" clip-path="url(#clipPath2)" fill="rgb(178,142,0)" width="115" height="1" stroke="none"/>
      <rect x="-219" y="-224" clip-path="url(#clipPath2)" fill="rgb(178,142,0)" width="1" height="71" stroke="none"/>
    </g>
    <g font-size="13" stroke-linecap="butt" transform="matrix(1,0,0,1,350,250)" text-rendering="geometricPrecision" font-family="'Consolas'" shape-rendering="geometricPrecision" font-weight="bold" stroke-miterlimit="1.45">
      <text x="-284.0755" xml:space="preserve" y="-208.6419" clip-path="url(#clipPath9)" stroke="none">VM</text>
    </g>
    <g shape-rendering="geometricPrecision" text-rendering="geometricPrecision" transform="matrix(1,0,0,1,350,250)">
      <line y2="-201" fill="none" x1="-333" clip-path="url(#clipPath9)" x2="-219" y1="-201"/>
      <text stroke-linecap="butt" x="-329.9281" y="-184.343" clip-path="url(#clipPath9)" font-family="sans-serif" stroke="none" xml:space="preserve" stroke-miterlimit="1.45">Heap heap</text>
      <line y2="-176" fill="none" x1="-333" clip-path="url(#clipPath9)" x2="-219" y1="-176"/>
      <rect x="-159" y="60" clip-path="url(#clipPath2)" fill="rgb(255,204,0)" width="215" height="96" stroke="none"/>
      <rect x="-160" y="59" clip-path="url(#clipPath2)" fill="yellow" width="1" height="98" stroke="none"/>
      <rect x="-159" y="59" clip-path="url(#clipPath2)" fill="yellow" width="215" height="1" stroke="none"/>
      <rect x="-159" y="156" clip-path="url(#clipPath2)" fill="rgb(178,142,0)" width="216" height="1" stroke="none"/>
      <rect x="56" y="59" clip-path="url(#clipPath2)" fill="rgb(178,142,0)" width="1" height="97" stroke="none"/>
    </g>
    <g font-size="13" stroke-linecap="butt" transform="matrix(1,0,0,1,350,250)" text-rendering="geometricPrecision" font-family="'Consolas'" shape-rendering="geometricPrecision" font-weight="bold" stroke-miterlimit="1.45">
      <text x="-81.0179" xml:space="preserve" y="75.2331" clip-path="url(#clipPath10)" stroke="none">Subspace</text>
    </g>
    <g shape-rendering="geometricPrecision" text-rendering="geometricPrecision" transform="matrix(1,0,0,1,350,250)">
      <line y2="82" fill="none" x1="-159" clip-path="url(#clipPath10)" x2="55" y1="82"/>
      <text stroke-linecap="butt" x="-155.9281" y="99.532" clip-path="url(#clipPath10)" font-family="sans-serif" stroke="none" xml:space="preserve" stroke-miterlimit="1.45">MarkedAllocator preciseAllocators</text>
      <text stroke-linecap="butt" x="-155.9281" y="114.2331" clip-path="url(#clipPath10)" font-family="sans-serif" stroke="none" xml:space="preserve" stroke-miterlimit="1.45">MarkedAllocator impreciseAllocators</text>
      <text stroke-linecap="butt" x="-155.9281" y="128.9343" clip-path="url(#clipPath10)" font-family="sans-serif" stroke="none" xml:space="preserve" stroke-miterlimit="1.45">MarkedAllocator largeAllocator</text>
      <line y2="136" fill="none" x1="-159" clip-path="url(#clipPath10)" x2="55" y1="136"/>
      <rect x="-101" y="452" clip-path="url(#clipPath2)" fill="rgb(255,204,0)" width="98" height="26" stroke="none"/>
      <rect x="-102" y="451" clip-path="url(#clipPath2)" fill="yellow" width="1" height="28" stroke="none"/>
      <rect x="-101" y="451" clip-path="url(#clipPath2)" fill="yellow" width="98" height="1" stroke="none"/>
      <rect x="-101" y="478" clip-path="url(#clipPath2)" fill="rgb(178,142,0)" width="99" height="1" stroke="none"/>
      <rect x="-3" y="451" clip-path="url(#clipPath2)" fill="rgb(178,142,0)" width="1" height="27" stroke="none"/>
    </g>
    <g font-size="13" stroke-linecap="butt" transform="matrix(1,0,0,1,350,250)" text-rendering="geometricPrecision" font-family="'Consolas'" shape-rendering="geometricPrecision" font-weight="bold" stroke-miterlimit="1.45">
      <text x="-95.3128" xml:space="preserve" y="466.9519" clip-path="url(#clipPath11)" stroke="none">ExcessRegion</text>
    </g>
    <g fill="rgb(255,204,0)" text-rendering="geometricPrecision" shape-rendering="geometricPrecision" transform="matrix(1,0,0,1,350,250)" stroke="rgb(255,204,0)">
      <rect x="-333" width="180" height="64" y="433" clip-path="url(#clipPath2)" stroke="none"/>
      <rect x="-334" y="432" clip-path="url(#clipPath2)" fill="yellow" width="1" height="66" stroke="none"/>
      <rect x="-333" y="432" clip-path="url(#clipPath2)" fill="yellow" width="180" height="1" stroke="none"/>
      <rect x="-333" y="497" clip-path="url(#clipPath2)" fill="rgb(178,142,0)" width="181" height="1" stroke="none"/>
      <rect x="-153" y="432" clip-path="url(#clipPath2)" fill="rgb(178,142,0)" width="1" height="65" stroke="none"/>
    </g>
    <g font-size="13" stroke-linecap="butt" transform="matrix(1,0,0,1,350,250)" text-rendering="geometricPrecision" font-family="'Consolas'" shape-rendering="geometricPrecision" font-weight="bold" stroke-miterlimit="1.45">
      <text x="-318.9764" xml:space="preserve" y="447.9519" clip-path="url(#clipPath12)" stroke="none">PageAllocationAligned</text>
    </g>
    <g shape-rendering="geometricPrecision" text-rendering="geometricPrecision" transform="matrix(1,0,0,1,350,250)">
      <line y2="455" fill="none" x1="-333" clip-path="url(#clipPath12)" x2="-153" y1="455"/>
      <line y2="465" fill="none" x1="-333" clip-path="url(#clipPath12)" x2="-153" y1="465"/>
      <text stroke-linecap="butt" x="-329.9281" y="482.2507" clip-path="url(#clipPath12)" font-family="sans-serif" stroke="none" xml:space="preserve" stroke-miterlimit="1.45">static PageAllocation allocate()</text>
      <rect x="-333" y="141" clip-path="url(#clipPath2)" fill="rgb(255,204,0)" width="114" height="26" stroke="none"/>
      <rect x="-334" y="140" clip-path="url(#clipPath2)" fill="yellow" width="1" height="28" stroke="none"/>
      <rect x="-333" y="140" clip-path="url(#clipPath2)" fill="yellow" width="114" height="1" stroke="none"/>
      <rect x="-333" y="167" clip-path="url(#clipPath2)" fill="rgb(178,142,0)" width="115" height="1" stroke="none"/>
      <rect x="-219" y="140" clip-path="url(#clipPath2)" fill="rgb(178,142,0)" width="1" height="27" stroke="none"/>
    </g>
    <g font-size="13" stroke-linecap="butt" transform="matrix(1,0,0,1,350,250)" text-rendering="geometricPrecision" font-family="'Consolas'" shape-rendering="geometricPrecision" font-weight="bold" stroke-miterlimit="1.45">
      <text x="-305.5179" xml:space="preserve" y="155.9831" clip-path="url(#clipPath13)" stroke="none">FreeList</text>
      <path fill="none" d="M-52.4281 -134.9131 L-52.4281 -80.8059" clip-path="url(#clipPath2)"/>
      <path d="M-52.4281 -141.9131 L-47.4281 -134.9131 L-52.4281 -127.9131 L-57.4281 -134.9131 Z" clip-path="url(#clipPath2)" stroke="none"/>
    </g>
    <g text-rendering="geometricPrecision" stroke-dasharray="6,2" stroke-miterlimit="1.45" shape-rendering="geometricPrecision" transform="matrix(1,0,0,1,350,250)" stroke-linecap="butt">
      <path fill="none" d="M-160.4303 273.8425 L-213.9352 273.8425" clip-path="url(#clipPath2)"/>
      <path d="M-217.9352 273.8425 L-205.9352 279.8425 L-217.9352 273.8425 L-205.9352 267.8425 Z" clip-path="url(#clipPath2)" stroke="none"/>
      <path fill="none" stroke-dasharray="none" d="M-217.9352 273.8425 L-205.9352 279.8425 L-217.9352 273.8425 L-205.9352 267.8425 Z" stroke-miterlimit="10" clip-path="url(#clipPath2)" stroke-linecap="square"/>
      <path fill="none" d="M-52.4281 330.819 L-52.4281 369.2086" clip-path="url(#clipPath2)"/>
      <path d="M-52.4281 373.2086 L-46.4281 361.2086 L-52.4281 373.2086 L-58.4281 361.2086 Z" clip-path="url(#clipPath2)" stroke="none"/>
      <path fill="none" stroke-dasharray="none" d="M-52.4281 373.2086 L-46.4281 361.2086 L-52.4281 373.2086 L-58.4281 361.2086 Z" stroke-miterlimit="10" clip-path="url(#clipPath2)" stroke-linecap="square"/>
      <path fill="none" d="M-102.4418 388.1862 L-213.9506 388.1862" clip-path="url(#clipPath2)"/>
      <path d="M-217.9506 388.1862 L-205.9506 394.1862 L-217.9506 388.1862 L-205.9506 382.1862 Z" clip-path="url(#clipPath2)" stroke="none"/>
      <path fill="none" stroke-dasharray="none" d="M-217.9506 388.1862 L-205.9506 394.1862 L-217.9506 388.1862 L-205.9506 382.1862 Z" stroke-miterlimit="10" clip-path="url(#clipPath2)" stroke-linecap="square"/>
      <path fill="none" stroke-dasharray="none" d="M-211.9121 -188.4075 L-160.4232 -188.4075" clip-path="url(#clipPath2)"/>
      <path stroke-dasharray="none" d="M-218.9121 -188.4075 L-211.9121 -193.4075 L-204.9121 -188.4075 L-211.9121 -183.4075 Z" clip-path="url(#clipPath2)" stroke="none"/>
      <path fill="none" stroke-dasharray="none" d="M-52.4281 24.9334 L-52.4281 59.4373" clip-path="url(#clipPath2)"/>
      <path stroke-dasharray="none" d="M-52.4281 17.9334 L-47.4281 24.9334 L-52.4281 31.9334 L-57.4281 24.9334 Z" clip-path="url(#clipPath2)" stroke="none"/>
      <path fill="none" stroke-dasharray="none" d="M-52.4281 165.1894 L-52.4281 216.8348" clip-path="url(#clipPath2)"/>
      <path stroke-dasharray="none" d="M-52.4281 158.1894 L-47.4281 165.1894 L-52.4281 172.1894 L-57.4281 165.1894 Z" clip-path="url(#clipPath2)" stroke="none"/>
      <path fill="none" stroke-dasharray="none" d="M-52.4281 451.1623 L-52.4281 417.1775" clip-path="url(#clipPath2)"/>
      <path fill="white" stroke-dasharray="none" d="M-52.4281 402.1775 L-58.4281 418.1775 L-46.4281 418.1775 Z" clip-path="url(#clipPath2)" stroke="none"/>
      <path fill="none" stroke-dasharray="none" d="M-52.4281 402.1775 L-58.4281 418.1775 L-46.4281 418.1775 Z" clip-path="url(#clipPath2)"/>
      <path fill="none" d="M-102.4069 465.1862 L-147.9551 465.1862" clip-path="url(#clipPath2)"/>
      <path d="M-151.9551 465.1862 L-139.9551 471.1862 L-151.9551 465.1862 L-139.9551 459.1862 Z" clip-path="url(#clipPath2)" stroke="none"/>
      <path fill="none" stroke-dasharray="none" d="M-151.9551 465.1862 L-139.9551 471.1862 L-151.9551 465.1862 L-139.9551 459.1862 Z" stroke-miterlimit="10" clip-path="url(#clipPath2)" stroke-linecap="square"/>
      <path fill="none" stroke-dasharray="none" d="M-276.9281 224.4072 L-276.9281 168.2006" clip-path="url(#clipPath2)"/>
      <path stroke-dasharray="none" d="M-276.9281 231.4072 L-281.9281 224.4072 L-276.9281 217.4072 L-271.9281 224.4072 Z" clip-path="url(#clipPath2)" stroke="none"/>
    </g>
  </g>
</svg>
