<?xml version="1.0" encoding="UTF-8"?><svg xmlns="http://www.w3.org/2000/svg" xmlns:xlink="http://www.w3.org/1999/xlink" fill-opacity="1" color-rendering="auto" color-interpolation="auto" stroke="black" text-rendering="auto" stroke-linecap="square" width="592" stroke-miterlimit="10" stroke-opacity="1" shape-rendering="auto" fill="black" stroke-dasharray="none" font-weight="normal" stroke-width="1" height="372" font-family="'Dialog'" font-style="normal" stroke-linejoin="miter" font-size="12" stroke-dashoffset="0" image-rendering="auto">
  <!--Generated by ySVG 2.5-->
  <defs id="genericDefs"/>
  <g>
    <defs id="defs1">
      <linearGradient x1="133" gradientUnits="userSpaceOnUse" x2="598" y1="133" y2="173" id="linearGradient1" spreadMethod="reflect">
        <stop stop-opacity="1" stop-color="rgb(232,238,247)" offset="0%"/>
        <stop stop-opacity="1" stop-color="rgb(183,201,227)" offset="100%"/>
      </linearGradient>
      <linearGradient x1="133" gradientUnits="userSpaceOnUse" x2="598" y1="63" y2="103" id="linearGradient2" spreadMethod="reflect">
        <stop stop-opacity="1" stop-color="rgb(232,238,247)" offset="0%"/>
        <stop stop-opacity="1" stop-color="rgb(183,201,227)" offset="100%"/>
      </linearGradient>
      <linearGradient x1="133" gradientUnits="userSpaceOnUse" x2="598" y1="278" y2="318" id="linearGradient3" spreadMethod="reflect">
        <stop stop-opacity="1" stop-color="rgb(232,238,247)" offset="0%"/>
        <stop stop-opacity="1" stop-color="rgb(183,201,227)" offset="100%"/>
      </linearGradient>
      <clipPath clipPathUnits="userSpaceOnUse" id="clipPath1">
        <path d="M0 0 L592 0 L592 372 L0 372 L0 0 Z"/>
      </clipPath>
      <clipPath clipPathUnits="userSpaceOnUse" id="clipPath2">
        <path d="M21 48 L613 48 L613 420 L21 420 L21 48 Z"/>
      </clipPath>
    </defs>
    <g fill="white" text-rendering="geometricPrecision" shape-rendering="geometricPrecision" transform="translate(-21,-48)" stroke="white">
      <rect x="21" width="592" height="372" y="48" clip-path="url(#clipPath2)" stroke="none"/>
    </g>
    <g fill="rgb(0,153,255)" text-rendering="geometricPrecision" shape-rendering="geometricPrecision" transform="matrix(1,0,0,1,-21,-48)" stroke="rgb(0,153,255)">
      <path d="M133 208 L598 208 L598 248 L133 248 Z" clip-path="url(#clipPath2)" stroke="none"/>
    </g>
    <g text-rendering="geometricPrecision" stroke-miterlimit="1.45" shape-rendering="geometricPrecision" transform="matrix(1,0,0,1,-21,-48)" stroke-linecap="butt">
      <path fill="none" d="M133 208 L598 208 L598 248 L133 248 Z" clip-path="url(#clipPath2)"/>
    </g>
    <g text-rendering="geometricPrecision" stroke-miterlimit="1.45" shape-rendering="geometricPrecision" font-family="'Consolas'" transform="matrix(1,0,0,1,-21,-48)" stroke-linecap="butt">
      <text x="38.2129" xml:space="preserve" y="231.9375" clip-path="url(#clipPath2)" stroke="none">MarkedBlock</text>
    </g>
    <g fill="url(#linearGradient1)" text-rendering="geometricPrecision" shape-rendering="geometricPrecision" transform="matrix(1,0,0,1,-21,-48)" stroke="url(#linearGradient1)">
      <path d="M133 133 L598 133 L598 173 L133 173 Z" clip-path="url(#clipPath2)" stroke="none"/>
    </g>
    <g text-rendering="geometricPrecision" stroke-miterlimit="1.45" shape-rendering="geometricPrecision" transform="matrix(1,0,0,1,-21,-48)" stroke-linecap="butt">
      <path fill="none" d="M133 133 L598 133 L598 173 L133 173 Z" clip-path="url(#clipPath2)"/>
    </g>
    <g text-rendering="geometricPrecision" stroke-miterlimit="1.45" shape-rendering="geometricPrecision" font-family="'Consolas'" transform="matrix(1,0,0,1,-21,-48)" stroke-linecap="butt">
      <text x="68.207" xml:space="preserve" y="91.9375" clip-path="url(#clipPath2)" stroke="none">Region</text>
    </g>
    <g fill="rgb(255,153,0)" text-rendering="geometricPrecision" shape-rendering="geometricPrecision" transform="matrix(1,0,0,1,-21,-48)" stroke="rgb(255,153,0)">
      <path d="M133 208 L206 208 L206 248 L133 248 Z" clip-path="url(#clipPath2)" stroke="none"/>
    </g>
    <g text-rendering="geometricPrecision" stroke-miterlimit="1.45" shape-rendering="geometricPrecision" transform="matrix(1,0,0,1,-21,-48)" stroke-linecap="butt">
      <path fill="none" d="M133 208 L206 208 L206 248 L133 248 Z" clip-path="url(#clipPath2)"/>
      <text x="139.8105" y="231.9375" clip-path="url(#clipPath2)" font-family="'Consolas'" stroke="none" font-weight="bold" xml:space="preserve">DeadBlock</text>
    </g>
    <g fill="rgb(0,153,255)" text-rendering="geometricPrecision" shape-rendering="geometricPrecision" transform="matrix(1,0,0,1,-21,-48)" stroke="rgb(0,153,255)">
      <path d="M133 133 L226 133 L226 173 L133 173 Z" clip-path="url(#clipPath2)" stroke="none"/>
    </g>
    <g text-rendering="geometricPrecision" stroke-miterlimit="1.45" shape-rendering="geometricPrecision" transform="matrix(1,0,0,1,-21,-48)" stroke-linecap="butt">
      <path fill="none" d="M133 133 L226 133 L226 173 L133 173 Z" clip-path="url(#clipPath2)"/>
      <text x="143.2129" y="156.9375" clip-path="url(#clipPath2)" font-family="'Consolas'" stroke="none" font-weight="bold" xml:space="preserve">MarkedBlock</text>
    </g>
    <g fill="url(#linearGradient2)" text-rendering="geometricPrecision" shape-rendering="geometricPrecision" transform="matrix(1,0,0,1,-21,-48)" stroke="url(#linearGradient2)">
      <path d="M133 63 L598 63 L598 103 L133 103 Z" clip-path="url(#clipPath2)" stroke="none"/>
    </g>
    <g text-rendering="geometricPrecision" stroke-miterlimit="1.45" shape-rendering="geometricPrecision" transform="matrix(1,0,0,1,-21,-48)" stroke-linecap="butt">
      <path fill="none" d="M133 63 L598 63 L598 103 L133 103 Z" clip-path="url(#clipPath2)"/>
    </g>
    <g text-rendering="geometricPrecision" stroke-miterlimit="1.45" shape-rendering="geometricPrecision" font-family="'Consolas'" transform="matrix(1,0,0,1,-21,-48)" stroke-linecap="butt">
      <text x="68.207" xml:space="preserve" y="159.4375" clip-path="url(#clipPath2)" stroke="none">Region</text>
    </g>
    <g fill="rgb(0,153,255)" text-rendering="geometricPrecision" shape-rendering="geometricPrecision" transform="matrix(1,0,0,1,-21,-48)" stroke="rgb(0,153,255)">
      <path d="M226 133 L319 133 L319 173 L226 173 Z" clip-path="url(#clipPath2)" stroke="none"/>
    </g>
    <g text-rendering="geometricPrecision" stroke-miterlimit="1.45" shape-rendering="geometricPrecision" transform="matrix(1,0,0,1,-21,-48)" stroke-linecap="butt">
      <path fill="none" d="M226 133 L319 133 L319 173 L226 173 Z" clip-path="url(#clipPath2)"/>
      <text x="236.2129" y="156.9375" clip-path="url(#clipPath2)" font-family="'Consolas'" stroke="none" font-weight="bold" xml:space="preserve">MarkedBlock</text>
    </g>
    <g fill="rgb(0,153,255)" text-rendering="geometricPrecision" shape-rendering="geometricPrecision" transform="matrix(1,0,0,1,-21,-48)" stroke="rgb(0,153,255)">
      <path d="M412 133 L505 133 L505 173 L412 173 Z" clip-path="url(#clipPath2)" stroke="none"/>
    </g>
    <g text-rendering="geometricPrecision" stroke-miterlimit="1.45" shape-rendering="geometricPrecision" transform="matrix(1,0,0,1,-21,-48)" stroke-linecap="butt">
      <path fill="none" d="M412 133 L505 133 L505 173 L412 173 Z" clip-path="url(#clipPath2)"/>
    </g>
    <g fill="rgb(0,153,255)" text-rendering="geometricPrecision" shape-rendering="geometricPrecision" transform="matrix(1,0,0,1,-21,-48)" stroke="rgb(0,153,255)">
      <path d="M505 133 L598 133 L598 173 L505 173 Z" clip-path="url(#clipPath2)" stroke="none"/>
    </g>
    <g text-rendering="geometricPrecision" stroke-miterlimit="1.45" shape-rendering="geometricPrecision" transform="matrix(1,0,0,1,-21,-48)" stroke-linecap="butt">
      <path fill="none" d="M505 133 L598 133 L598 173 L505 173 Z" clip-path="url(#clipPath2)"/>
    </g>
    <g fill="rgb(0,153,255)" text-rendering="geometricPrecision" shape-rendering="geometricPrecision" transform="matrix(1,0,0,1,-21,-48)" stroke="rgb(0,153,255)">
      <path d="M319 133 L412 133 L412 173 L319 173 Z" clip-path="url(#clipPath2)" stroke="none"/>
    </g>
    <g text-rendering="geometricPrecision" stroke-miterlimit="1.45" shape-rendering="geometricPrecision" transform="matrix(1,0,0,1,-21,-48)" stroke-linecap="butt">
      <path fill="none" d="M319 133 L412 133 L412 173 L319 173 Z" clip-path="url(#clipPath2)"/>
    </g>
    <g fill="url(#linearGradient3)" text-rendering="geometricPrecision" shape-rendering="geometricPrecision" transform="matrix(1,0,0,1,-21,-48)" stroke="url(#linearGradient3)">
      <path d="M133 278 L598 278 L598 318 L133 318 Z" clip-path="url(#clipPath2)" stroke="none"/>
    </g>
    <g text-rendering="geometricPrecision" stroke-miterlimit="1.45" shape-rendering="geometricPrecision" transform="matrix(1,0,0,1,-21,-48)" stroke-linecap="butt">
      <path fill="none" d="M133 278 L598 278 L598 318 L133 318 Z" clip-path="url(#clipPath2)"/>
    </g>
    <g fill="rgb(102,204,255)" text-rendering="geometricPrecision" shape-rendering="geometricPrecision" transform="matrix(1,0,0,1,-21,-48)" stroke="rgb(102,204,255)">
      <path d="M133 278 L193 278 L193 318 L133 318 Z" clip-path="url(#clipPath2)" stroke="none"/>
    </g>
    <g text-rendering="geometricPrecision" stroke-miterlimit="1.45" shape-rendering="geometricPrecision" transform="matrix(1,0,0,1,-21,-48)" stroke-linecap="butt">
      <path fill="none" d="M133 278 L193 278 L193 318 L133 318 Z" clip-path="url(#clipPath2)"/>
      <text x="149.8047" y="301.9375" clip-path="url(#clipPath2)" font-family="'Consolas'" stroke="none" font-weight="bold" xml:space="preserve">Cell</text>
    </g>
    <g fill="rgb(102,204,255)" text-rendering="geometricPrecision" shape-rendering="geometricPrecision" transform="matrix(1,0,0,1,-21,-48)" stroke="rgb(102,204,255)">
      <path d="M433 278 L493 278 L493 318 L433 318 Z" clip-path="url(#clipPath2)" stroke="none"/>
    </g>
    <g text-rendering="geometricPrecision" stroke-miterlimit="1.45" shape-rendering="geometricPrecision" transform="matrix(1,0,0,1,-21,-48)" stroke-linecap="butt">
      <path fill="none" d="M433 278 L493 278 L493 318 L433 318 Z" clip-path="url(#clipPath2)"/>
      <text x="452.998" xml:space="preserve" y="302.7139" font-family="sans-serif" clip-path="url(#clipPath2)" stroke="none">......</text>
    </g>
    <g fill="rgb(102,204,255)" text-rendering="geometricPrecision" shape-rendering="geometricPrecision" transform="matrix(1,0,0,1,-21,-48)" stroke="rgb(102,204,255)">
      <path d="M133 365 L226 365 L226 405 L133 405 Z" clip-path="url(#clipPath2)" stroke="none"/>
    </g>
    <g text-rendering="geometricPrecision" stroke-miterlimit="1.45" shape-rendering="geometricPrecision" transform="matrix(1,0,0,1,-21,-48)" stroke-linecap="butt">
      <path fill="none" d="M133 365 L226 365 L226 405 L133 405 Z" clip-path="url(#clipPath2)"/>
    </g>
    <g fill="rgb(255,204,153)" text-rendering="geometricPrecision" shape-rendering="geometricPrecision" transform="matrix(1,0,0,1,-21,-48)" stroke="rgb(255,204,153)">
      <path d="M133 365 L213 365 L213 405 L133 405 Z" clip-path="url(#clipPath2)" stroke="none"/>
    </g>
    <g text-rendering="geometricPrecision" stroke-miterlimit="1.45" shape-rendering="geometricPrecision" transform="matrix(1,0,0,1,-21,-48)" stroke-linecap="butt">
      <path fill="none" d="M133 365 L213 365 L213 405 L133 405 Z" clip-path="url(#clipPath2)"/>
      <text x="146.6094" xml:space="preserve" y="388.9375" font-family="'Consolas'" clip-path="url(#clipPath2)" stroke="none">JSObject</text>
    </g>
    <g text-rendering="geometricPrecision" stroke-miterlimit="1.45" shape-rendering="geometricPrecision" font-family="'Consolas'" transform="matrix(1,0,0,1,-21,-48)" stroke-linecap="butt">
      <text x="38.2129" xml:space="preserve" y="301.9375" clip-path="url(#clipPath2)" stroke="none">MarkedBlock</text>
    </g>
    <g text-rendering="geometricPrecision" stroke-miterlimit="1.45" shape-rendering="geometricPrecision" font-family="'Consolas'" transform="matrix(1,0,0,1,-21,-48)" stroke-linecap="butt">
      <text x="61.3047" xml:space="preserve" y="388.9375" clip-path="url(#clipPath2)" stroke="none">Cell</text>
    </g>
    <g fill="rgb(102,204,255)" text-rendering="geometricPrecision" shape-rendering="geometricPrecision" transform="matrix(1,0,0,1,-21,-48)" stroke="rgb(102,204,255)">
      <path d="M193 278 L253 278 L253 318 L193 318 Z" clip-path="url(#clipPath2)" stroke="none"/>
    </g>
    <g text-rendering="geometricPrecision" stroke-miterlimit="1.45" shape-rendering="geometricPrecision" transform="matrix(1,0,0,1,-21,-48)" stroke-linecap="butt">
      <path fill="none" d="M193 278 L253 278 L253 318 L193 318 Z" clip-path="url(#clipPath2)"/>
      <text x="209.8047" y="301.9375" clip-path="url(#clipPath2)" font-family="'Consolas'" stroke="none" font-weight="bold" xml:space="preserve">Cell</text>
    </g>
    <g fill="rgb(102,204,255)" text-rendering="geometricPrecision" shape-rendering="geometricPrecision" transform="matrix(1,0,0,1,-21,-48)" stroke="rgb(102,204,255)">
      <path d="M253 278 L313 278 L313 318 L253 318 Z" clip-path="url(#clipPath2)" stroke="none"/>
    </g>
    <g text-rendering="geometricPrecision" stroke-miterlimit="1.45" shape-rendering="geometricPrecision" transform="matrix(1,0,0,1,-21,-48)" stroke-linecap="butt">
      <path fill="none" d="M253 278 L313 278 L313 318 L253 318 Z" clip-path="url(#clipPath2)"/>
      <text x="269.8047" y="301.9375" clip-path="url(#clipPath2)" font-family="'Consolas'" stroke="none" font-weight="bold" xml:space="preserve">Cell</text>
    </g>
    <g fill="rgb(102,204,255)" text-rendering="geometricPrecision" shape-rendering="geometricPrecision" transform="matrix(1,0,0,1,-21,-48)" stroke="rgb(102,204,255)">
      <path d="M313 278 L373 278 L373 318 L313 318 Z" clip-path="url(#clipPath2)" stroke="none"/>
    </g>
    <g text-rendering="geometricPrecision" stroke-miterlimit="1.45" shape-rendering="geometricPrecision" transform="matrix(1,0,0,1,-21,-48)" stroke-linecap="butt">
      <path fill="none" d="M313 278 L373 278 L373 318 L313 318 Z" clip-path="url(#clipPath2)"/>
      <text x="329.8047" y="301.9375" clip-path="url(#clipPath2)" font-family="'Consolas'" stroke="none" font-weight="bold" xml:space="preserve">Cell</text>
    </g>
    <g fill="rgb(102,204,255)" text-rendering="geometricPrecision" shape-rendering="geometricPrecision" transform="matrix(1,0,0,1,-21,-48)" stroke="rgb(102,204,255)">
      <path d="M373 278 L433 278 L433 318 L373 318 Z" clip-path="url(#clipPath2)" stroke="none"/>
    </g>
    <g text-rendering="geometricPrecision" stroke-miterlimit="1.45" shape-rendering="geometricPrecision" transform="matrix(1,0,0,1,-21,-48)" stroke-linecap="butt">
      <path fill="none" d="M373 278 L433 278 L433 318 L373 318 Z" clip-path="url(#clipPath2)"/>
      <text x="389.8047" y="301.9375" clip-path="url(#clipPath2)" font-family="'Consolas'" stroke="none" font-weight="bold" xml:space="preserve">Cell</text>
    </g>
    <g text-rendering="geometricPrecision" stroke-miterlimit="1.45" shape-rendering="geometricPrecision" transform="matrix(1,0,0,1,-21,-48)" stroke-linecap="butt">
      <path fill="none" d="M169.5 173.0317 L169.5 200.0042" clip-path="url(#clipPath2)"/>
      <path d="M169.5 208.0042 L174.5 196.0042 L169.5 199.0042 L164.5 196.0042 Z" clip-path="url(#clipPath2)" stroke="none"/>
      <path fill="none" d="M365.5 102.9951 L365.5 125.0273" clip-path="url(#clipPath2)"/>
      <path d="M365.5 133.0273 L370.5 121.0273 L365.5 124.0273 L360.5 121.0273 Z" clip-path="url(#clipPath2)" stroke="none"/>
      <path fill="none" d="M365.5 247.9951 L365.5 270.0273" clip-path="url(#clipPath2)"/>
      <path d="M365.5 278.0273 L370.5 266.0273 L365.5 269.0273 L360.5 266.0273 Z" clip-path="url(#clipPath2)" stroke="none"/>
      <path fill="none" d="M163 318.0303 L163 357.0273" clip-path="url(#clipPath2)"/>
      <path d="M163 365.0273 L168 353.0273 L163 356.0273 L158 353.0273 Z" clip-path="url(#clipPath2)" stroke="none"/>
    </g>
  </g>
</svg>
