<?xml version="1.0" encoding="UTF-8"?><svg xmlns="http://www.w3.org/2000/svg" xmlns:xlink="http://www.w3.org/1999/xlink" fill-opacity="1" color-rendering="auto" color-interpolation="auto" stroke="black" text-rendering="auto" stroke-linecap="square" width="451" stroke-miterlimit="10" stroke-opacity="1" shape-rendering="auto" fill="black" stroke-dasharray="none" font-weight="normal" stroke-width="1" height="185" font-family="'Dialog'" font-style="normal" stroke-linejoin="miter" font-size="12" stroke-dashoffset="0" image-rendering="auto">
  <!--Generated by ySVG 2.5-->
  <defs id="genericDefs"/>
  <g>
    <defs id="defs1">
      <clipPath clipPathUnits="userSpaceOnUse" id="clipPath1">
        <path d="M0 0 L451 0 L451 185 L0 185 L0 0 Z"/>
      </clipPath>
      <clipPath clipPathUnits="userSpaceOnUse" id="clipPath2">
        <path d="M203 96 L654 96 L654 281 L203 281 L203 96 Z"/>
      </clipPath>
    </defs>
    <g fill="white" text-rendering="geometricPrecision" shape-rendering="geometricPrecision" transform="translate(-203,-96)" stroke="white">
      <rect x="203" width="451" height="185" y="96" clip-path="url(#clipPath2)" stroke="none"/>
    </g>
    <g text-rendering="geometricPrecision" stroke-miterlimit="1.45" shape-rendering="geometricPrecision" transform="matrix(1,0,0,1,-203,-96)" stroke-linecap="butt">
      <path fill="none" d="M218.8333 111.5 L253.8333 111.5 L253.8333 151.5 L218.8333 151.5 Z" clip-path="url(#clipPath2)"/>
      <text x="223.138" y="135.4375" clip-path="url(#clipPath2)" font-family="'Consolas'" stroke="none" font-weight="bold" xml:space="preserve">hash</text>
    </g>
    <g text-rendering="geometricPrecision" stroke-miterlimit="1.45" shape-rendering="geometricPrecision" transform="matrix(1,0,0,1,-203,-96)" stroke-linecap="butt">
      <path fill="none" d="M253.8333 111.5 L288.8333 111.5 L288.8333 151.5 L253.8333 151.5 Z" clip-path="url(#clipPath2)"/>
      <text x="258.138" y="135.4375" clip-path="url(#clipPath2)" font-family="'Consolas'" stroke="none" font-weight="bold" xml:space="preserve">hash</text>
    </g>
    <g text-rendering="geometricPrecision" stroke-miterlimit="1.45" shape-rendering="geometricPrecision" transform="matrix(1,0,0,1,-203,-96)" stroke-linecap="butt">
      <path fill="none" d="M288.8333 111.5 L323.8333 111.5 L323.8333 151.5 L288.8333 151.5 Z" clip-path="url(#clipPath2)"/>
      <text x="293.138" y="135.4375" clip-path="url(#clipPath2)" font-family="'Consolas'" stroke="none" font-weight="bold" xml:space="preserve">hash</text>
    </g>
    <g text-rendering="geometricPrecision" stroke-miterlimit="1.45" shape-rendering="geometricPrecision" transform="matrix(1,0,0,1,-203,-96)" stroke-linecap="butt">
      <path fill="none" d="M323.8333 111.5 L358.8333 111.5 L358.8333 151.5 L323.8333 151.5 Z" clip-path="url(#clipPath2)"/>
      <text x="328.138" y="135.4375" clip-path="url(#clipPath2)" font-family="'Consolas'" stroke="none" font-weight="bold" xml:space="preserve">hash</text>
    </g>
    <g text-rendering="geometricPrecision" stroke-miterlimit="1.45" shape-rendering="geometricPrecision" transform="matrix(1,0,0,1,-203,-96)" stroke-linecap="butt">
      <path fill="none" d="M358.8333 111.5 L393.8333 111.5 L393.8333 151.5 L358.8333 151.5 Z" clip-path="url(#clipPath2)"/>
      <text x="363.138" y="135.4375" clip-path="url(#clipPath2)" font-family="'Consolas'" stroke="none" font-weight="bold" xml:space="preserve">hash</text>
    </g>
    <g text-rendering="geometricPrecision" stroke-miterlimit="1.45" shape-rendering="geometricPrecision" transform="matrix(1,0,0,1,-203,-96)" stroke-linecap="butt">
      <path fill="none" d="M393.8333 111.5 L428.8333 111.5 L428.8333 151.5 L393.8333 151.5 Z" clip-path="url(#clipPath2)"/>
      <text x="398.138" y="135.4375" clip-path="url(#clipPath2)" font-family="'Consolas'" stroke="none" font-weight="bold" xml:space="preserve">hash</text>
    </g>
    <g text-rendering="geometricPrecision" stroke-miterlimit="1.45" shape-rendering="geometricPrecision" transform="matrix(1,0,0,1,-203,-96)" stroke-linecap="butt">
      <path fill="none" d="M428.8333 111.5 L463.8333 111.5 L463.8333 151.5 L428.8333 151.5 Z" clip-path="url(#clipPath2)"/>
      <text x="433.138" y="135.4375" clip-path="url(#clipPath2)" font-family="'Consolas'" stroke="none" font-weight="bold" xml:space="preserve">hash</text>
    </g>
    <g text-rendering="geometricPrecision" stroke-miterlimit="1.45" shape-rendering="geometricPrecision" transform="matrix(1,0,0,1,-203,-96)" stroke-linecap="butt">
      <path fill="none" d="M463.8333 111.5 L498.8333 111.5 L498.8333 151.5 L463.8333 151.5 Z" clip-path="url(#clipPath2)"/>
      <text x="468.138" y="135.4375" clip-path="url(#clipPath2)" font-family="'Consolas'" stroke="none" font-weight="bold" xml:space="preserve">hash</text>
    </g>
    <g text-rendering="geometricPrecision" stroke-miterlimit="1.45" shape-rendering="geometricPrecision" transform="matrix(1,0,0,1,-203,-96)" stroke-linecap="butt">
      <path fill="none" d="M498.8333 111.5 L533.8333 111.5 L533.8333 151.5 L498.8333 151.5 Z" clip-path="url(#clipPath2)"/>
      <text x="503.138" y="135.4375" clip-path="url(#clipPath2)" font-family="'Consolas'" stroke="none" font-weight="bold" xml:space="preserve">hash</text>
    </g>
    <g text-rendering="geometricPrecision" stroke-miterlimit="1.45" shape-rendering="geometricPrecision" transform="matrix(1,0,0,1,-203,-96)" stroke-linecap="butt">
      <path fill="none" d="M533.8333 111.5 L568.8333 111.5 L568.8333 151.5 L533.8333 151.5 Z" clip-path="url(#clipPath2)"/>
      <text x="538.138" y="135.4375" clip-path="url(#clipPath2)" font-family="'Consolas'" stroke="none" font-weight="bold" xml:space="preserve">hash</text>
    </g>
    <g text-rendering="geometricPrecision" stroke-miterlimit="1.45" shape-rendering="geometricPrecision" transform="matrix(1,0,0,1,-203,-96)" stroke-linecap="butt">
      <path fill="none" d="M568.8333 111.5 L603.8333 111.5 L603.8333 151.5 L568.8333 151.5 Z" clip-path="url(#clipPath2)"/>
      <text x="573.138" y="135.4375" clip-path="url(#clipPath2)" font-family="'Consolas'" stroke="none" font-weight="bold" xml:space="preserve">hash</text>
    </g>
    <g text-rendering="geometricPrecision" stroke-miterlimit="1.45" shape-rendering="geometricPrecision" transform="matrix(1,0,0,1,-203,-96)" stroke-linecap="butt">
      <path fill="none" d="M603.8333 111.5 L638.8333 111.5 L638.8333 151.5 L603.8333 151.5 Z" clip-path="url(#clipPath2)"/>
      <text x="608.138" y="135.4375" clip-path="url(#clipPath2)" font-family="'Consolas'" stroke="none" font-weight="bold" xml:space="preserve">hash</text>
    </g>
    <g text-rendering="geometricPrecision" stroke-miterlimit="1.45" shape-rendering="geometricPrecision" transform="matrix(1,0,0,1,-203,-96)" stroke-linecap="butt">
      <path fill="none" d="M568.8333 226 L638.8333 226 L638.8333 266 L568.8333 266 Z" clip-path="url(#clipPath2)"/>
      <text x="584.0403" y="243.9375" clip-path="url(#clipPath2)" font-family="'Consolas'" stroke="none" font-weight="bold" xml:space="preserve">Server</text>
      <text x="597.2357" y="255.9375" clip-path="url(#clipPath2)" font-family="'Consolas'" stroke="none" font-weight="bold" xml:space="preserve">IV</text>
    </g>
    <g text-rendering="geometricPrecision" stroke-miterlimit="1.45" shape-rendering="geometricPrecision" transform="matrix(1,0,0,1,-203,-96)" stroke-linecap="butt">
      <path fill="none" d="M498.8333 226 L568.8333 226 L568.8333 266 L498.8333 266 Z" clip-path="url(#clipPath2)"/>
      <text x="514.0403" y="243.9375" clip-path="url(#clipPath2)" font-family="'Consolas'" stroke="none" font-weight="bold" xml:space="preserve">Client</text>
      <text x="527.2357" y="255.9375" clip-path="url(#clipPath2)" font-family="'Consolas'" stroke="none" font-weight="bold" xml:space="preserve">IV</text>
    </g>
    <g text-rendering="geometricPrecision" stroke-miterlimit="1.45" shape-rendering="geometricPrecision" transform="matrix(1,0,0,1,-203,-96)" stroke-linecap="butt">
      <path fill="none" d="M428.8333 226 L498.8333 226 L498.8333 266 L428.8333 266 Z" clip-path="url(#clipPath2)"/>
      <text x="444.0404" y="243.9375" clip-path="url(#clipPath2)" font-family="'Consolas'" stroke="none" font-weight="bold" xml:space="preserve">Server</text>
      <text x="444.0404" y="255.9375" clip-path="url(#clipPath2)" font-family="'Consolas'" stroke="none" font-weight="bold" xml:space="preserve">Cipher</text>
    </g>
    <g text-rendering="geometricPrecision" stroke-miterlimit="1.45" shape-rendering="geometricPrecision" transform="matrix(1,0,0,1,-203,-96)" stroke-linecap="butt">
      <path fill="none" d="M358.8333 226 L428.8333 226 L428.8333 266 L358.8333 266 Z" clip-path="url(#clipPath2)"/>
      <text x="374.0404" y="243.9375" clip-path="url(#clipPath2)" font-family="'Consolas'" stroke="none" font-weight="bold" xml:space="preserve">Client</text>
      <text x="374.0404" y="255.9375" clip-path="url(#clipPath2)" font-family="'Consolas'" stroke="none" font-weight="bold" xml:space="preserve">Cipher</text>
    </g>
    <g text-rendering="geometricPrecision" stroke-miterlimit="1.45" shape-rendering="geometricPrecision" transform="matrix(1,0,0,1,-203,-96)" stroke-linecap="butt">
      <path fill="none" d="M288.8333 226 L358.8333 226 L358.8333 266 L288.8333 266 Z" clip-path="url(#clipPath2)"/>
      <text x="304.0404" y="243.9375" clip-path="url(#clipPath2)" font-family="'Consolas'" stroke="none" font-weight="bold" xml:space="preserve">Server</text>
      <text x="313.9369" y="255.9375" clip-path="url(#clipPath2)" font-family="'Consolas'" stroke="none" font-weight="bold" xml:space="preserve">MAC</text>
    </g>
    <g text-rendering="geometricPrecision" stroke-miterlimit="1.45" shape-rendering="geometricPrecision" transform="matrix(1,0,0,1,-203,-96)" stroke-linecap="butt">
      <path fill="none" d="M218.8333 226 L288.8333 226 L288.8333 266 L218.8333 266 Z" clip-path="url(#clipPath2)"/>
      <text x="234.0404" y="243.9375" clip-path="url(#clipPath2)" font-family="'Consolas'" stroke="none" font-weight="bold" xml:space="preserve">Client</text>
      <text x="243.9368" y="255.9375" clip-path="url(#clipPath2)" font-family="'Consolas'" stroke="none" font-weight="bold" xml:space="preserve">MAC</text>
    </g>
    <g text-rendering="geometricPrecision" stroke-miterlimit="1.45" shape-rendering="geometricPrecision" transform="matrix(1,0,0,1,-203,-96)" stroke-linecap="butt">
      <path fill="none" d="M586.3333 151.4609 L586.3333 171.5 L603.8333 171.5 L603.8333 218.0215" clip-path="url(#clipPath2)"/>
    </g>
    <g text-rendering="geometricPrecision" stroke-miterlimit="1.45" shape-rendering="geometricPrecision" transform="matrix(1,0,0,1,-203,-96)" stroke-linecap="butt">
      <path d="M603.8333 226.0215 L608.8333 214.0215 L603.8333 217.0215 L598.8333 214.0215 Z" clip-path="url(#clipPath2)" stroke="none"/>
      <path fill="none" d="M621.3333 151.4609 L621.3333 171.5 L603.8333 171.5 L603.8333 218.0248" clip-path="url(#clipPath2)"/>
      <path d="M603.8333 226.0248 L608.8333 214.0248 L603.8333 217.0248 L598.8333 214.0248 Z" clip-path="url(#clipPath2)" stroke="none"/>
      <path fill="none" d="M516.3333 151.4609 L516.3333 171.5 L533.8333 171.5 L533.8333 218.0248" clip-path="url(#clipPath2)"/>
      <path d="M533.8333 226.0248 L538.8333 214.0248 L533.8333 217.0248 L528.8333 214.0248 Z" clip-path="url(#clipPath2)" stroke="none"/>
      <path fill="none" d="M551.3333 151.4609 L551.3333 171.5 L533.8333 171.5 L533.8333 201.625 L533.8333 201.625 L533.8333 218.0133" clip-path="url(#clipPath2)"/>
      <path d="M533.8333 226.0133 L538.8333 214.0133 L533.8333 217.0133 L528.8333 214.0133 Z" clip-path="url(#clipPath2)" stroke="none"/>
      <path fill="none" d="M443.8333 151.4609 L443.8333 171.5 L463.8333 171.5 L463.8333 218.0133" clip-path="url(#clipPath2)"/>
      <path d="M463.8333 226.0133 L468.8333 214.0133 L463.8333 217.0133 L458.8333 214.0133 Z" clip-path="url(#clipPath2)" stroke="none"/>
      <path fill="none" d="M490.3333 151.4609 L490.3333 171.5 L463.8333 171.5 L463.8333 218.0176" clip-path="url(#clipPath2)"/>
      <path d="M463.8333 226.0176 L468.8333 214.0176 L463.8333 217.0176 L458.8333 214.0176 Z" clip-path="url(#clipPath2)" stroke="none"/>
      <path fill="none" d="M376.3333 151.4609 L376.3333 171.5 L393.8333 171.5 L393.8333 218.0248" clip-path="url(#clipPath2)"/>
      <path d="M393.8333 226.0248 L398.8333 214.0248 L393.8333 217.0248 L388.8333 214.0248 Z" clip-path="url(#clipPath2)" stroke="none"/>
      <path fill="none" d="M428.8333 151.4609 L428.8333 151.5 L411.3333 151.5 L411.3333 171.5 L393.8333 171.5 L393.8333 218.0176" clip-path="url(#clipPath2)"/>
      <path d="M393.8333 226.0176 L398.8333 214.0176 L393.8333 217.0176 L388.8333 214.0176 Z" clip-path="url(#clipPath2)" stroke="none"/>
      <path fill="none" d="M306.3333 151.4609 L306.3333 171.5 L323.8333 171.5 L323.8333 218.0291" clip-path="url(#clipPath2)"/>
      <path d="M323.8333 226.0291 L328.8333 214.0291 L323.8333 217.0291 L318.8333 214.0291 Z" clip-path="url(#clipPath2)" stroke="none"/>
      <path fill="none" d="M343.8333 151.4609 L343.8333 171.5 L323.8333 171.5 L323.8333 218.0291" clip-path="url(#clipPath2)"/>
      <path d="M323.8333 226.0291 L328.8333 214.0291 L323.8333 217.0291 L318.8333 214.0291 Z" clip-path="url(#clipPath2)" stroke="none"/>
      <path fill="none" d="M273.8333 151.4973 L273.8333 174.25 L253.8333 174.25 L253.8333 217.9955" clip-path="url(#clipPath2)"/>
      <path d="M253.8333 225.9955 L258.8333 213.9955 L253.8333 216.9955 L248.8333 213.9955 Z" clip-path="url(#clipPath2)" stroke="none"/>
      <path fill="none" d="M233.8333 151.4973 L233.8333 174.25 L253.8333 174.25 L253.8333 217.9955" clip-path="url(#clipPath2)"/>
      <path d="M253.8333 225.9955 L258.8333 213.9955 L253.8333 216.9955 L248.8333 213.9955 Z" clip-path="url(#clipPath2)" stroke="none"/>
    </g>
  </g>
</svg>
