<?xml version="1.0" encoding="UTF-8"?><svg xmlns="http://www.w3.org/2000/svg" xmlns:xlink="http://www.w3.org/1999/xlink" fill-opacity="1" color-rendering="auto" color-interpolation="auto" stroke="black" text-rendering="auto" stroke-linecap="square" width="415" stroke-miterlimit="10" stroke-opacity="1" shape-rendering="auto" fill="black" stroke-dasharray="none" font-weight="normal" stroke-width="1" height="450" font-family="'Dialog'" font-style="normal" stroke-linejoin="miter" font-size="12" stroke-dashoffset="0" image-rendering="auto">
  <!--Generated by ySVG 2.5-->
  <defs id="genericDefs"/>
  <g>
    <defs id="defs1">
      <clipPath clipPathUnits="userSpaceOnUse" id="clipPath1">
        <path d="M0 0 L415 0 L415 450 L0 450 L0 0 Z"/>
      </clipPath>
      <clipPath clipPathUnits="userSpaceOnUse" id="clipPath2">
        <path d="M327 91 L742 91 L742 541 L327 541 L327 91 Z"/>
      </clipPath>
      <clipPath clipPathUnits="userSpaceOnUse" id="clipPath3">
        <path d="M-189.4164 349.3 L-189.4164 -65.7 L260.5836 -65.7 L260.5836 349.3 L-189.4164 349.3 Z"/>
      </clipPath>
    </defs>
    <g fill="white" text-rendering="geometricPrecision" shape-rendering="geometricPrecision" transform="translate(-327,-91)" stroke="white">
      <rect x="327" width="415" height="450" y="91" clip-path="url(#clipPath2)" stroke="none"/>
    </g>
    <g text-rendering="geometricPrecision" stroke-dasharray="6,2" stroke-miterlimit="1.45" shape-rendering="geometricPrecision" transform="matrix(1,0,0,1,-327,-91)" stroke-linecap="butt">
      <path fill="none" d="M424 236 L649.8 236 L649.8 440 L424 440 Z" clip-path="url(#clipPath2)"/>
    </g>
    <g text-rendering="geometricPrecision" stroke-miterlimit="1.45" shape-rendering="geometricPrecision" transform="matrix(1,0,0,1,-327,-91)" stroke-linecap="butt">
      <path fill="none" d="M424 236 L541 236 L541 270 L424 270 Z" clip-path="url(#clipPath2)"/>
      <text x="479.2012" y="255.9121" clip-path="url(#clipPath2)" font-family="'Consolas'" stroke="none" font-weight="bold" xml:space="preserve">b</text>
    </g>
    <g text-rendering="geometricPrecision" stroke-miterlimit="1.45" shape-rendering="geometricPrecision" transform="matrix(1,0,0,1,-327,-91)" stroke-linecap="butt">
      <path fill="none" d="M424 270 L541 270 L541 304 L424 304 Z" clip-path="url(#clipPath2)"/>
      <text x="479.2012" xml:space="preserve" y="289.9121" font-family="'Consolas'" clip-path="url(#clipPath2)" stroke="none">a</text>
    </g>
    <g text-rendering="geometricPrecision" stroke-miterlimit="1.45" shape-rendering="geometricPrecision" transform="matrix(1,0,0,1,-327,-91)" stroke-linecap="butt">
      <path fill="none" d="M424 304 L541 304 L541 338 L424 338 Z" clip-path="url(#clipPath2)"/>
    </g>
    <g text-rendering="geometricPrecision" stroke-miterlimit="1.45" shape-rendering="geometricPrecision" transform="matrix(1,0,0,1,-327,-91)" stroke-linecap="butt">
      <path fill="none" d="M424 338 L541 338 L541 372 L424 372 Z" clip-path="url(#clipPath2)"/>
      <text x="479.2012" xml:space="preserve" y="357.9121" font-family="'Consolas'" clip-path="url(#clipPath2)" stroke="none">b</text>
    </g>
    <g text-rendering="geometricPrecision" stroke-miterlimit="1.45" shape-rendering="geometricPrecision" transform="matrix(1,0,0,1,-327,-91)" stroke-linecap="butt">
      <path fill="none" d="M424 372 L541 372 L541 406 L424 406 Z" clip-path="url(#clipPath2)"/>
      <text x="479.2012" xml:space="preserve" y="391.9121" font-family="'Consolas'" clip-path="url(#clipPath2)" stroke="none">a</text>
    </g>
    <g text-rendering="geometricPrecision" stroke-miterlimit="1.45" shape-rendering="geometricPrecision" transform="matrix(1,0,0,1,-327,-91)" stroke-linecap="butt">
      <path fill="none" d="M424 406 L541 406 L541 440 L424 440 Z" clip-path="url(#clipPath2)"/>
      <text x="472.6035" xml:space="preserve" y="425.9121" font-family="'Consolas'" clip-path="url(#clipPath2)" stroke="none">eip</text>
    </g>
    <g text-rendering="geometricPrecision" stroke-miterlimit="1.45" shape-rendering="geometricPrecision" transform="matrix(1,0,0,1,-327,-91)" stroke-linecap="butt">
      <path fill="none" d="M424 202 L541 202 L541 236 L424 236 Z" clip-path="url(#clipPath2)"/>
    </g>
    <g text-rendering="geometricPrecision" stroke-miterlimit="1.45" shape-rendering="geometricPrecision" font-family="'Consolas'" transform="matrix(1,0,0,1,-327,-91)" stroke-linecap="butt">
      <text x="582.0035" xml:space="preserve" y="256.3121" clip-path="url(#clipPath2)" stroke="none">EBP</text>
    </g>
    <g text-rendering="geometricPrecision" stroke-miterlimit="1.45" shape-rendering="geometricPrecision" font-family="'Consolas'" transform="matrix(1,0,0,1,-327,-91)" stroke-linecap="butt">
      <text x="577.2035" xml:space="preserve" y="425.9121" clip-path="url(#clipPath2)" stroke="none">ESP</text>
    </g>
    <g text-rendering="geometricPrecision" stroke-miterlimit="1.45" shape-rendering="geometricPrecision" transform="matrix(1,0,0,1,-327,-91)" stroke-linecap="butt">
      <path fill="none" d="M424 140.8 L541 140.8 L541 202 L424 202 Z" clip-path="url(#clipPath2)"/>
      <text x="472.6035" xml:space="preserve" y="174.3121" font-family="'Consolas'" clip-path="url(#clipPath2)" stroke="none">...</text>
    </g>
    <g text-rendering="geometricPrecision" stroke-miterlimit="1.45" shape-rendering="geometricPrecision" font-family="'Consolas'" transform="matrix(1,0,0,1,-327,-91)" stroke-linecap="butt">
      <text x="446.2129" xml:space="preserve" y="126.7121" clip-path="url(#clipPath2)" stroke="none">0xC00000000</text>
    </g>
    <g text-rendering="geometricPrecision" stroke-miterlimit="1.45" shape-rendering="geometricPrecision" font-family="'Consolas'" transform="matrix(1,0,0,1,-327,-91)" stroke-linecap="butt">
      <text x="439.3729" xml:space="preserve" y="511.8321" clip-path="url(#clipPath2)" stroke="none">0x000000000</text>
    </g>
    <g text-rendering="geometricPrecision" stroke-miterlimit="1.45" shape-rendering="geometricPrecision" transform="matrix(1,0,0,1,-327,-91)" stroke-linecap="butt">
      <path fill="none" d="M424 440 L541 440 L541 491.92 L424 491.92 Z" clip-path="url(#clipPath2)"/>
      <text x="472.6035" xml:space="preserve" y="468.8721" font-family="'Consolas'" clip-path="url(#clipPath2)" stroke="none">...</text>
    </g>
    <g text-rendering="geometricPrecision" stroke-miterlimit="1.45" shape-rendering="geometricPrecision" font-family="'Consolas'" transform="matrix(0,1,-1,0,349.3,189.4164)" stroke-linecap="butt">
      <text x="2" xml:space="preserve" y="10.9121" clip-path="url(#clipPath3)" stroke="none">Stack for main</text>
    </g>
    <g text-rendering="geometricPrecision" stroke-miterlimit="1.45" shape-rendering="geometricPrecision" transform="matrix(1,0,0,1,-327,-91)" stroke-linecap="butt">
      <path fill="none" d="M580.627 253.3113 L541.0475 253 L541.0475 253 L541.0475 253 L541.019 253" clip-path="url(#clipPath2)"/>
    </g>
    <g text-rendering="geometricPrecision" stroke-miterlimit="1.45" shape-rendering="geometricPrecision" transform="matrix(1,0,0,1,-327,-91)" stroke-linecap="butt">
      <path d="M541.019 253 L553.019 258 L550.019 253 L553.019 248 Z" clip-path="url(#clipPath2)" stroke="none"/>
      <path fill="none" d="M575.787 423 L549.0322 423" clip-path="url(#clipPath2)"/>
      <path d="M541.0322 423 L553.0322 428 L550.0322 423 L553.0322 418 Z" clip-path="url(#clipPath2)" stroke="none"/>
      <path fill="none" d="M357.8482 491.92 L357.8482 287 L357.8482 148.8" clip-path="url(#clipPath2)"/>
      <path d="M357.8482 140.8 L352.8482 152.8 L357.8482 149.8 L362.8482 152.8 Z" clip-path="url(#clipPath2)" stroke="none"/>
    </g>
  </g>
</svg>
