<?xml version="1.0" encoding="UTF-8"?><svg xmlns="http://www.w3.org/2000/svg" xmlns:xlink="http://www.w3.org/1999/xlink" fill-opacity="1" color-rendering="auto" color-interpolation="auto" stroke="black" text-rendering="auto" stroke-linecap="square" width="556" stroke-miterlimit="10" stroke-opacity="1" shape-rendering="auto" fill="black" stroke-dasharray="none" font-weight="normal" stroke-width="1" height="696" font-family="'Dialog'" font-style="normal" stroke-linejoin="miter" font-size="12" stroke-dashoffset="0" image-rendering="auto">
  <!--Generated by ySVG 2.5-->
  <defs id="genericDefs"/>
  <g>
    <defs id="defs1">
      <clipPath clipPathUnits="userSpaceOnUse" id="clipPath1">
        <path d="M0 0 L556 0 L556 696 L0 696 L0 0 Z"/>
      </clipPath>
      <clipPath clipPathUnits="userSpaceOnUse" id="clipPath2">
        <path d="M222 125 L778 125 L778 821 L222 821 L222 125 Z"/>
      </clipPath>
    </defs>
    <g fill="white" text-rendering="geometricPrecision" shape-rendering="geometricPrecision" transform="translate(-222,-125)" stroke="white">
      <rect x="222" width="556" height="696" y="125" clip-path="url(#clipPath2)" stroke="none"/>
    </g>
    <g text-rendering="geometricPrecision" stroke-miterlimit="1.45" shape-rendering="geometricPrecision" transform="matrix(1,0,0,1,-222,-125)" stroke-linecap="butt">
      <path fill="none" d="M237 210 L627 210 L627 250 L237 250 Z" clip-path="url(#clipPath2)"/>
    </g>
    <g text-rendering="geometricPrecision" stroke-miterlimit="1.45" shape-rendering="geometricPrecision" transform="matrix(1,0,0,1,-222,-125)" stroke-linecap="butt">
      <path fill="none" d="M237 156 L627 156 L627 210 L237 210 Z" clip-path="url(#clipPath2)"/>
      <text x="408.9082" font-size="14" y="186.3975" clip-path="url(#clipPath2)" font-family="'Consolas'" stroke="none" xml:space="preserve">Kernel</text>
    </g>
    <g text-rendering="geometricPrecision" stroke-miterlimit="1.45" shape-rendering="geometricPrecision" font-family="sans-serif" transform="matrix(1,0,0,1,-222,-125)" stroke-linecap="butt">
      <text x="679.292" xml:space="preserve" y="159.5352" clip-path="url(#clipPath2)" stroke="none">0xFFFFFFFF</text>
    </g>
    <g text-rendering="geometricPrecision" stroke-miterlimit="1.45" shape-rendering="geometricPrecision" transform="matrix(1,0,0,1,-222,-125)" stroke-linecap="butt">
      <path fill="none" d="M237 456 L627 456 L627 542 L237 542 Z" clip-path="url(#clipPath2)"/>
    </g>
    <g text-rendering="geometricPrecision" stroke-miterlimit="1.45" shape-rendering="geometricPrecision" font-family="sans-serif" transform="matrix(1,0,0,1,-222,-125)" stroke-linecap="butt">
      <text x="678.8174" xml:space="preserve" y="212.5352" clip-path="url(#clipPath2)" stroke="none">0xC0000000</text>
    </g>
    <g text-rendering="geometricPrecision" stroke-miterlimit="1.45" shape-rendering="geometricPrecision" transform="matrix(1,0,0,1,-222,-125)" stroke-linecap="butt">
      <path fill="none" d="M237 250 L627 250 L627 290 L237 290 Z" clip-path="url(#clipPath2)"/>
      <text x="412.7568" font-size="14" y="273.3975" clip-path="url(#clipPath2)" font-family="'Consolas'" stroke="none" xml:space="preserve">Stack</text>
    </g>
    <g text-rendering="geometricPrecision" stroke-miterlimit="1.45" shape-rendering="geometricPrecision" transform="matrix(1,0,0,1,-222,-125)" stroke-linecap="butt">
      <path fill="none" d="M237 290 L627 290 L627 393 L237 393 Z" clip-path="url(#clipPath2)"/>
    </g>
    <g text-rendering="geometricPrecision" stroke-miterlimit="1.45" shape-rendering="geometricPrecision" transform="matrix(1,0,0,1,-222,-125)" stroke-linecap="butt">
      <path fill="none" d="M237 393 L627 393 L627 456 L237 456 Z" clip-path="url(#clipPath2)"/>
      <text x="416.6055" font-size="14" y="406.8975" clip-path="url(#clipPath2)" font-family="'Consolas'" stroke="none" xml:space="preserve">mmap</text>
      <text x="254.9629" font-size="14" y="420.8975" clip-path="url(#clipPath2)" font-family="'Consolas'" stroke="none" xml:space="preserve">File mapings(including dynamic libraries) and </text>
      <text x="366.5732" font-size="14" y="434.8975" clip-path="url(#clipPath2)" font-family="'Consolas'" stroke="none" xml:space="preserve">anonymous mapings</text>
      <text x="370.4219" font-size="14" y="448.8975" clip-path="url(#clipPath2)" font-family="'Consolas'" stroke="none" xml:space="preserve">Example: libc.so</text>
    </g>
    <g text-rendering="geometricPrecision" stroke-miterlimit="1.45" shape-rendering="geometricPrecision" transform="matrix(1,0,0,1,-222,-125)" stroke-linecap="butt">
      <path fill="none" d="M237 542 L627 542 L627 600 L237 600 Z" clip-path="url(#clipPath2)"/>
      <text x="416.6055" font-size="14" y="574.3975" clip-path="url(#clipPath2)" font-family="'Consolas'" stroke="none" xml:space="preserve">Heap</text>
    </g>
    <g text-rendering="geometricPrecision" stroke-miterlimit="1.45" shape-rendering="geometricPrecision" transform="matrix(1,0,0,1,-222,-125)" stroke-linecap="butt">
      <path fill="none" d="M237 600 L627 600 L627 622 L237 622 Z" clip-path="url(#clipPath2)"/>
    </g>
    <g text-rendering="geometricPrecision" stroke-miterlimit="1.45" shape-rendering="geometricPrecision" transform="matrix(1,0,0,1,-222,-125)" stroke-linecap="butt">
      <path fill="none" d="M237 622 L627 622 L627 676 L237 676 Z" clip-path="url(#clipPath2)"/>
      <text x="389.665" font-size="14" y="638.3975" clip-path="url(#clipPath2)" font-family="'Consolas'" stroke="none" xml:space="preserve">BSS segment</text>
      <text x="254.9629" font-size="14" y="652.3975" clip-path="url(#clipPath2)" font-family="'Consolas'" stroke="none" xml:space="preserve">Uninitialized static variables, fill with zero</text>
      <text x="324.2383" font-size="14" y="666.3975" clip-path="url(#clipPath2)" font-family="'Consolas'" stroke="none" xml:space="preserve">Example: static char* hello;</text>
    </g>
    <g text-rendering="geometricPrecision" stroke-miterlimit="1.45" shape-rendering="geometricPrecision" transform="matrix(1,0,0,1,-222,-125)" stroke-linecap="butt">
      <path fill="none" d="M237 676 L627 676 L627 730 L237 730 Z" clip-path="url(#clipPath2)"/>
      <text x="385.8164" font-size="14" y="692.3975" clip-path="url(#clipPath2)" font-family="'Consolas'" stroke="none" xml:space="preserve">Data segment</text>
      <text x="262.6602" font-size="14" y="706.3975" clip-path="url(#clipPath2)" font-family="'Consolas'" stroke="none" xml:space="preserve">static variables, Initialized by programmer:</text>
      <text x="335.7842" font-size="14" y="720.3975" clip-path="url(#clipPath2)" font-family="'Consolas'" stroke="none" xml:space="preserve">stiatic char* hi = "Hi!" </text>
    </g>
    <g text-rendering="geometricPrecision" stroke-miterlimit="1.45" shape-rendering="geometricPrecision" transform="matrix(1,0,0,1,-222,-125)" stroke-linecap="butt">
      <path fill="none" d="M237 730 L627 730 L627 770 L237 770 Z" clip-path="url(#clipPath2)"/>
      <text x="362.7246" font-size="14" y="753.3975" clip-path="url(#clipPath2)" font-family="'Consolas'" stroke="none" xml:space="preserve">Text segment (ELF)</text>
    </g>
    <g text-rendering="geometricPrecision" stroke-miterlimit="1.45" shape-rendering="geometricPrecision" transform="matrix(1,0,0,1,-222,-125)" stroke-linecap="butt">
      <path fill="none" d="M237 770 L627 770 L627 792 L237 792 Z" clip-path="url(#clipPath2)"/>
    </g>
    <g text-rendering="geometricPrecision" stroke-miterlimit="1.45" shape-rendering="geometricPrecision" font-family="sans-serif" transform="matrix(1,0,0,1,-222,-125)" stroke-linecap="butt">
      <text x="679.1748" xml:space="preserve" y="795.5352" clip-path="url(#clipPath2)" stroke="none">0x00000000</text>
    </g>
    <g text-rendering="geometricPrecision" stroke-miterlimit="1.45" shape-rendering="geometricPrecision" transform="matrix(1,0,0,1,-222,-125)" stroke-linecap="butt">
      <path fill="none" d="M671 154.825 L637.4963 154.6837" clip-path="url(#clipPath2)"/>
      <path d="M629.4964 154.65 L641.4752 159.7006 L638.4963 154.6879 L641.5174 149.7006 Z" clip-path="url(#clipPath2)" stroke="none"/>
      <path fill="none" d="M671 208 L635.0182 208" clip-path="url(#clipPath2)"/>
      <path d="M627.0182 208 L639.0182 213 L636.0182 208 L639.0182 203 Z" clip-path="url(#clipPath2)" stroke="none"/>
      <path fill="none" d="M671 791 L635.0099 791" clip-path="url(#clipPath2)"/>
      <path d="M627.0099 791 L639.0099 796 L636.0099 791 L639.0099 786 Z" clip-path="url(#clipPath2)" stroke="none"/>
      <path fill="none" d="M432 289.9951 L432 312.0273" clip-path="url(#clipPath2)"/>
      <path d="M432 320.0273 L437 308.0273 L432 311.0273 L427 308.0273 Z" clip-path="url(#clipPath2)" stroke="none"/>
      <path fill="none" d="M432 455.9661 L432 475.9969" clip-path="url(#clipPath2)"/>
      <path d="M432 483.9969 L437 471.9969 L432 474.9969 L427 471.9969 Z" clip-path="url(#clipPath2)" stroke="none"/>
      <path fill="none" d="M432 541.9961 L432 521.9899" clip-path="url(#clipPath2)"/>
      <path d="M432 513.9899 L427 525.9899 L432 522.9899 L437 525.9899 Z" clip-path="url(#clipPath2)" stroke="none"/>
    </g>
  </g>
</svg>
