<?xml version="1.0" encoding="UTF-8"?><svg xmlns="http://www.w3.org/2000/svg" xmlns:xlink="http://www.w3.org/1999/xlink" fill-opacity="1" color-rendering="auto" color-interpolation="auto" stroke="black" text-rendering="auto" stroke-linecap="square" width="293" stroke-miterlimit="10" stroke-opacity="1" shape-rendering="auto" fill="black" stroke-dasharray="none" font-weight="normal" stroke-width="1" height="271" font-family="'Dialog'" font-style="normal" stroke-linejoin="miter" font-size="12" stroke-dashoffset="0" image-rendering="auto">
  <!--Generated by ySVG 2.5-->
  <defs id="genericDefs"/>
  <g>
    <defs id="defs1">
      <clipPath clipPathUnits="userSpaceOnUse" id="clipPath1">
        <path d="M0 0 L293 0 L293 271 L0 271 L0 0 Z"/>
      </clipPath>
      <clipPath clipPathUnits="userSpaceOnUse" id="clipPath2">
        <path d="M173 34 L466 34 L466 305 L173 305 L173 34 Z"/>
      </clipPath>
    </defs>
    <g fill="white" text-rendering="geometricPrecision" shape-rendering="geometricPrecision" transform="translate(-173,-34)" stroke="white">
      <rect x="173" width="293" height="271" y="34" clip-path="url(#clipPath2)" stroke="none"/>
    </g>
    <g fill="rgb(0,178,113)" text-rendering="geometricPrecision" shape-rendering="geometricPrecision" transform="matrix(1,0,0,1,-173,-34)" stroke="rgb(0,178,113)">
      <path d="M188 199 L354 199 L354 290 L188 290 Z" clip-path="url(#clipPath2)" stroke="none"/>
    </g>
    <g text-rendering="geometricPrecision" stroke-miterlimit="1.45" shape-rendering="geometricPrecision" transform="matrix(1,0,0,1,-173,-34)" stroke-linecap="butt">
      <path fill="none" d="M188 199 L354 199 L354 290 L188 290 Z" clip-path="url(#clipPath2)"/>
    </g>
    <g stroke-linecap="butt" transform="matrix(1,0,0,1,-173,-34)" fill="white" text-rendering="geometricPrecision" font-family="'Consolas'" shape-rendering="geometricPrecision" stroke="white" font-weight="bold" stroke-miterlimit="1.45">
      <text x="251.207" xml:space="preserve" y="248.4375" clip-path="url(#clipPath2)" stroke="none">WebKit</text>
    </g>
    <g fill="rgb(71,154,199)" text-rendering="geometricPrecision" shape-rendering="geometricPrecision" transform="matrix(1,0,0,1,-173,-34)" stroke="rgb(71,154,199)">
      <path d="M188 159 L451 159 L451 199 L188 199 Z" clip-path="url(#clipPath2)" stroke="none"/>
    </g>
    <g text-rendering="geometricPrecision" stroke-miterlimit="1.45" shape-rendering="geometricPrecision" transform="matrix(1,0,0,1,-173,-34)" stroke-linecap="butt">
      <path fill="none" d="M188 159 L451 159 L451 199 L188 199 Z" clip-path="url(#clipPath2)"/>
    </g>
    <g stroke-linecap="butt" transform="matrix(1,0,0,1,-173,-34)" fill="white" text-rendering="geometricPrecision" font-family="'Consolas'" shape-rendering="geometricPrecision" stroke="white" font-weight="bold" stroke-miterlimit="1.45">
      <text x="312.9023" xml:space="preserve" y="182.9375" clip-path="url(#clipPath2)" stroke="none">V8</text>
    </g>
    <g fill="rgb(29,29,29)" text-rendering="geometricPrecision" shape-rendering="geometricPrecision" transform="matrix(1,0,0,1,-173,-34)" stroke="rgb(29,29,29)">
      <path d="M354 199 L451 199 L451 290 L354 290 Z" clip-path="url(#clipPath2)" stroke="none"/>
    </g>
    <g text-rendering="geometricPrecision" stroke-miterlimit="1.45" shape-rendering="geometricPrecision" transform="matrix(1,0,0,1,-173,-34)" stroke-linecap="butt">
      <path fill="none" d="M354 199 L451 199 L451 290 L354 290 Z" clip-path="url(#clipPath2)"/>
    </g>
    <g stroke-linecap="butt" transform="matrix(1,0,0,1,-173,-34)" fill="rgb(128,189,1)" text-rendering="geometricPrecision" font-family="'Consolas'" shape-rendering="geometricPrecision" stroke="rgb(128,189,1)" font-weight="bold" stroke-miterlimit="1.45">
      <text x="382.707" xml:space="preserve" y="248.4375" clip-path="url(#clipPath2)" stroke="none">Nodejs</text>
    </g>
    <g fill="rgb(128,128,192)" text-rendering="geometricPrecision" shape-rendering="geometricPrecision" transform="matrix(1,0,0,1,-173,-34)" stroke="rgb(128,128,192)">
      <path d="M188 119 L451 119 L451 159 L188 159 Z" clip-path="url(#clipPath2)" stroke="none"/>
    </g>
    <g text-rendering="geometricPrecision" stroke-miterlimit="1.45" shape-rendering="geometricPrecision" transform="matrix(1,0,0,1,-173,-34)" stroke-linecap="butt">
      <path fill="none" d="M188 119 L451 119 L451 159 L188 159 Z" clip-path="url(#clipPath2)"/>
    </g>
    <g stroke-linecap="butt" transform="matrix(1,0,0,1,-173,-34)" fill="white" text-rendering="geometricPrecision" font-family="'Consolas'" shape-rendering="geometricPrecision" stroke="white" font-weight="bold" stroke-miterlimit="1.45">
      <text x="293.1094" xml:space="preserve" y="142.9375" clip-path="url(#clipPath2)" stroke="none">Bindings</text>
    </g>
    <g fill="rgb(241,74,41)" text-rendering="geometricPrecision" shape-rendering="geometricPrecision" transform="matrix(1,0,0,1,-173,-34)" stroke="rgb(241,74,41)">
      <path d="M188 49 L451 49 L451 89 L188 89 Z" clip-path="url(#clipPath2)" stroke="none"/>
    </g>
    <g text-rendering="geometricPrecision" stroke-miterlimit="1.45" shape-rendering="geometricPrecision" transform="matrix(1,0,0,1,-173,-34)" stroke-linecap="butt">
      <path fill="none" d="M188 49 L451 49 L451 89 L188 89 Z" clip-path="url(#clipPath2)"/>
    </g>
    <g stroke-linecap="butt" transform="matrix(1,0,0,1,-173,-34)" fill="white" text-rendering="geometricPrecision" font-family="'Consolas'" shape-rendering="geometricPrecision" stroke="white" font-weight="bold" stroke-miterlimit="1.45">
      <text x="270.0176" xml:space="preserve" y="72.9375" clip-path="url(#clipPath2)" stroke="none">HTML JavaScript</text>
    </g>
    <g text-rendering="geometricPrecision" stroke-miterlimit="1.45" shape-rendering="geometricPrecision" transform="matrix(1,0,0,1,-173,-34)" stroke-linecap="butt">
      <path fill="none" d="M319.5 88.9951 L319.5 111.0273" clip-path="url(#clipPath2)"/>
    </g>
    <g text-rendering="geometricPrecision" stroke-miterlimit="1.45" shape-rendering="geometricPrecision" transform="matrix(1,0,0,1,-173,-34)" stroke-linecap="butt">
      <path d="M319.5 119.0273 L324.5 107.0273 L319.5 110.0273 L314.5 107.0273 Z" clip-path="url(#clipPath2)" stroke="none"/>
    </g>
  </g>
</svg>
