<?xml version="1.0" encoding="UTF-8"?><svg xmlns="http://www.w3.org/2000/svg" xmlns:xlink="http://www.w3.org/1999/xlink" fill-opacity="1" color-rendering="auto" color-interpolation="auto" stroke="black" text-rendering="auto" stroke-linecap="square" width="288" stroke-miterlimit="10" stroke-opacity="1" shape-rendering="auto" fill="black" stroke-dasharray="none" font-weight="normal" stroke-width="1" height="429" font-family="'Dialog'" font-style="normal" stroke-linejoin="miter" font-size="12" stroke-dashoffset="0" image-rendering="auto">
  <!--Generated by ySVG 2.5-->
  <defs id="genericDefs"/>
  <g>
    <defs id="defs1">
      <clipPath clipPathUnits="userSpaceOnUse" id="clipPath1">
        <path d="M0 0 L288 0 L288 429 L0 429 L0 0 Z"/>
      </clipPath>
      <clipPath clipPathUnits="userSpaceOnUse" id="clipPath2">
        <path d="M242 12 L530 12 L530 441 L242 441 L242 12 Z"/>
      </clipPath>
    </defs>
    <g fill="white" text-rendering="geometricPrecision" shape-rendering="geometricPrecision" transform="translate(-242,-12)" stroke="white">
      <rect x="242" width="288" height="429" y="12" clip-path="url(#clipPath2)" stroke="none"/>
    </g>
    <g fill="rgb(102,153,204)" text-rendering="geometricPrecision" shape-rendering="geometricPrecision" transform="matrix(1,0,0,1,-242,-12)" stroke="rgb(102,153,204)">
      <path d="M397 385.8125 L500 385.8125 L500 425.8125 L397 425.8125 Z" clip-path="url(#clipPath2)" stroke="none"/>
    </g>
    <g text-rendering="geometricPrecision" stroke-miterlimit="1.45" shape-rendering="geometricPrecision" transform="matrix(1,0,0,1,-242,-12)" stroke-linecap="butt">
      <path fill="none" d="M397 385.8125 L500 385.8125 L500 425.8125 L397 425.8125 Z" clip-path="url(#clipPath2)"/>
    </g>
    <g stroke-linecap="butt" transform="matrix(1,0,0,1,-242,-12)" fill="white" text-rendering="geometricPrecision" font-family="'Consolas'" shape-rendering="geometricPrecision" stroke="white" font-weight="bold" stroke-miterlimit="1.45">
      <text x="425.4082" xml:space="preserve" y="409.75" clip-path="url(#clipPath2)" stroke="none">Chomium</text>
    </g>
    <g fill="rgb(241,250,250)" text-rendering="geometricPrecision" shape-rendering="geometricPrecision" transform="matrix(1,0,0,1,-242,-12)" stroke="rgb(241,250,250)">
      <path d="M257 27 L515 27 L515 278 L257 278 Z" clip-path="url(#clipPath2)" stroke="none"/>
    </g>
    <g text-rendering="geometricPrecision" stroke-miterlimit="1.45" shape-rendering="geometricPrecision" transform="matrix(1,0,0,1,-242,-12)" stroke-linecap="butt">
      <path fill="none" d="M257 27 L515 27 L515 278 L257 278 Z" clip-path="url(#clipPath2)"/>
    </g>
    <g text-rendering="geometricPrecision" stroke-miterlimit="1.45" shape-rendering="geometricPrecision" transform="matrix(1,0,0,1,-242,-12)" stroke-linecap="butt">
      <circle fill="none" r="32.5" clip-path="url(#clipPath2)" cx="386" cy="266.5"/>
      <text x="372.8047" y="270.4375" clip-path="url(#clipPath2)" font-family="'Consolas'" stroke="none" font-weight="bold" xml:space="preserve">Wait</text>
    </g>
    <g text-rendering="geometricPrecision" stroke-miterlimit="1.45" shape-rendering="geometricPrecision" transform="matrix(1,0,0,1,-242,-12)" stroke-linecap="butt">
      <path fill="none" d="M346 74 L426 74 L426 114 L346 114 Z" clip-path="url(#clipPath2)"/>
      <text x="366.207" y="97.9375" clip-path="url(#clipPath2)" font-family="'Consolas'" stroke="none" font-weight="bold" xml:space="preserve">doWork</text>
    </g>
    <g fill="rgb(48,48,48)" text-rendering="geometricPrecision" shape-rendering="geometricPrecision" transform="matrix(1,0,0,1,-242,-12)" stroke="rgb(48,48,48)">
      <path d="M280.5 385.8125 L360.5 385.8125 L360.5 425.8125 L280.5 425.8125 Z" clip-path="url(#clipPath2)" stroke="none"/>
    </g>
    <g text-rendering="geometricPrecision" stroke-miterlimit="1.45" shape-rendering="geometricPrecision" transform="matrix(1,0,0,1,-242,-12)" stroke-linecap="butt">
      <path fill="none" d="M280.5 385.8125 L360.5 385.8125 L360.5 425.8125 L280.5 425.8125 Z" clip-path="url(#clipPath2)"/>
    </g>
    <g stroke-linecap="butt" transform="matrix(1,0,0,1,-242,-12)" fill="rgb(128,189,1)" text-rendering="geometricPrecision" font-family="'Consolas'" shape-rendering="geometricPrecision" stroke="rgb(128,189,1)" font-weight="bold" stroke-miterlimit="1.45">
      <text x="300.707" xml:space="preserve" y="409.75" clip-path="url(#clipPath2)" stroke="none">Nodejs</text>
    </g>
    <g fill="rgb(102,153,204)" text-rendering="geometricPrecision" shape-rendering="geometricPrecision" transform="matrix(1,0,0,1,-242,-12)" stroke="rgb(102,153,204)">
      <path d="M397 315.8125 L500 315.8125 L500 355.8125 L397 355.8125 Z" clip-path="url(#clipPath2)" stroke="none"/>
    </g>
    <g text-rendering="geometricPrecision" stroke-miterlimit="1.45" shape-rendering="geometricPrecision" transform="matrix(1,0,0,1,-242,-12)" stroke-linecap="butt">
      <path fill="none" d="M397 315.8125 L500 315.8125 L500 355.8125 L397 355.8125 Z" clip-path="url(#clipPath2)"/>
    </g>
    <g stroke-linecap="butt" transform="matrix(1,0,0,1,-242,-12)" fill="white" text-rendering="geometricPrecision" font-family="'Consolas'" shape-rendering="geometricPrecision" stroke="white" font-weight="bold" stroke-miterlimit="1.45">
      <text x="408.9141" xml:space="preserve" y="339.75" clip-path="url(#clipPath2)" stroke="none">ScheduleWork</text>
    </g>
    <g stroke-linecap="butt" transform="matrix(1,0,0,1,-242,-12)" text-rendering="geometricPrecision" font-family="'Consolas'" shape-rendering="geometricPrecision" font-weight="bold" stroke-miterlimit="1.45">
      <text x="275.9141" xml:space="preserve" y="45.4375" clip-path="url(#clipPath2)" stroke="none">message loop</text>
    </g>
    <g stroke-linecap="butt" transform="matrix(1,0,0,1,-242,-12)" text-rendering="geometricPrecision" font-family="'Consolas'" shape-rendering="geometricPrecision" font-weight="bold" stroke-miterlimit="1.45">
      <text x="269.207" xml:space="preserve" y="335.8438" clip-path="url(#clipPath2)" stroke="none">active</text>
    </g>
    <g stroke-linecap="butt" transform="matrix(1,0,0,1,-242,-12)" text-rendering="geometricPrecision" font-family="'Consolas'" shape-rendering="geometricPrecision" font-weight="bold" stroke-miterlimit="1.45">
      <text x="463.207" xml:space="preserve" y="304.75" clip-path="url(#clipPath2)" stroke="none">active</text>
    </g>
    <g text-rendering="geometricPrecision" stroke-miterlimit="1.45" shape-rendering="geometricPrecision" transform="matrix(1,0,0,1,-242,-12)" stroke-linecap="butt">
      <path fill="none" d="M418.5033 266.5 L483.9854 266.5 L483.9854 95 L434 95" clip-path="url(#clipPath2)"/>
    </g>
    <g text-rendering="geometricPrecision" stroke-miterlimit="1.45" shape-rendering="geometricPrecision" transform="matrix(1,0,0,1,-242,-12)" stroke-linecap="butt">
      <path d="M426 95 L438 100 L435 95 L438 90 Z" clip-path="url(#clipPath2)" stroke="none"/>
      <path fill="none" d="M346.0229 94 L287 94 L287 266.5 L345.488 266.5" clip-path="url(#clipPath2)"/>
      <path d="M353.488 266.5 L341.488 261.5 L344.488 266.5 L341.488 271.5 Z" clip-path="url(#clipPath2)" stroke="none"/>
      <path fill="none" d="M320.5 385.8008 L320.5 286.5 L352.3821 286.5" clip-path="url(#clipPath2)"/>
      <path d="M360.3821 286.5 L348.3821 281.5 L351.3821 286.5 L348.3821 291.5 Z" clip-path="url(#clipPath2)" stroke="none"/>
      <path fill="none" d="M448.5 385.8174 L448.5 363.7852" clip-path="url(#clipPath2)"/>
      <path d="M448.5 355.7852 L443.5 367.7852 L448.5 364.7852 L453.5 367.7852 Z" clip-path="url(#clipPath2)" stroke="none"/>
      <path fill="none" d="M448.5 315.8027 L448.5 286.5 L419.6042 286.5" clip-path="url(#clipPath2)"/>
      <path d="M411.6042 286.5 L423.6042 291.5 L420.6042 286.5 L423.6042 281.5 Z" clip-path="url(#clipPath2)" stroke="none"/>
    </g>
  </g>
</svg>
