<?xml version="1.0" encoding="UTF-8"?><svg xmlns="http://www.w3.org/2000/svg" xmlns:xlink="http://www.w3.org/1999/xlink" fill-opacity="1" color-rendering="auto" color-interpolation="auto" stroke="black" text-rendering="auto" stroke-linecap="square" width="523" stroke-miterlimit="10" stroke-opacity="1" shape-rendering="auto" fill="black" stroke-dasharray="none" font-weight="normal" stroke-width="1" height="188" font-family="'Dialog'" font-style="normal" stroke-linejoin="miter" font-size="12" stroke-dashoffset="0" image-rendering="auto">
  <!--Generated by ySVG 2.5-->
  <defs id="genericDefs"/>
  <g>
    <defs id="defs1">
      <clipPath clipPathUnits="userSpaceOnUse" id="clipPath1">
        <path d="M0 0 L523 0 L523 188 L0 188 L0 0 Z"/>
      </clipPath>
      <clipPath clipPathUnits="userSpaceOnUse" id="clipPath2">
        <path d="M161 169 L684 169 L684 357 L161 357 L161 169 Z"/>
      </clipPath>
    </defs>
    <g fill="white" text-rendering="geometricPrecision" shape-rendering="geometricPrecision" transform="translate(-161,-169)" stroke="white">
      <rect x="161" width="523" height="188" y="169" clip-path="url(#clipPath2)" stroke="none"/>
    </g>
    <g stroke-linecap="butt" transform="matrix(1,0,0,1,-161,-169)" text-rendering="geometricPrecision" font-family="'Consolas'" shape-rendering="geometricPrecision" font-weight="bold" stroke-miterlimit="1.45">
      <text x="490.2129" xml:space="preserve" y="287.9375" clip-path="url(#clipPath2)" stroke="none">leakPtr/get</text>
      <text x="400.9082" xml:space="preserve" y="330.9375" clip-path="url(#clipPath2)" stroke="none">release</text>
    </g>
    <g text-rendering="geometricPrecision" stroke-miterlimit="1.45" shape-rendering="geometricPrecision" transform="matrix(1,0,0,1,-161,-169)" stroke-linecap="butt">
      <path fill="none" d="M384 242 L464 242 L464 282 L384 282 Z" clip-path="url(#clipPath2)"/>
      <text x="400.9082" y="265.9375" clip-path="url(#clipPath2)" font-family="'Consolas'" stroke="none" font-weight="bold" xml:space="preserve">Raw Ptr</text>
    </g>
    <g text-rendering="geometricPrecision" stroke-miterlimit="1.45" shape-rendering="geometricPrecision" transform="matrix(1,0,0,1,-161,-169)" stroke-linecap="butt">
      <path fill="none" d="M589 242 L669 242 L669 282 L589 282 Z" clip-path="url(#clipPath2)"/>
      <text x="596.0117" y="265.9375" clip-path="url(#clipPath2)" font-family="'Consolas'" stroke="none" font-weight="bold" xml:space="preserve">PassOwnPtr</text>
    </g>
    <g text-rendering="geometricPrecision" stroke-miterlimit="1.45" shape-rendering="geometricPrecision" transform="matrix(1,0,0,1,-161,-169)" stroke-linecap="butt">
      <path fill="none" d="M176 242 L256 242 L256 282 L176 282 Z" clip-path="url(#clipPath2)"/>
      <text x="196.207" y="265.9375" clip-path="url(#clipPath2)" font-family="'Consolas'" stroke="none" font-weight="bold" xml:space="preserve">OwnPtr</text>
    </g>
    <g stroke-linecap="butt" transform="matrix(1,0,0,1,-161,-169)" text-rendering="geometricPrecision" font-family="'Consolas'" shape-rendering="geometricPrecision" font-weight="bold" stroke-miterlimit="1.45">
      <text x="283.7129" xml:space="preserve" y="275.9375" clip-path="url(#clipPath2)" stroke="none">leakPtr/get</text>
      <path fill="none" d="M464.014 255 L581.0022 255" clip-path="url(#clipPath2)"/>
      <path d="M589.0022 255 L577.0022 250 L580.0022 255 L577.0022 260 Z" clip-path="url(#clipPath2)" stroke="none"/>
      <path fill="none" d="M588.986 270 L471.9978 270" clip-path="url(#clipPath2)"/>
      <path d="M463.9978 270 L475.9978 275 L472.9978 270 L475.9978 265 Z" clip-path="url(#clipPath2)" stroke="none"/>
      <path fill="none" d="M629 241.9717 L629 184 L216 184 L216 234.0034" clip-path="url(#clipPath2)"/>
      <path d="M216 242.0034 L221 230.0034 L216 233.0034 L211 230.0034 Z" clip-path="url(#clipPath2)" stroke="none"/>
      <path fill="none" d="M216 282.0098 L216 340 L629 340 L629 290.0098" clip-path="url(#clipPath2)"/>
      <path d="M629 282.0098 L624 294.0098 L629 291.0098 L634 294.0098 Z" clip-path="url(#clipPath2)" stroke="none"/>
      <path fill="none" d="M255.9902 262 L376.0074 262" clip-path="url(#clipPath2)"/>
      <path d="M384.0074 262 L372.0074 257 L375.0074 262 L372.0074 267 Z" clip-path="url(#clipPath2)" stroke="none"/>
    </g>
  </g>
</svg>
