<?xml version="1.0" encoding="UTF-8"?><svg xmlns="http://www.w3.org/2000/svg" xmlns:xlink="http://www.w3.org/1999/xlink" fill-opacity="1" color-rendering="auto" color-interpolation="auto" stroke="black" text-rendering="auto" stroke-linecap="square" width="533" stroke-miterlimit="10" stroke-opacity="1" shape-rendering="auto" fill="black" stroke-dasharray="none" font-weight="normal" stroke-width="1" height="185" font-family="'Dialog'" font-style="normal" stroke-linejoin="miter" font-size="12" stroke-dashoffset="0" image-rendering="auto">
  <!--Generated by ySVG 2.5-->
  <defs id="genericDefs"/>
  <g>
    <defs id="defs1">
      <clipPath clipPathUnits="userSpaceOnUse" id="clipPath1">
        <path d="M0 0 L533 0 L533 185 L0 185 L0 0 Z"/>
      </clipPath>
      <clipPath clipPathUnits="userSpaceOnUse" id="clipPath2">
        <path d="M192 131 L725 131 L725 316 L192 316 L192 131 Z"/>
      </clipPath>
    </defs>
    <g fill="white" text-rendering="geometricPrecision" shape-rendering="geometricPrecision" transform="translate(-192,-131)" stroke="white">
      <rect x="192" width="533" height="185" y="131" clip-path="url(#clipPath2)" stroke="none"/>
    </g>
    <g text-rendering="geometricPrecision" stroke-miterlimit="1.45" shape-rendering="geometricPrecision" transform="matrix(1,0,0,1,-192,-131)" stroke-linecap="butt">
      <path fill="none" d="M430 201 L510 201 L510 241 L430 241 Z" clip-path="url(#clipPath2)"/>
      <text x="446.9082" y="224.9375" clip-path="url(#clipPath2)" font-family="'Consolas'" stroke="none" font-weight="bold" xml:space="preserve">Raw Ptr</text>
    </g>
    <g text-rendering="geometricPrecision" stroke-miterlimit="1.45" shape-rendering="geometricPrecision" transform="matrix(1,0,0,1,-192,-131)" stroke-linecap="butt">
      <path fill="none" d="M207 201 L287 201 L287 241 L207 241 Z" clip-path="url(#clipPath2)"/>
      <text x="227.207" y="224.9375" clip-path="url(#clipPath2)" font-family="'Consolas'" stroke="none" font-weight="bold" xml:space="preserve">RefPtr</text>
    </g>
    <g text-rendering="geometricPrecision" stroke-miterlimit="1.45" shape-rendering="geometricPrecision" transform="matrix(1,0,0,1,-192,-131)" stroke-linecap="butt">
      <path fill="none" d="M630 201 L710 201 L710 241 L630 241 Z" clip-path="url(#clipPath2)"/>
      <text x="637.0117" y="224.9375" clip-path="url(#clipPath2)" font-family="'Consolas'" stroke="none" font-weight="bold" xml:space="preserve">PassRefPtr</text>
    </g>
    <g stroke-linecap="butt" transform="matrix(1,0,0,1,-192,-131)" text-rendering="geometricPrecision" font-family="'Consolas'" shape-rendering="geometricPrecision" font-weight="bold" stroke-miterlimit="1.45">
      <text x="356.1035" xml:space="preserve" y="244.9375" clip-path="url(#clipPath2)" stroke="none">get</text>
    </g>
    <g stroke-linecap="butt" transform="matrix(1,0,0,1,-192,-131)" text-rendering="geometricPrecision" font-family="'Consolas'" shape-rendering="geometricPrecision" font-weight="bold" stroke-miterlimit="1.45">
      <text x="540.7129" xml:space="preserve" y="244.9375" clip-path="url(#clipPath2)" stroke="none">leakPtr/get</text>
      <text x="446.9082" xml:space="preserve" y="289.9375" clip-path="url(#clipPath2)" stroke="none">release</text>
      <path fill="none" d="M430.0114 214 L294.989 214" clip-path="url(#clipPath2)"/>
      <path d="M286.989 214 L298.989 219 L295.989 214 L298.989 209 Z" clip-path="url(#clipPath2)" stroke="none"/>
      <path fill="none" d="M286.9775 229 L421.9768 229" clip-path="url(#clipPath2)"/>
      <path d="M429.9768 229 L417.9768 224 L420.9768 229 L417.9768 234 Z" clip-path="url(#clipPath2)" stroke="none"/>
      <path fill="none" d="M509.9902 214 L622.0366 214" clip-path="url(#clipPath2)"/>
      <path d="M630.0366 214 L618.0366 209 L621.0366 214 L618.0366 219 Z" clip-path="url(#clipPath2)" stroke="none"/>
      <path fill="none" d="M247 241 L247 293 L670 293 L670 249.0127" clip-path="url(#clipPath2)"/>
      <path d="M670 241.0127 L665 253.0127 L670 250.0127 L675 253.0127 Z" clip-path="url(#clipPath2)" stroke="none"/>
      <path fill="none" d="M630.0061 229 L517.973 229" clip-path="url(#clipPath2)"/>
      <path d="M509.973 229 L521.973 234 L518.973 229 L521.973 224 Z" clip-path="url(#clipPath2)" stroke="none"/>
      <path fill="none" d="M670 201.0176 L670 146 L247 146 L247 192.9836" clip-path="url(#clipPath2)"/>
      <path d="M247 200.9836 L252 188.9836 L247 191.9836 L242 188.9836 Z" clip-path="url(#clipPath2)" stroke="none"/>
    </g>
  </g>
</svg>
