<?xml version="1.0" encoding="UTF-8"?><svg xmlns="http://www.w3.org/2000/svg" xmlns:xlink="http://www.w3.org/1999/xlink" fill-opacity="1" color-rendering="auto" color-interpolation="auto" stroke="black" text-rendering="auto" stroke-linecap="square" width="538" stroke-miterlimit="10" stroke-opacity="1" shape-rendering="auto" fill="black" stroke-dasharray="none" font-weight="normal" stroke-width="1" height="270" font-family="'Dialog'" font-style="normal" stroke-linejoin="miter" font-size="12" stroke-dashoffset="0" image-rendering="auto">
  <!--Generated by ySVG 2.5-->
  <defs id="genericDefs"/>
  <g>
    <defs id="defs1">
      <clipPath clipPathUnits="userSpaceOnUse" id="clipPath1">
        <path d="M0 0 L538 0 L538 270 L0 270 L0 0 Z"/>
      </clipPath>
      <clipPath clipPathUnits="userSpaceOnUse" id="clipPath2">
        <path d="M190 110 L728 110 L728 380 L190 380 L190 110 Z"/>
      </clipPath>
    </defs>
    <g fill="white" text-rendering="geometricPrecision" shape-rendering="geometricPrecision" transform="translate(-190,-110)" stroke="white">
      <rect x="190" width="538" height="270" y="110" clip-path="url(#clipPath2)" stroke="none"/>
    </g>
    <g text-rendering="geometricPrecision" stroke-miterlimit="1.45" shape-rendering="geometricPrecision" transform="matrix(1,0,0,1,-190,-110)" stroke-linecap="butt">
      <path fill="none" d="M205 205 L285 205 L285 245 L205 245 Z" clip-path="url(#clipPath2)"/>
      <text x="228.5059" y="228.9375" clip-path="url(#clipPath2)" font-family="'Consolas'" stroke="none" font-weight="bold" xml:space="preserve">count</text>
    </g>
    <g text-rendering="geometricPrecision" stroke-miterlimit="1.45" shape-rendering="geometricPrecision" transform="matrix(1,0,0,1,-190,-110)" stroke-linecap="butt">
      <path fill="none" d="M395.5 205 L524 205 L524 245 L395.5 245 Z" clip-path="url(#clipPath2)"/>
      <text x="416.8652" y="228.9375" clip-path="url(#clipPath2)" font-family="'Consolas'" stroke="none" font-weight="bold" xml:space="preserve">int* countPtr</text>
    </g>
    <g text-rendering="geometricPrecision" stroke-miterlimit="1.45" shape-rendering="geometricPrecision" transform="matrix(1,0,0,1,-190,-110)" stroke-linecap="butt">
      <path fill="none" d="M633 165 L713 165 L713 205 L633 205 Z" clip-path="url(#clipPath2)"/>
    </g>
    <g text-rendering="geometricPrecision" stroke-miterlimit="1.45" shape-rendering="geometricPrecision" transform="matrix(1,0,0,1,-190,-110)" stroke-linecap="butt">
      <path fill="none" d="M633 205 L713 205 L713 245 L633 245 Z" clip-path="url(#clipPath2)"/>
      <text x="656.5059" y="228.9375" clip-path="url(#clipPath2)" font-family="'Consolas'" stroke="none" font-weight="bold" xml:space="preserve">count</text>
    </g>
    <g text-rendering="geometricPrecision" stroke-miterlimit="1.45" shape-rendering="geometricPrecision" transform="matrix(1,0,0,1,-190,-110)" stroke-linecap="butt">
      <path fill="none" d="M633 245 L713 245 L713 285 L633 285 Z" clip-path="url(#clipPath2)"/>
    </g>
    <g text-rendering="geometricPrecision" stroke-miterlimit="1.45" shape-rendering="geometricPrecision" transform="matrix(1,0,0,1,-190,-110)" stroke-linecap="butt">
      <path fill="none" d="M633 325 L713 325 L713 365 L633 365 Z" clip-path="url(#clipPath2)"/>
      <text x="646.6094" y="348.9375" clip-path="url(#clipPath2)" font-family="'Consolas'" stroke="none" font-weight="bold" xml:space="preserve">countPtr</text>
    </g>
    <g text-rendering="geometricPrecision" stroke-miterlimit="1.45" shape-rendering="geometricPrecision" transform="matrix(1,0,0,1,-190,-110)" stroke-linecap="butt">
      <path fill="none" d="M395.5 325 L524 325 L524 365 L395.5 365 Z" clip-path="url(#clipPath2)"/>
      <text x="403.6699" y="348.9375" clip-path="url(#clipPath2)" font-family="'Consolas'" stroke="none" font-weight="bold" xml:space="preserve">int** countPtrPtr</text>
    </g>
    <g text-rendering="geometricPrecision" stroke-miterlimit="1.45" shape-rendering="geometricPrecision" transform="matrix(1,0,0,1,-190,-110)" stroke-linecap="butt">
      <path fill="none" d="M633 285 L713 285 L713 325 L633 325 Z" clip-path="url(#clipPath2)"/>
    </g>
    <g stroke-linecap="butt" transform="matrix(1,0,0,1,-190,-110)" text-rendering="geometricPrecision" font-family="'Consolas'" shape-rendering="geometricPrecision" font-weight="bold" stroke-miterlimit="1.45">
      <text x="310.5605" xml:space="preserve" y="202.9375" clip-path="url(#clipPath2)" stroke="none">reference</text>
    </g>
    <g stroke-linecap="butt" transform="matrix(1,0,0,1,-190,-110)" text-rendering="geometricPrecision" font-family="'Consolas'" shape-rendering="geometricPrecision" font-weight="bold" stroke-miterlimit="1.45">
      <text x="352.8105" xml:space="preserve" y="297.9375" clip-path="url(#clipPath2)" stroke="none">reference</text>
    </g>
    <g stroke-linecap="butt" transform="matrix(1,0,0,1,-190,-110)" text-rendering="geometricPrecision" font-family="'Consolas'" shape-rendering="geometricPrecision" font-weight="bold" stroke-miterlimit="1.45">
      <text x="503.7129" xml:space="preserve" y="296.9375" clip-path="url(#clipPath2)" stroke="none">dereference</text>
    </g>
    <g stroke-linecap="butt" transform="matrix(1,0,0,1,-190,-110)" text-rendering="geometricPrecision" font-family="'Consolas'" shape-rendering="geometricPrecision" font-weight="bold" stroke-miterlimit="1.45">
      <text x="310.9629" xml:space="preserve" y="257.9375" clip-path="url(#clipPath2)" stroke="none">dereference</text>
    </g>
    <g stroke-linecap="butt" transform="matrix(1,0,0,1,-190,-110)" text-rendering="geometricPrecision" font-family="'Consolas'" shape-rendering="geometricPrecision" font-weight="bold" stroke-miterlimit="1.45">
      <text x="644.707" xml:space="preserve" y="148.9375" clip-path="url(#clipPath2)" stroke="none">memory</text>
    </g>
    <g text-rendering="geometricPrecision" stroke-miterlimit="1.45" shape-rendering="geometricPrecision" transform="matrix(1,0,0,1,-190,-110)" stroke-linecap="butt">
      <path fill="none" d="M284.9773 213 L387.533 213" clip-path="url(#clipPath2)"/>
    </g>
    <g text-rendering="geometricPrecision" stroke-miterlimit="1.45" shape-rendering="geometricPrecision" transform="matrix(1,0,0,1,-190,-110)" stroke-linecap="butt">
      <path d="M395.533 213 L383.533 208 L386.533 213 L383.533 218 Z" clip-path="url(#clipPath2)" stroke="none"/>
      <path fill="none" d="M395.498 239 L293.0128 239" clip-path="url(#clipPath2)"/>
      <path d="M285.0128 239 L297.0128 244 L294.0128 239 L297.0128 234 Z" clip-path="url(#clipPath2)" stroke="none"/>
      <path fill="none" d="M524.0217 225 L625.0276 225" clip-path="url(#clipPath2)"/>
      <path d="M633.0276 225 L621.0276 220 L624.0276 225 L621.0276 230 Z" clip-path="url(#clipPath2)" stroke="none"/>
      <path fill="none" d="M430.1075 245.022 L430.1075 316.9609" clip-path="url(#clipPath2)"/>
      <path d="M430.1075 324.9609 L435.1075 312.9609 L430.1075 315.9609 L425.1075 312.9609 Z" clip-path="url(#clipPath2)" stroke="none"/>
      <path fill="none" d="M524.0217 345 L625.0276 345" clip-path="url(#clipPath2)"/>
      <path d="M633.0276 345 L621.0276 340 L624.0276 345 L621.0276 350 Z" clip-path="url(#clipPath2)" stroke="none"/>
      <path fill="none" d="M496 325.0269 L496 252.9891" clip-path="url(#clipPath2)"/>
      <path d="M496 244.9891 L491 256.9891 L496 253.9891 L501 256.9891 Z" clip-path="url(#clipPath2)" stroke="none"/>
    </g>
  </g>
</svg>
