<?xml version="1.0" encoding="UTF-8"?><svg xmlns="http://www.w3.org/2000/svg" xmlns:xlink="http://www.w3.org/1999/xlink" fill-opacity="1" color-rendering="auto" color-interpolation="auto" stroke="black" text-rendering="auto" stroke-linecap="square" width="556" stroke-miterlimit="10" stroke-opacity="1" shape-rendering="auto" fill="black" stroke-dasharray="none" font-weight="normal" stroke-width="1" height="590" font-family="'Dialog'" font-style="normal" stroke-linejoin="miter" font-size="12" stroke-dashoffset="0" image-rendering="auto">
  <!--Generated by ySVG 2.5-->
  <defs id="genericDefs"/>
  <g>
    <defs id="defs1">
      <clipPath clipPathUnits="userSpaceOnUse" id="clipPath1">
        <path d="M0 0 L556 0 L556 590 L0 590 L0 0 Z"/>
      </clipPath>
      <clipPath clipPathUnits="userSpaceOnUse" id="clipPath2">
        <path d="M137 125 L693 125 L693 715 L137 715 L137 125 Z"/>
      </clipPath>
    </defs>
    <g fill="white" text-rendering="geometricPrecision" shape-rendering="geometricPrecision" transform="translate(-137,-125)" stroke="white">
      <rect x="137" width="556" height="590" y="125" clip-path="url(#clipPath2)" stroke="none"/>
    </g>
    <g text-rendering="geometricPrecision" stroke-miterlimit="1.45" shape-rendering="geometricPrecision" transform="matrix(1,0,0,1,-137,-125)" stroke-linecap="butt">
      <path fill="none" d="M166.5 140 L217.5 140 L217.5 180 L166.5 180 Z" clip-path="url(#clipPath2)"/>
      <text x="182.1035" y="163.9375" clip-path="url(#clipPath2)" font-family="'Consolas'" stroke="none" font-weight="bold" xml:space="preserve">'A'</text>
    </g>
    <g text-rendering="geometricPrecision" stroke-miterlimit="1.45" shape-rendering="geometricPrecision" transform="matrix(1,0,0,1,-137,-125)" stroke-linecap="butt">
      <path fill="none" d="M217.5 140 L338.5 140 L338.5 180 L217.5 180 Z" clip-path="url(#clipPath2)"/>
      <text x="235.1152" y="163.9375" clip-path="url(#clipPath2)" font-family="'Consolas'" stroke="none" font-weight="bold" xml:space="preserve">Master Secret</text>
    </g>
    <g text-rendering="geometricPrecision" stroke-miterlimit="1.45" shape-rendering="geometricPrecision" transform="matrix(1,0,0,1,-137,-125)" stroke-linecap="butt">
      <path fill="none" d="M338.5 140 L459.5 140 L459.5 180 L338.5 180 Z" clip-path="url(#clipPath2)"/>
      <text x="356.1152" y="163.9375" clip-path="url(#clipPath2)" font-family="'Consolas'" stroke="none" font-weight="bold" xml:space="preserve">Client Random</text>
    </g>
    <g text-rendering="geometricPrecision" stroke-miterlimit="1.45" shape-rendering="geometricPrecision" transform="matrix(1,0,0,1,-137,-125)" stroke-linecap="butt">
      <path fill="none" d="M459.5 140 L573.5 140 L573.5 180 L459.5 180 Z" clip-path="url(#clipPath2)"/>
      <text x="473.6152" y="163.9375" clip-path="url(#clipPath2)" font-family="'Consolas'" stroke="none" font-weight="bold" xml:space="preserve">Server Random</text>
    </g>
    <g text-rendering="geometricPrecision" stroke-miterlimit="1.45" shape-rendering="geometricPrecision" transform="matrix(1,0,0,1,-137,-125)" stroke-linecap="butt">
      <path fill="none" d="M217.5 195 L268.5 195 L268.5 235 L217.5 235 Z" clip-path="url(#clipPath2)"/>
      <text x="229.8047" y="218.9375" clip-path="url(#clipPath2)" font-family="'Consolas'" stroke="none" font-weight="bold" xml:space="preserve">'BB'</text>
    </g>
    <g text-rendering="geometricPrecision" stroke-miterlimit="1.45" shape-rendering="geometricPrecision" transform="matrix(1,0,0,1,-137,-125)" stroke-linecap="butt">
      <path fill="none" d="M268.5 195 L389.5 195 L389.5 235 L268.5 235 Z" clip-path="url(#clipPath2)"/>
      <text x="286.1152" y="218.9375" clip-path="url(#clipPath2)" font-family="'Consolas'" stroke="none" font-weight="bold" xml:space="preserve">Master Secret</text>
    </g>
    <g text-rendering="geometricPrecision" stroke-miterlimit="1.45" shape-rendering="geometricPrecision" transform="matrix(1,0,0,1,-137,-125)" stroke-linecap="butt">
      <path fill="none" d="M389.5 195 L510.5 195 L510.5 235 L389.5 235 Z" clip-path="url(#clipPath2)"/>
      <text x="407.1152" y="218.9375" clip-path="url(#clipPath2)" font-family="'Consolas'" stroke="none" font-weight="bold" xml:space="preserve">Client Random</text>
    </g>
    <g text-rendering="geometricPrecision" stroke-miterlimit="1.45" shape-rendering="geometricPrecision" transform="matrix(1,0,0,1,-137,-125)" stroke-linecap="butt">
      <path fill="none" d="M510.5 195 L624.5 195 L624.5 235 L510.5 235 Z" clip-path="url(#clipPath2)"/>
      <text x="524.6152" y="218.9375" clip-path="url(#clipPath2)" font-family="'Consolas'" stroke="none" font-weight="bold" xml:space="preserve">Server Random</text>
    </g>
    <g text-rendering="geometricPrecision" stroke-miterlimit="1.45" shape-rendering="geometricPrecision" transform="matrix(1,0,0,1,-137,-125)" stroke-linecap="butt">
      <path fill="none" d="M268.5 250 L319.5 250 L319.5 290 L268.5 290 Z" clip-path="url(#clipPath2)"/>
      <text x="277.5059" y="273.9375" clip-path="url(#clipPath2)" font-family="'Consolas'" stroke="none" font-weight="bold" xml:space="preserve">'CCC'</text>
    </g>
    <g text-rendering="geometricPrecision" stroke-miterlimit="1.45" shape-rendering="geometricPrecision" transform="matrix(1,0,0,1,-137,-125)" stroke-linecap="butt">
      <path fill="none" d="M319.5 250 L440.5 250 L440.5 290 L319.5 290 Z" clip-path="url(#clipPath2)"/>
      <text x="337.1152" y="273.9375" clip-path="url(#clipPath2)" font-family="'Consolas'" stroke="none" font-weight="bold" xml:space="preserve">Master Secret</text>
    </g>
    <g text-rendering="geometricPrecision" stroke-miterlimit="1.45" shape-rendering="geometricPrecision" transform="matrix(1,0,0,1,-137,-125)" stroke-linecap="butt">
      <path fill="none" d="M440.5 250 L561.5 250 L561.5 290 L440.5 290 Z" clip-path="url(#clipPath2)"/>
      <text x="458.1152" y="273.9375" clip-path="url(#clipPath2)" font-family="'Consolas'" stroke="none" font-weight="bold" xml:space="preserve">Client Random</text>
    </g>
    <g text-rendering="geometricPrecision" stroke-miterlimit="1.45" shape-rendering="geometricPrecision" transform="matrix(1,0,0,1,-137,-125)" stroke-linecap="butt">
      <path fill="none" d="M561.5 250 L675.5 250 L675.5 290 L561.5 290 Z" clip-path="url(#clipPath2)"/>
      <text x="575.6152" y="273.9375" clip-path="url(#clipPath2)" font-family="'Consolas'" stroke="none" font-weight="bold" xml:space="preserve">Server Random</text>
    </g>
    <g text-rendering="geometricPrecision" stroke-miterlimit="1.45" shape-rendering="geometricPrecision" transform="matrix(1,0,0,1,-137,-125)" stroke-linecap="butt">
      <circle fill="none" r="20" clip-path="url(#clipPath2)" cx="445.5" cy="385.5"/>
      <text x="435.6035" y="389.4375" clip-path="url(#clipPath2)" font-family="'Consolas'" stroke="none" font-weight="bold" xml:space="preserve">SHA</text>
    </g>
    <g text-rendering="geometricPrecision" stroke-miterlimit="1.45" shape-rendering="geometricPrecision" transform="matrix(1,0,0,1,-137,-125)" stroke-linecap="butt">
      <path fill="none" d="M166.5 365.5 L295.5 365.5 L295.5 405.5 L166.5 405.5 Z" clip-path="url(#clipPath2)"/>
      <text x="188.1152" y="389.4375" clip-path="url(#clipPath2)" font-family="'Consolas'" stroke="none" font-weight="bold" xml:space="preserve">Master Secret</text>
    </g>
    <g text-rendering="geometricPrecision" stroke-miterlimit="1.45" shape-rendering="geometricPrecision" transform="matrix(1,0,0,1,-137,-125)" stroke-linecap="butt">
      <path fill="none" d="M295.5 365.5 L375.5 365.5 L375.5 405.5 L295.5 405.5 Z" clip-path="url(#clipPath2)"/>
      <text x="322.3047" y="389.4375" clip-path="url(#clipPath2)" font-family="'Consolas'" stroke="none" font-weight="bold" xml:space="preserve">hash</text>
    </g>
    <g text-rendering="geometricPrecision" stroke-miterlimit="1.45" shape-rendering="geometricPrecision" transform="matrix(1,0,0,1,-137,-125)" stroke-linecap="butt">
      <path fill="none" d="M276.5 435.5 L405.5 435.5 L405.5 475.5 L276.5 475.5 Z" clip-path="url(#clipPath2)"/>
      <text x="298.1152" y="459.4375" clip-path="url(#clipPath2)" font-family="'Consolas'" stroke="none" font-weight="bold" xml:space="preserve">Master Secret</text>
    </g>
    <g text-rendering="geometricPrecision" stroke-miterlimit="1.45" shape-rendering="geometricPrecision" transform="matrix(1,0,0,1,-137,-125)" stroke-linecap="butt">
      <path fill="none" d="M405.5 435.5 L485.5 435.5 L485.5 475.5 L405.5 475.5 Z" clip-path="url(#clipPath2)"/>
      <text x="432.3047" y="459.4375" clip-path="url(#clipPath2)" font-family="'Consolas'" stroke="none" font-weight="bold" xml:space="preserve">hash</text>
    </g>
    <g text-rendering="geometricPrecision" stroke-miterlimit="1.45" shape-rendering="geometricPrecision" transform="matrix(1,0,0,1,-137,-125)" stroke-linecap="butt">
      <path fill="none" d="M386.5 505.5 L515.5 505.5 L515.5 545.5 L386.5 545.5 Z" clip-path="url(#clipPath2)"/>
      <text x="408.1152" y="529.4375" clip-path="url(#clipPath2)" font-family="'Consolas'" stroke="none" font-weight="bold" xml:space="preserve">Master Secret</text>
    </g>
    <g text-rendering="geometricPrecision" stroke-miterlimit="1.45" shape-rendering="geometricPrecision" transform="matrix(1,0,0,1,-137,-125)" stroke-linecap="butt">
      <path fill="none" d="M515.5 505.5 L595.5 505.5 L595.5 545.5 L515.5 545.5 Z" clip-path="url(#clipPath2)"/>
      <text x="542.3047" y="529.4375" clip-path="url(#clipPath2)" font-family="'Consolas'" stroke="none" font-weight="bold" xml:space="preserve">hash</text>
    </g>
    <g text-rendering="geometricPrecision" stroke-miterlimit="1.45" shape-rendering="geometricPrecision" transform="matrix(1,0,0,1,-137,-125)" stroke-linecap="butt">
      <circle fill="none" r="20" clip-path="url(#clipPath2)" cx="192" cy="310"/>
      <text x="182.1035" y="313.9375" clip-path="url(#clipPath2)" font-family="'Consolas'" stroke="none" font-weight="bold" xml:space="preserve">SHA</text>
    </g>
    <g text-rendering="geometricPrecision" stroke-miterlimit="1.45" shape-rendering="geometricPrecision" transform="matrix(1,0,0,1,-137,-125)" stroke-linecap="butt">
      <circle fill="none" r="20" clip-path="url(#clipPath2)" cx="555.5" cy="455.5"/>
      <text x="545.6035" y="459.4375" clip-path="url(#clipPath2)" font-family="'Consolas'" stroke="none" font-weight="bold" xml:space="preserve">SHA</text>
    </g>
    <g text-rendering="geometricPrecision" stroke-miterlimit="1.45" shape-rendering="geometricPrecision" transform="matrix(1,0,0,1,-137,-125)" stroke-linecap="butt">
      <path fill="none" d="M166.5 660 L246.5 660 L246.5 700 L166.5 700 Z" clip-path="url(#clipPath2)"/>
      <text x="193.3047" y="683.9375" clip-path="url(#clipPath2)" font-family="'Consolas'" stroke="none" font-weight="bold" xml:space="preserve">hash</text>
    </g>
    <g text-rendering="geometricPrecision" stroke-miterlimit="1.45" shape-rendering="geometricPrecision" transform="matrix(1,0,0,1,-137,-125)" stroke-linecap="butt">
      <path fill="none" d="M246.5 660 L326.5 660 L326.5 700 L246.5 700 Z" clip-path="url(#clipPath2)"/>
      <text x="273.3047" y="683.9375" clip-path="url(#clipPath2)" font-family="'Consolas'" stroke="none" font-weight="bold" xml:space="preserve">hash</text>
    </g>
    <g text-rendering="geometricPrecision" stroke-miterlimit="1.45" shape-rendering="geometricPrecision" transform="matrix(1,0,0,1,-137,-125)" stroke-linecap="butt">
      <path fill="none" d="M326.5 660 L406.5 660 L406.5 700 L326.5 700 Z" clip-path="url(#clipPath2)"/>
      <text x="353.3047" y="683.9375" clip-path="url(#clipPath2)" font-family="'Consolas'" stroke="none" font-weight="bold" xml:space="preserve">hash</text>
    </g>
    <g text-rendering="geometricPrecision" stroke-miterlimit="1.45" shape-rendering="geometricPrecision" transform="matrix(1,0,0,1,-137,-125)" stroke-linecap="butt">
      <circle fill="none" r="20" clip-path="url(#clipPath2)" cx="206.5" cy="455.5"/>
      <text x="196.6035" y="459.4375" clip-path="url(#clipPath2)" font-family="'Consolas'" stroke="none" font-weight="bold" xml:space="preserve">MD5</text>
    </g>
    <g text-rendering="geometricPrecision" stroke-miterlimit="1.45" shape-rendering="geometricPrecision" transform="matrix(1,0,0,1,-137,-125)" stroke-linecap="butt">
      <circle fill="none" r="20" clip-path="url(#clipPath2)" cx="286.5" cy="525.5"/>
      <text x="276.6035" y="529.4375" clip-path="url(#clipPath2)" font-family="'Consolas'" stroke="none" font-weight="bold" xml:space="preserve">MD5</text>
    </g>
    <g text-rendering="geometricPrecision" stroke-miterlimit="1.45" shape-rendering="geometricPrecision" transform="matrix(1,0,0,1,-137,-125)" stroke-linecap="butt">
      <circle fill="none" r="20" clip-path="url(#clipPath2)" cx="366.5" cy="595.5"/>
      <text x="356.6035" y="599.4375" clip-path="url(#clipPath2)" font-family="'Consolas'" stroke="none" font-weight="bold" xml:space="preserve">MD5</text>
    </g>
    <g stroke-linecap="butt" transform="matrix(1,0,0,1,-137,-125)" text-rendering="geometricPrecision" font-family="'Consolas'" shape-rendering="geometricPrecision" font-weight="bold" stroke-miterlimit="1.45">
      <text x="595.9141" xml:space="preserve" y="683.9375" clip-path="url(#clipPath2)" stroke="none">Key Material</text>
    </g>
    <g text-rendering="geometricPrecision" stroke-miterlimit="1.45" shape-rendering="geometricPrecision" transform="matrix(1,0,0,1,-137,-125)" stroke-linecap="butt">
      <path fill="none" d="M406.5 660 L500.5 660 L500.5 700 L406.5 700 Z" clip-path="url(#clipPath2)"/>
      <text x="433.707" y="683.9375" clip-path="url(#clipPath2)" font-family="'Consolas'" stroke="none" font-weight="bold" xml:space="preserve">[...8]</text>
    </g>
    <g text-rendering="geometricPrecision" stroke-miterlimit="1.45" shape-rendering="geometricPrecision" transform="matrix(1,0,0,1,-137,-125)" stroke-linecap="butt">
      <path fill="none" d="M500.5 660 L580.5 660 L580.5 700 L500.5 700 Z" clip-path="url(#clipPath2)"/>
      <text x="527.3047" y="683.9375" clip-path="url(#clipPath2)" font-family="'Consolas'" stroke="none" font-weight="bold" xml:space="preserve">hash</text>
    </g>
    <g text-rendering="geometricPrecision" stroke-miterlimit="1.45" shape-rendering="geometricPrecision" transform="matrix(1,0,0,1,-137,-125)" stroke-linecap="butt">
      <path fill="none" d="M243 235 L243 327.75 L445.5 327.75 L445.5 357.5074" clip-path="url(#clipPath2)"/>
    </g>
    <g text-rendering="geometricPrecision" stroke-miterlimit="1.45" shape-rendering="geometricPrecision" transform="matrix(1,0,0,1,-137,-125)" stroke-linecap="butt">
      <path d="M445.5 365.5074 L450.5 353.5074 L445.5 356.5074 L440.5 353.5074 Z" clip-path="url(#clipPath2)" stroke="none"/>
      <path fill="none" d="M445.5 405.4951 L445.5 427.5273" clip-path="url(#clipPath2)"/>
      <path d="M445.5 435.5273 L450.5 423.5273 L445.5 426.5273 L440.5 423.5273 Z" clip-path="url(#clipPath2)" stroke="none"/>
      <path fill="none" d="M192 180.0317 L192 281.978" clip-path="url(#clipPath2)"/>
      <path d="M192 289.978 L197 277.978 L192 280.978 L187 277.978 Z" clip-path="url(#clipPath2)" stroke="none"/>
      <path fill="none" d="M192 330 L192 342.3333 L335.5 342.3333 L335.5 357.4764" clip-path="url(#clipPath2)"/>
      <path d="M335.5 365.4764 L340.5 353.4764 L335.5 356.4764 L330.5 353.4764 Z" clip-path="url(#clipPath2)" stroke="none"/>
      <path fill="none" d="M294 289.9609 L294 310 L555.5 310 L555.5 427.5009" clip-path="url(#clipPath2)"/>
      <path d="M555.5 435.5009 L560.5 423.5009 L555.5 426.5009 L550.5 423.5009 Z" clip-path="url(#clipPath2)" stroke="none"/>
      <path fill="none" d="M555.5 475.4951 L555.5 497.5273" clip-path="url(#clipPath2)"/>
      <path d="M555.5 505.5273 L560.5 493.5273 L555.5 496.5273 L550.5 493.5273 Z" clip-path="url(#clipPath2)" stroke="none"/>
      <path fill="none" d="M256.5 405.4951 L256.5 455.5 L234.4707 455.5" clip-path="url(#clipPath2)"/>
      <path d="M226.4707 455.5 L238.4707 460.5 L235.4707 455.5 L238.4707 450.5 Z" clip-path="url(#clipPath2)" stroke="none"/>
      <path fill="none" d="M206.5 475.4781 L206.5 651.9772" clip-path="url(#clipPath2)"/>
      <path d="M206.5 659.9772 L211.5 647.9772 L206.5 650.9772 L201.5 647.9772 Z" clip-path="url(#clipPath2)" stroke="none"/>
      <path fill="none" d="M341 475.4951 L341 525.5 L314.4851 525.5" clip-path="url(#clipPath2)"/>
      <path d="M306.4851 525.5 L318.4851 530.5 L315.4851 525.5 L318.4851 520.5 Z" clip-path="url(#clipPath2)" stroke="none"/>
      <path fill="none" d="M286.5 545.5292 L286.5 652.0067" clip-path="url(#clipPath2)"/>
      <path d="M286.5 660.0067 L291.5 648.0067 L286.5 651.0067 L281.5 648.0067 Z" clip-path="url(#clipPath2)" stroke="none"/>
      <path fill="none" d="M451 545.4951 L451 595.5 L394.511 595.5" clip-path="url(#clipPath2)"/>
      <path d="M386.511 595.5 L398.511 600.5 L395.511 595.5 L398.511 590.5 Z" clip-path="url(#clipPath2)" stroke="none"/>
      <path fill="none" d="M366.5 615.511 L366.5 652.0046" clip-path="url(#clipPath2)"/>
      <path d="M366.5 660.0046 L371.5 648.0046 L366.5 651.0046 L361.5 648.0046 Z" clip-path="url(#clipPath2)" stroke="none"/>
    </g>
  </g>
</svg>
