<?xml version="1.0" encoding="UTF-8"?><svg xmlns="http://www.w3.org/2000/svg" xmlns:xlink="http://www.w3.org/1999/xlink" fill-opacity="1" color-rendering="auto" color-interpolation="auto" stroke="black" text-rendering="auto" stroke-linecap="square" width="435" stroke-miterlimit="10" stroke-opacity="1" shape-rendering="auto" fill="black" stroke-dasharray="none" font-weight="normal" stroke-width="1" height="252" font-family="'Dialog'" font-style="normal" stroke-linejoin="miter" font-size="12" stroke-dashoffset="0" image-rendering="auto">
  <!--Generated by ySVG 2.5-->
  <defs id="genericDefs"/>
  <g>
    <defs id="defs1">
      <clipPath clipPathUnits="userSpaceOnUse" id="clipPath1">
        <path d="M0 0 L435 0 L435 252 L0 252 L0 0 Z"/>
      </clipPath>
      <clipPath clipPathUnits="userSpaceOnUse" id="clipPath2">
        <path d="M216 80 L651 80 L651 332 L216 332 L216 80 Z"/>
      </clipPath>
    </defs>
    <g fill="white" text-rendering="geometricPrecision" shape-rendering="geometricPrecision" transform="translate(-216,-80)" stroke="white">
      <rect x="216" width="435" height="252" y="80" clip-path="url(#clipPath2)" stroke="none"/>
    </g>
    <g fill="rgb(204,204,204)" text-rendering="geometricPrecision" shape-rendering="geometricPrecision" transform="matrix(1,0,0,1,-216,-80)" stroke="rgb(204,204,204)">
      <path d="M231 95 L452 95 L452 317 L231 317 Z" clip-path="url(#clipPath2)" stroke="none"/>
    </g>
    <g text-rendering="geometricPrecision" stroke-miterlimit="1.45" shape-rendering="geometricPrecision" transform="matrix(1,0,0,1,-216,-80)" stroke-linecap="butt">
      <path fill="none" d="M231 95 L452 95 L452 317 L231 317 Z" clip-path="url(#clipPath2)"/>
    </g>
    <g fill="rgb(242,241,215)" text-rendering="geometricPrecision" shape-rendering="geometricPrecision" transform="matrix(1,0,0,1,-216,-80)" stroke="rgb(242,241,215)">
      <path d="M249.5 138 L433.5 138 L433.5 178 L249.5 178 Z" clip-path="url(#clipPath2)" stroke="none"/>
    </g>
    <g text-rendering="geometricPrecision" stroke-miterlimit="1.45" shape-rendering="geometricPrecision" transform="matrix(1,0,0,1,-216,-80)" stroke-linecap="butt">
      <path fill="none" d="M249.5 138 L433.5 138 L433.5 178 L249.5 178 Z" clip-path="url(#clipPath2)"/>
      <text x="262.3281" xml:space="preserve" y="161.9375" font-family="'Consolas'" clip-path="url(#clipPath2)" stroke="none">impreciseAllocators[32K]</text>
    </g>
    <g text-rendering="geometricPrecision" stroke-miterlimit="1.45" shape-rendering="geometricPrecision" font-family="'Consolas'" transform="matrix(1,0,0,1,-216,-80)" stroke-linecap="butt">
      <text x="237.7129" xml:space="preserve" y="113.9375" clip-path="url(#clipPath2)" stroke="none">NormalSpace</text>
    </g>
    <g fill="rgb(255,153,204)" text-rendering="geometricPrecision" shape-rendering="geometricPrecision" transform="matrix(1,0,0,1,-216,-80)" stroke="rgb(255,153,204)">
      <path d="M249.5 250 L433.5 250 L433.5 290 L249.5 290 Z" clip-path="url(#clipPath2)" stroke="none"/>
    </g>
    <g text-rendering="geometricPrecision" stroke-miterlimit="1.45" shape-rendering="geometricPrecision" transform="matrix(1,0,0,1,-216,-80)" stroke-linecap="butt">
      <path fill="none" d="M249.5 250 L433.5 250 L433.5 290 L249.5 290 Z" clip-path="url(#clipPath2)"/>
      <text x="295.3164" xml:space="preserve" y="273.9375" font-family="'Consolas'" clip-path="url(#clipPath2)" stroke="none">largeAllocator</text>
    </g>
    <g fill="rgb(0,178,113)" text-rendering="geometricPrecision" shape-rendering="geometricPrecision" transform="matrix(1,0,0,1,-216,-80)" stroke="rgb(0,178,113)">
      <path d="M536.25 138 L635.25 138 L635.25 178 L536.25 178 Z" clip-path="url(#clipPath2)" stroke="none"/>
    </g>
    <g text-rendering="geometricPrecision" stroke-miterlimit="1.45" shape-rendering="geometricPrecision" transform="matrix(1,0,0,1,-216,-80)" stroke-linecap="butt">
      <path fill="none" d="M536.25 138 L635.25 138 L635.25 178 L536.25 178 Z" clip-path="url(#clipPath2)"/>
      <text x="549.4629" y="161.9375" clip-path="url(#clipPath2)" fill="white" font-family="'Consolas'" stroke="none" xml:space="preserve">[121...128]</text>
    </g>
    <g fill="rgb(102,153,204)" text-rendering="geometricPrecision" shape-rendering="geometricPrecision" transform="matrix(1,0,0,1,-216,-80)" stroke="rgb(102,153,204)">
      <path d="M536.25 194 L635.25 194 L635.25 234 L536.25 234 Z" clip-path="url(#clipPath2)" stroke="none"/>
    </g>
    <g text-rendering="geometricPrecision" stroke-miterlimit="1.45" shape-rendering="geometricPrecision" transform="matrix(1,0,0,1,-216,-80)" stroke-linecap="butt">
      <path fill="none" d="M536.25 194 L635.25 194 L635.25 234 L536.25 234 Z" clip-path="url(#clipPath2)"/>
      <text x="549.4629" y="217.9375" clip-path="url(#clipPath2)" fill="white" font-family="'Consolas'" stroke="none" xml:space="preserve">[113...120]</text>
    </g>
    <g fill="rgb(232,208,152)" text-rendering="geometricPrecision" shape-rendering="geometricPrecision" transform="matrix(1,0,0,1,-216,-80)" stroke="rgb(232,208,152)">
      <path d="M536.25 250 L635.25 250 L635.25 290 L536.25 290 Z" clip-path="url(#clipPath2)" stroke="none"/>
    </g>
    <g text-rendering="geometricPrecision" stroke-miterlimit="1.45" shape-rendering="geometricPrecision" transform="matrix(1,0,0,1,-216,-80)" stroke-linecap="butt">
      <path fill="none" d="M536.25 250 L635.25 250 L635.25 290 L536.25 290 Z" clip-path="url(#clipPath2)"/>
      <text x="562.6582" xml:space="preserve" y="273.9375" font-family="'Consolas'" clip-path="url(#clipPath2)" stroke="none">[x...x]</text>
    </g>
    <g fill="rgb(153,153,255)" text-rendering="geometricPrecision" shape-rendering="geometricPrecision" transform="matrix(1,0,0,1,-216,-80)" stroke="rgb(153,153,255)">
      <path d="M249.5 194 L433.5 194 L433.5 234 L249.5 234 Z" clip-path="url(#clipPath2)" stroke="none"/>
    </g>
    <g text-rendering="geometricPrecision" stroke-miterlimit="1.45" shape-rendering="geometricPrecision" transform="matrix(1,0,0,1,-216,-80)" stroke-linecap="butt">
      <path fill="none" d="M249.5 194 L433.5 194 L433.5 234 L249.5 234 Z" clip-path="url(#clipPath2)"/>
      <text x="272.2246" xml:space="preserve" y="217.9375" font-family="'Consolas'" clip-path="url(#clipPath2)" stroke="none">preciseAllocators[16]</text>
    </g>
    <g text-rendering="geometricPrecision" stroke-miterlimit="1.45" shape-rendering="geometricPrecision" transform="matrix(1,0,0,1,-216,-80)" stroke-linecap="butt">
      <path fill="none" d="M433.4814 214 L528.2701 214" clip-path="url(#clipPath2)"/>
    </g>
    <g text-rendering="geometricPrecision" stroke-miterlimit="1.45" shape-rendering="geometricPrecision" transform="matrix(1,0,0,1,-216,-80)" stroke-linecap="butt">
      <path d="M536.2701 214 L524.2701 209 L527.2701 214 L524.2701 219 Z" clip-path="url(#clipPath2)" stroke="none"/>
      <path fill="none" d="M433.4811 224 L492.625 224 L492.625 270 L528.2074 270" clip-path="url(#clipPath2)"/>
      <path d="M536.2074 270 L524.2074 265 L527.2074 270 L524.2074 275 Z" clip-path="url(#clipPath2)" stroke="none"/>
      <path fill="none" d="M433.5289 204 L492.625 204 L492.625 158 L528.2319 158" clip-path="url(#clipPath2)"/>
      <path d="M536.2319 158 L524.2319 153 L527.2319 158 L524.2319 163 Z" clip-path="url(#clipPath2)" stroke="none"/>
    </g>
  </g>
</svg>
