<?xml version="1.0" encoding="UTF-8"?><svg xmlns="http://www.w3.org/2000/svg" xmlns:xlink="http://www.w3.org/1999/xlink" fill-opacity="1" color-rendering="auto" color-interpolation="auto" stroke="black" text-rendering="auto" stroke-linecap="square" width="234" stroke-miterlimit="10" stroke-opacity="1" shape-rendering="auto" fill="black" stroke-dasharray="none" font-weight="normal" stroke-width="1" height="270" font-family="'Dialog'" font-style="normal" stroke-linejoin="miter" font-size="12" stroke-dashoffset="0" image-rendering="auto">
  <!--Generated by ySVG 2.5-->
  <defs id="genericDefs"/>
  <g>
    <defs id="defs1">
      <clipPath clipPathUnits="userSpaceOnUse" id="clipPath1">
        <path d="M0 0 L234 0 L234 270 L0 270 L0 0 Z"/>
      </clipPath>
      <clipPath clipPathUnits="userSpaceOnUse" id="clipPath2">
        <path d="M109 167 L343 167 L343 437 L109 437 L109 167 Z"/>
      </clipPath>
    </defs>
    <g fill="white" text-rendering="geometricPrecision" shape-rendering="geometricPrecision" transform="translate(-109,-167)" stroke="white">
      <rect x="109" width="234" height="270" y="167" clip-path="url(#clipPath2)" stroke="none"/>
    </g>
    <g text-rendering="geometricPrecision" stroke-miterlimit="1.45" shape-rendering="geometricPrecision" transform="matrix(1,0,0,1,-109,-167)" stroke-linecap="butt">
      <path fill="none" d="M124 182 L328 182 L328 222 L124 222 Z" clip-path="url(#clipPath2)"/>
      <text x="160.0234" y="205.9375" clip-path="url(#clipPath2)" font-family="'Consolas'" stroke="none" font-weight="bold" xml:space="preserve">client write MAC key</text>
    </g>
    <g text-rendering="geometricPrecision" stroke-miterlimit="1.45" shape-rendering="geometricPrecision" transform="matrix(1,0,0,1,-109,-167)" stroke-linecap="butt">
      <path fill="none" d="M124 222 L328 222 L328 262 L124 262 Z" clip-path="url(#clipPath2)"/>
      <text x="160.0234" y="245.9375" clip-path="url(#clipPath2)" font-family="'Consolas'" stroke="none" font-weight="bold" xml:space="preserve">server write MAC key</text>
    </g>
    <g text-rendering="geometricPrecision" stroke-miterlimit="1.45" shape-rendering="geometricPrecision" transform="matrix(1,0,0,1,-109,-167)" stroke-linecap="butt">
      <path fill="none" d="M124 262 L328 262 L328 302 L124 302 Z" clip-path="url(#clipPath2)"/>
      <text x="136.9316" y="285.9375" clip-path="url(#clipPath2)" font-family="'Consolas'" stroke="none" font-weight="bold" xml:space="preserve">client write encryption key</text>
    </g>
    <g text-rendering="geometricPrecision" stroke-miterlimit="1.45" shape-rendering="geometricPrecision" transform="matrix(1,0,0,1,-109,-167)" stroke-linecap="butt">
      <path fill="none" d="M124 302 L328 302 L328 342 L124 342 Z" clip-path="url(#clipPath2)"/>
      <text x="136.9316" y="325.9375" clip-path="url(#clipPath2)" font-family="'Consolas'" stroke="none" font-weight="bold" xml:space="preserve">server write encryption key</text>
    </g>
    <g text-rendering="geometricPrecision" stroke-miterlimit="1.45" shape-rendering="geometricPrecision" transform="matrix(1,0,0,1,-109,-167)" stroke-linecap="butt">
      <path fill="none" d="M124 342 L328 342 L328 382 L124 382 Z" clip-path="url(#clipPath2)"/>
      <text x="176.5176" y="365.9375" clip-path="url(#clipPath2)" font-family="'Consolas'" stroke="none" font-weight="bold" xml:space="preserve">client write IV</text>
    </g>
    <g text-rendering="geometricPrecision" stroke-miterlimit="1.45" shape-rendering="geometricPrecision" transform="matrix(1,0,0,1,-109,-167)" stroke-linecap="butt">
      <path fill="none" d="M124 382 L328 382 L328 422 L124 422 Z" clip-path="url(#clipPath2)"/>
      <text x="176.5176" y="405.9375" clip-path="url(#clipPath2)" font-family="'Consolas'" stroke="none" font-weight="bold" xml:space="preserve">server write IV</text>
    </g>
  </g>
</svg>
