<?xml version="1.0" encoding="UTF-8"?><svg xmlns="http://www.w3.org/2000/svg" xmlns:xlink="http://www.w3.org/1999/xlink" fill-opacity="1" color-rendering="auto" color-interpolation="auto" stroke="black" text-rendering="auto" stroke-linecap="square" width="491" stroke-miterlimit="10" stroke-opacity="1" shape-rendering="auto" fill="black" stroke-dasharray="none" font-weight="normal" stroke-width="1" height="357" font-family="'Dialog'" font-style="normal" stroke-linejoin="miter" font-size="12" stroke-dashoffset="0" image-rendering="auto">
  <!--Generated by ySVG 2.5-->
  <defs id="genericDefs"/>
  <g>
    <defs id="defs1">
      <clipPath clipPathUnits="userSpaceOnUse" id="clipPath1">
        <path d="M0 0 L491 0 L491 357 L0 357 L0 0 Z"/>
      </clipPath>
      <clipPath clipPathUnits="userSpaceOnUse" id="clipPath2">
        <path d="M200 143 L691 143 L691 500 L200 500 L200 143 Z"/>
      </clipPath>
    </defs>
    <g fill="white" text-rendering="geometricPrecision" shape-rendering="geometricPrecision" transform="translate(-200,-143)" stroke="white">
      <rect x="200" width="491" height="357" y="143" clip-path="url(#clipPath2)" stroke="none"/>
    </g>
    <g text-rendering="geometricPrecision" stroke-miterlimit="1.45" shape-rendering="geometricPrecision" transform="matrix(1,0,0,1,-200,-143)" stroke-linecap="butt">
      <path fill="none" d="M215 198 L386 198 L386 238 L215 238 Z" clip-path="url(#clipPath2)"/>
      <text x="260.9141" y="221.9375" clip-path="url(#clipPath2)" font-family="'Consolas'" stroke="none" font-weight="bold" xml:space="preserve">Client Hello</text>
    </g>
    <g text-rendering="geometricPrecision" stroke-miterlimit="1.45" shape-rendering="geometricPrecision" transform="matrix(1,0,0,1,-200,-143)" stroke-linecap="butt">
      <path fill="none" d="M215 391 L386 391 L386 444.5 L215 444.5 Z" clip-path="url(#clipPath2)"/>
    </g>
    <g text-rendering="geometricPrecision" stroke-miterlimit="1.45" shape-rendering="geometricPrecision" transform="matrix(1,0,0,1,-200,-143)" stroke-linecap="butt">
      <path fill="none" d="M215 313 L386 313 L386 391 L215 391 Z" clip-path="url(#clipPath2)"/>
      <text x="234.5234" y="331.9375" clip-path="url(#clipPath2)" font-family="'Consolas'" stroke="none" font-weight="bold" xml:space="preserve">[Certificate]</text>
      <text x="234.5234" y="343.9375" clip-path="url(#clipPath2)" font-family="'Consolas'" stroke="none" font-weight="bold" xml:space="preserve">Client Key Exchange</text>
      <text x="234.5234" y="355.9375" clip-path="url(#clipPath2)" font-family="'Consolas'" stroke="none" font-weight="bold" xml:space="preserve">Certificate Verify</text>
      <text x="234.5234" y="367.9375" clip-path="url(#clipPath2)" font-family="'Consolas'" stroke="none" font-weight="bold" xml:space="preserve">[Change Cipher Spec]</text>
      <text x="234.5234" y="379.9375" clip-path="url(#clipPath2)" font-family="'Consolas'" stroke="none" font-weight="bold" xml:space="preserve">Finished</text>
    </g>
    <g text-rendering="geometricPrecision" stroke-miterlimit="1.45" shape-rendering="geometricPrecision" transform="matrix(1,0,0,1,-200,-143)" stroke-linecap="butt">
      <path fill="none" d="M513 198 L676 198 L676 238 L513 238 Z" clip-path="url(#clipPath2)"/>
    </g>
    <g text-rendering="geometricPrecision" stroke-miterlimit="1.45" shape-rendering="geometricPrecision" transform="matrix(1,0,0,1,-200,-143)" stroke-linecap="butt">
      <path fill="none" d="M513 238 L676 238 L676 313 L513 313 Z" clip-path="url(#clipPath2)"/>
      <text x="525.2246" y="255.4375" clip-path="url(#clipPath2)" font-family="'Consolas'" stroke="none" font-weight="bold" xml:space="preserve">Server Hello</text>
      <text x="525.2246" y="267.4375" clip-path="url(#clipPath2)" font-family="'Consolas'" stroke="none" font-weight="bold" xml:space="preserve">Certificate</text>
      <text x="525.2246" y="279.4375" clip-path="url(#clipPath2)" font-family="'Consolas'" stroke="none" font-weight="bold" xml:space="preserve">Server Key Exchange</text>
      <text x="525.2246" y="291.4375" clip-path="url(#clipPath2)" font-family="'Consolas'" stroke="none" font-weight="bold" xml:space="preserve">[Certificate Request]</text>
      <text x="525.2246" y="303.4375" clip-path="url(#clipPath2)" font-family="'Consolas'" stroke="none" font-weight="bold" xml:space="preserve">Server Hello Done</text>
    </g>
    <g text-rendering="geometricPrecision" stroke-miterlimit="1.45" shape-rendering="geometricPrecision" transform="matrix(1,0,0,1,-200,-143)" stroke-linecap="butt">
      <path fill="none" d="M513 313 L676 313 L676 384.5 L513 384.5 Z" clip-path="url(#clipPath2)"/>
    </g>
    <g text-rendering="geometricPrecision" stroke-miterlimit="1.45" shape-rendering="geometricPrecision" transform="matrix(1,0,0,1,-200,-143)" stroke-linecap="butt">
      <path fill="none" d="M513 384.5 L676 384.5 L676 444.5 L513 444.5 Z" clip-path="url(#clipPath2)"/>
      <text x="528.5234" y="412.4375" clip-path="url(#clipPath2)" font-family="'Consolas'" stroke="none" font-weight="bold" xml:space="preserve">[Change Cipher Spec]</text>
      <text x="528.5234" y="424.4375" clip-path="url(#clipPath2)" font-family="'Consolas'" stroke="none" font-weight="bold" xml:space="preserve">Finished</text>
    </g>
    <g stroke-linecap="butt" transform="matrix(1,0,0,1,-200,-143)" text-rendering="geometricPrecision" font-family="'Consolas'" shape-rendering="geometricPrecision" font-weight="bold" stroke-miterlimit="1.45">
      <text x="574.707" xml:space="preserve" y="181.9375" clip-path="url(#clipPath2)" stroke="none">Server</text>
    </g>
    <g stroke-linecap="butt" transform="matrix(1,0,0,1,-200,-143)" text-rendering="geometricPrecision" font-family="'Consolas'" shape-rendering="geometricPrecision" font-weight="bold" stroke-miterlimit="1.45">
      <text x="280.707" xml:space="preserve" y="181.9375" clip-path="url(#clipPath2)" stroke="none">Client</text>
    </g>
    <g text-rendering="geometricPrecision" stroke-miterlimit="1.45" shape-rendering="geometricPrecision" transform="matrix(1,0,0,1,-200,-143)" stroke-linecap="butt">
      <path fill="none" d="M215 238 L386 238 L386 313 L215 313 Z" clip-path="url(#clipPath2)"/>
    </g>
    <g text-rendering="geometricPrecision" stroke-miterlimit="1.45" shape-rendering="geometricPrecision" transform="matrix(1,0,0,1,-200,-143)" stroke-linecap="butt">
      <path fill="none" d="M513 444.5 L676 444.5 L676 484.5 L513 484.5 Z" clip-path="url(#clipPath2)"/>
      <text x="541.7188" y="468.4375" clip-path="url(#clipPath2)" font-family="'Consolas'" stroke="none" font-weight="bold" xml:space="preserve">Application Data</text>
    </g>
    <g text-rendering="geometricPrecision" stroke-miterlimit="1.45" shape-rendering="geometricPrecision" transform="matrix(1,0,0,1,-200,-143)" stroke-linecap="butt">
      <path fill="none" d="M215 444.5 L386 444.5 L386 484.5 L215 484.5 Z" clip-path="url(#clipPath2)"/>
      <text x="247.7188" y="468.4375" clip-path="url(#clipPath2)" font-family="'Consolas'" stroke="none" font-weight="bold" xml:space="preserve">Application Data</text>
    </g>
    <g stroke-linecap="butt" transform="matrix(1,0,0,1,-200,-143)" text-rendering="geometricPrecision" font-family="'Consolas'" shape-rendering="geometricPrecision" font-weight="bold" stroke-miterlimit="1.45">
      <text x="446.2012" xml:space="preserve" y="206.9375" clip-path="url(#clipPath2)" stroke="none">A</text>
    </g>
    <g stroke-linecap="butt" transform="matrix(1,0,0,1,-200,-143)" text-rendering="geometricPrecision" font-family="'Consolas'" shape-rendering="geometricPrecision" font-weight="bold" stroke-miterlimit="1.45">
      <text x="446.2012" xml:space="preserve" y="269.4375" clip-path="url(#clipPath2)" stroke="none">B</text>
    </g>
    <g stroke-linecap="butt" transform="matrix(1,0,0,1,-200,-143)" text-rendering="geometricPrecision" font-family="'Consolas'" shape-rendering="geometricPrecision" font-weight="bold" stroke-miterlimit="1.45">
      <text x="446.2012" xml:space="preserve" y="331.9375" clip-path="url(#clipPath2)" stroke="none">C</text>
    </g>
    <g stroke-linecap="butt" transform="matrix(1,0,0,1,-200,-143)" text-rendering="geometricPrecision" font-family="'Consolas'" shape-rendering="geometricPrecision" font-weight="bold" stroke-miterlimit="1.45">
      <text x="446.2012" xml:space="preserve" y="391.9375" clip-path="url(#clipPath2)" stroke="none">D</text>
    </g>
    <g text-rendering="geometricPrecision" stroke-miterlimit="1.45" shape-rendering="geometricPrecision" transform="matrix(1,0,0,1,-200,-143)" stroke-linecap="butt">
      <path fill="none" d="M386.0227 218 L504.9872 218" clip-path="url(#clipPath2)"/>
    </g>
    <g text-rendering="geometricPrecision" stroke-miterlimit="1.45" shape-rendering="geometricPrecision" transform="matrix(1,0,0,1,-200,-143)" stroke-linecap="butt">
      <path d="M512.9872 218 L500.9872 213 L503.9872 218 L500.9872 223 Z" clip-path="url(#clipPath2)" stroke="none"/>
      <path fill="none" d="M386.0227 352 L504.9872 352" clip-path="url(#clipPath2)"/>
      <path d="M512.9872 352 L500.9872 347 L503.9872 352 L500.9872 357 Z" clip-path="url(#clipPath2)" stroke="none"/>
      <path fill="none" d="M512.9968 417.75 L394.0227 417.75" clip-path="url(#clipPath2)"/>
      <path d="M386.0227 417.75 L398.0227 422.75 L395.0227 417.75 L398.0227 412.75 Z" clip-path="url(#clipPath2)" stroke="none"/>
      <path fill="none" d="M512.9968 275.5 L394.0227 275.5" clip-path="url(#clipPath2)"/>
      <path d="M386.0227 275.5 L398.0227 280.5 L395.0227 275.5 L398.0227 270.5 Z" clip-path="url(#clipPath2)" stroke="none"/>
      <path fill="none" stroke-dasharray="4,3,0,3" d="M512.993 474.5 L394.015 474.5" clip-path="url(#clipPath2)" stroke-linecap="round"/>
      <path stroke-dasharray="4,3,0,3" d="M386.015 474.5 L398.015 479.5 L395.015 474.5 L398.015 469.5 Z" clip-path="url(#clipPath2)" stroke-linecap="round" stroke="none"/>
      <path fill="none" stroke-dasharray="4,3,0,3" d="M386.0227 454.5 L504.9872 454.5" clip-path="url(#clipPath2)" stroke-linecap="round"/>
      <path stroke-dasharray="4,3,0,3" d="M512.9872 454.5 L500.9872 449.5 L503.9872 454.5 L500.9872 459.5 Z" clip-path="url(#clipPath2)" stroke-linecap="round" stroke="none"/>
    </g>
  </g>
</svg>
