<?xml version="1.0" encoding="UTF-8"?><svg xmlns="http://www.w3.org/2000/svg" xmlns:xlink="http://www.w3.org/1999/xlink" fill-opacity="1" color-rendering="auto" color-interpolation="auto" stroke="black" text-rendering="auto" stroke-linecap="square" width="265" stroke-miterlimit="10" stroke-opacity="1" shape-rendering="auto" fill="black" stroke-dasharray="none" font-weight="normal" stroke-width="1" height="210" font-family="'Dialog'" font-style="normal" stroke-linejoin="miter" font-size="12" stroke-dashoffset="0" image-rendering="auto">
  <!--Generated by ySVG 2.5-->
  <defs id="genericDefs"/>
  <g>
    <defs id="defs1">
      <clipPath clipPathUnits="userSpaceOnUse" id="clipPath1">
        <path d="M0 0 L265 0 L265 210 L0 210 L0 0 Z"/>
      </clipPath>
      <clipPath clipPathUnits="userSpaceOnUse" id="clipPath2">
        <path d="M298 112 L563 112 L563 322 L298 322 L298 112 Z"/>
      </clipPath>
    </defs>
    <g fill="white" text-rendering="geometricPrecision" shape-rendering="geometricPrecision" transform="translate(-298,-112)" stroke="white">
      <rect x="298" width="265" height="210" y="112" clip-path="url(#clipPath2)" stroke="none"/>
    </g>
    <g fill="rgb(71,154,199)" text-rendering="geometricPrecision" shape-rendering="geometricPrecision" transform="matrix(1,0,0,1,-298,-112)" stroke="rgb(71,154,199)">
      <path d="M313 127 L548 127 L548 167 L313 167 Z" clip-path="url(#clipPath2)" stroke="none"/>
    </g>
    <g text-rendering="geometricPrecision" stroke-miterlimit="1.45" shape-rendering="geometricPrecision" transform="matrix(1,0,0,1,-298,-112)" stroke-linecap="butt">
      <path fill="none" d="M313 127 L548 127 L548 167 L313 167 Z" clip-path="url(#clipPath2)"/>
    </g>
    <g stroke-linecap="butt" transform="matrix(1,0,0,1,-298,-112)" fill="white" text-rendering="geometricPrecision" font-family="'Consolas'" shape-rendering="geometricPrecision" stroke="white" font-weight="bold" stroke-miterlimit="1.45">
      <text x="400.8105" xml:space="preserve" y="150.9375" clip-path="url(#clipPath2)" stroke="none">Context A</text>
    </g>
    <g fill="rgb(0,178,113)" text-rendering="geometricPrecision" shape-rendering="geometricPrecision" transform="matrix(1,0,0,1,-298,-112)" stroke="rgb(0,178,113)">
      <path d="M313 197 L548 197 L548 237 L313 237 Z" clip-path="url(#clipPath2)" stroke="none"/>
    </g>
    <g text-rendering="geometricPrecision" stroke-miterlimit="1.45" shape-rendering="geometricPrecision" transform="matrix(1,0,0,1,-298,-112)" stroke-linecap="butt">
      <path fill="none" d="M313 197 L548 197 L548 237 L313 237 Z" clip-path="url(#clipPath2)"/>
    </g>
    <g stroke-linecap="butt" transform="matrix(1,0,0,1,-298,-112)" fill="white" text-rendering="geometricPrecision" font-family="'Consolas'" shape-rendering="geometricPrecision" stroke="white" font-weight="bold" stroke-miterlimit="1.45">
      <text x="400.8105" xml:space="preserve" y="220.9375" clip-path="url(#clipPath2)" stroke="none">Context B</text>
    </g>
    <g fill="rgb(102,204,204)" text-rendering="geometricPrecision" shape-rendering="geometricPrecision" transform="matrix(1,0,0,1,-298,-112)" stroke="rgb(102,204,204)">
      <path d="M313 267 L548 267 L548 307 L313 307 Z" clip-path="url(#clipPath2)" stroke="none"/>
    </g>
    <g text-rendering="geometricPrecision" stroke-miterlimit="1.45" shape-rendering="geometricPrecision" transform="matrix(1,0,0,1,-298,-112)" stroke-linecap="butt">
      <path fill="none" d="M313 267 L548 267 L548 307 L313 307 Z" clip-path="url(#clipPath2)"/>
    </g>
    <g stroke-linecap="butt" transform="matrix(1,0,0,1,-298,-112)" fill="white" text-rendering="geometricPrecision" font-family="'Consolas'" shape-rendering="geometricPrecision" stroke="white" font-weight="bold" stroke-miterlimit="1.45">
      <text x="400.8105" xml:space="preserve" y="290.9375" clip-path="url(#clipPath2)" stroke="none">Context C</text>
    </g>
    <g text-rendering="geometricPrecision" stroke-miterlimit="1.45" shape-rendering="geometricPrecision" transform="matrix(1,0,0,1,-298,-112)" stroke-linecap="butt">
      <path fill="none" d="M430.5 166.9951 L430.5 189.0273" clip-path="url(#clipPath2)"/>
    </g>
    <g text-rendering="geometricPrecision" stroke-miterlimit="1.45" shape-rendering="geometricPrecision" transform="matrix(1,0,0,1,-298,-112)" stroke-linecap="butt">
      <path d="M430.5 197.0273 L435.5 185.0273 L430.5 188.0273 L425.5 185.0273 Z" clip-path="url(#clipPath2)" stroke="none"/>
      <path fill="none" d="M430.5 236.9951 L430.5 259.0273" clip-path="url(#clipPath2)"/>
      <path d="M430.5 267.0273 L435.5 255.0273 L430.5 258.0273 L425.5 255.0273 Z" clip-path="url(#clipPath2)" stroke="none"/>
    </g>
  </g>
</svg>
